{
.appVersion = "3319";
.formatVersion = 3;
axes = (
{
name = Weight;
tag = wght;
}
);
classes = (
{
automatic = 1;

glyphs = (
{
glyphname = A;
kernLeft = A;
kernRight = A;
lastChange = "2024-09-05 12:38:03 +0000";
layers = (
{
anchors = (
{
name = bottom;
pos = (281,0);
},
{
name = ogonek;
pos = (571,0);
},
{
name = top;
pos = (374,734);
}
);
layerId = "54A40BFF-1CE0-48F0-82EB-25AA62455493";
shapes = (
{
closed = 1;
nodes = (
(320,690,ls),
(304,690,o),
(291,683,o),
(286,667,cs),
(-30,0,l),
(63,0,l),
(320,564,ls),
(328,583,o),
(338,605,o),
(346,623,c),
(376,623,l),
(379,604,o),
(381,584,o),
(384,564,cs),
(483,0,l),
(571,0,l),
(442,664,ls),
(441,679,o),
(428,690,o),
(412,690,cs)
);
},
{
closed = 1;
nodes = (
(136,292,l),
(126,215,l),
(476,215,l),
(486,292,l)
);
}
);
width = 619.42353;
},
{
anchors = (
{
name = bottom;
pos = (270,0);
},
{
name = ogonek;
pos = (543,0);
},
{
name = top;
pos = (361,740);
}
);
layerId = "E21536AE-9819-4FE7-8A20-8865FE3C0515";
shapes = (
{
closed = 1;
nodes = (
(335,690,ls),
(329,690,o),
(325,688,o),
(322,682,cs),
(-22,0,l),
(6,0,l),
(313,611,ls),
(323,630,o),
(331,648,o),
(341,667,c),
(370,667,l),
(375,648,o),
(378,632,o),
(382,613,cs),
(517,0,l),
(543,0,l),
(391,680,ls),
(390,686,o),
(384,690,o),
(378,690,cs)
);
},
{
closed = 1;
nodes = (
(124,274,l),
(121,252,l),
(471,252,l),
(474,274,l)
);
}
);
width = 599;
},
{
anchors = (
{
name = bottom;
pos = (307,0);
},
{
name = ogonek;
pos = (648,0);
},
{
name = top;
pos = (398,735);
}
);
layerId = "924B7471-43FB-4CAD-AF7E-45215B64D997";
shapes = (
{
closed = 1;
nodes = (
(293,690,ls),
(258,690,o),
(230,672,o),
(217,638,cs),
(-49,0,l),
(176,0,l),
(345,455,ls),
(355,482,o),
(361,508,o),
(365,530,c),
(393,530,l),
(392,505,o),
(391,479,o),
(394,453,cs),
(430,0,l),
(647,0,l),
(558,630,ls),
(554,664,o),
(524,690,o),
(489,690,cs)
);
},
{
closed = 1;
nodes = (
(160,304,l),
(141,146,l),
(504,146,l),
(522,304,l)
);
}
);
width = 678;
}
);
unicode = 65;
},
{
glyphname = Aringacute;
kernLeft = A;
kernRight = A;
lastChange = "2024-09-05 12:38:03 +0000";
layers = (
{
layerId = "54A40BFF-1CE0-48F0-82EB-25AA62455493";
shapes = (
{
closed = 1;
nodes = (
(307,630,ls),
(291,630,o),
(280,622,o),
(273,607,cs),
(-30,0,l),
(63,0,l),
(307,504,ls),
(315,523,o),
(325,545,o),
(333,563,c),
(363,563,l),
(366,544,o),
(367,524,o),
(371,504,cs),
(483,0,l),
(571,0,l),
(429,604,ls),
(426,619,o),
(415,630,o),
(399,630,cs)
);
},
{
closed = 1;
nodes = (
(130,242,l),
(120,165,l),
(478,165,l),
(489,242,l)
);
},
{
closed = 1;
nodes = (
(309,870,o),
(261,821,o),
(261,756,cs),
(261,699,o),
(302,660,o),
(362,660,cs),
(428,660,o),
(476,710,o),
(476,774,cs),
(476,831,o),
(435,870,o),
(375,870,cs)
);
},
{
closed = 1;
nodes = (
(409,826,o),
(428,803,o),
(428,771,cs),
(428,734,o),
(402,704,o),
(364,704,cs),
(328,704,o),
(309,728,o),
(309,760,cs),
(309,797,o),
(333,826,o),
(374,826,cs)
);
},
{
closed = 1;
nodes = (
(304,926,l),
(326,888,l),
(483,959,l),
(448,1022,l)
);
}
);
width = 619.42353;
},
{
background = {
shapes = (
{
closed = 1;
nodes = (
(335,690,ls),
(329,690,o),
(325,688,o),
(322,682,cs),
(-22,0,l),
(6,0,l),
(313,611,ls),
(323,630,o),
(331,648,o),
(341,667,c),
(370,667,l),
(375,648,o),
(378,632,o),
(382,613,cs),
(517,0,l),
(543,0,l),
(391,680,ls),
(390,686,o),
(384,690,o),
(378,690,cs)
);
},
{
closed = 1;
nodes = (
(124,274,l),
(121,252,l),
(471,252,l),
(474,274,l)
);
}
);
};
layerId = "E21536AE-9819-4FE7-8A20-8865FE3C0515";
shapes = (
{
closed = 1;
nodes = (
(322,630,ls),
(316,630,o),
(312,628,o),
(309,622,cs),
(-22,0,l),
(6,0,l),
(300,551,ls),
(310,570,o),
(318,588,o),
(328,607,c),
(357,607,l),
(362,588,o),
(364,572,o),
(369,553,cs),
(517,0,l),
(543,0,l),
(378,620,ls),
(376,626,o),
(371,630,o),
(365,630,cs)
);
},
{
closed = 1;
nodes = (
(102,224,l),
(99,202,l),
(479,202,l),
(482,224,l)
);
},
{
closed = 1;
nodes = (
(315,859,o),
(268,812,o),
(268,754,cs),
(268,705,o),
(301,669,o),
(356,669,cs),
(416,669,o),
(462,717,o),
(462,774,cs),
(462,823,o),
(429,859,o),
(374,859,cs)
);
},
{
closed = 1;
nodes = (
(416,840,o),
(441,811,o),
(441,776,cs),
(441,731,o),
(409,688,o),
(356,688,cs),
(312,688,o),
(289,719,o),
(289,756,cs),
(289,799,o),
(323,840,o),
(374,840,cs)
);
},
{
closed = 1;
nodes = (
(317,896,l),
(328,881,l),
(469,960,l),
(456,981,l)
);
}
);
width = 599;
},
{
background = {
shapes = (
{
closed = 1;
nodes = (
(293,690,ls),
(258,690,o),
(231,672,o),
(217,638,cs),
(-49,0,l),
(176,0,l),
(345,455,ls),
(355,482,o),
(361,508,o),
(365,530,c),
(393,530,l),
(392,505,o),
(392,479,o),
(394,453,cs),
(430,0,l),
(647,0,l),
(558,630,ls),
(553,664,o),
(524,690,o),
(489,690,cs)
);
},
{
closed = 1;
nodes = (
(160,304,l),
(141,146,l),
(504,146,l),
(522,304,l)
);
}
);
};
layerId = "924B7471-43FB-4CAD-AF7E-45215B64D997";
shapes = (
{
closed = 1;
nodes = (
(281,630,ls),
(246,630,o),
(220,612,o),
(205,578,cs),
(-49,0,l),
(176,0,l),
(333,395,ls),
(344,422,o),
(349,448,o),
(353,470,c),
(381,470,l),
(380,445,o),
(379,419,o),
(382,393,cs),
(430,0,l),
(647,0,l),
(546,570,ls),
(540,604,o),
(512,630,o),
(477,630,cs)
);
},
{
closed = 1;
nodes = (
(160,254,l),
(141,96,l),
(504,96,l),
(522,254,l)
);
},
{
closed = 1;
nodes = (
(321,902,o),
(264,848,o),
(264,771,cs),
(264,705,o),
(320,660,o),
(388,660,cs),
(466,660,o),
(522,714,o),
(522,791,cs),
(522,857,o),
(467,902,o),
(398,902,cs)
);
},
{
closed = 1;
nodes = (
(420,827,o),
(438,810,o),
(438,784,cs),
(438,754,o),
(420,735,o),
(391,735,cs),
(367,735,o),
(348,753,o),
(348,779,cs),
(348,809,o),
(367,827,o),
(394,827,cs)
);
},
{
closed = 1;
nodes = (
(287,994,l),
(332,917,l),
(530,990,l),
(467,1122,l)
);
}
);
width = 678;
}
);
unicode = 506;
},
{
glyphname = AE;
kernLeft = AE;
kernRight = AE;
lastChange = "2024-09-05 12:38:03 +0000";
layers = (
{
anchors = (
{
name = top;
pos = (591,734);
}
);
layerId = "54A40BFF-1CE0-48F0-82EB-25AA62455493";
shapes = (
{
closed = 1;
nodes = (
(500,691,o),
(443,670,o),
(382,583,cs),
(-42,0,l),
(52,0,l),
(460,565,ls),
(484,599,o),
(508,620,o),
(527,630,c),
(532,630,l),
(512,618,o),
(495,588,o),
(492,560,cs),
(433,137,ls),
(419,50,o),
(470,-1,o),
(555,-1,cs),
(645,-1,o),
(735,-1,o),
(825,5,c),
(829,74,l),
(571,74,ls),
(526,74,o),
(510,94,o),
(516,139,cs),
(572,547,ls),
(579,596,o),
(608,616,o),
(649,616,cs),
(904,616,l),
(916,685,l),
(828,690,o),
(745,691,o),
(619,691,cs)
);
},
{
closed = 1;
nodes = (
(187,301,l),
(168,224,l),
(468,224,l),
(479,299,l)
);
},
{
closed = 1;
nodes = (
(472,329,l),
(826,329,l),
(835,398,l),
(483,399,l)
);
}
);
width = 911.75294;
},
{
anchors = (
{
name = top;
pos = (625,740);
}
);
layerId = "E21536AE-9819-4FE7-8A20-8865FE3C0515";
shapes = (
{
closed = 1;
nodes = (
(565,690,o),
(514,680,o),
(454,606,cs),
(-30,0,l),
(0,0,l),
(472,591,ls),
(504,631,o),
(536,655,o),
(560,664,c),
(564,664,l),
(540,654,o),
(517,619,o),
(513,588,cs),
(445,103,ls),
(436,44,o),
(474,0,o),
(534,0,cs),
(625,0,o),
(715,0,o),
(808,4,c),
(809,22,l),
(539,22,ls),
(491,22,o),
(463,55,o),
(470,103,cs),
(537,585,ls),
(545,635,o),
(582,668,o),
(632,668,cs),
(900,668,l),
(902,686,l),
(829,689,o),
(754,690,o),
(629,690,cs)
);
},
{
closed = 1;
nodes = (
(220,294,l),
(203,272,l),
(480,272,l),
(484,294,l)
);
},
{
closed = 1;
nodes = (
(498,359,l),
(814,360,l),
(817,380,l),
(501,381,l)
);
}
);
width = 903;
},
{
anchors = (
{
name = top;
pos = (598,735);
}
);
background = {
shapes = (
{
closed = 1;
nodes = (
(523,694,o),
(463,634,o),
(450,541,cs),
(400,184,ls),
(386,75,o),
(439,-4,o),
(548,-4,cs),
(653,-4,o),
(784,-5,o),
(877,8,c),
(882,162,l),
(655,162,ls),
(628,162,o),
(617,175,o),
(621,201,cs),
(660,488,ls),
(664,518,o),
(676,528,o),
(708,528,cs),
(934,528,l),
(959,680,l),
(870,693,o),
(739,694,o),
(622,694,cs)
);
},
{
closed = 1;
nodes = (
(430,280,l),
(868,290,l),
(885,416,l),
(451,426,l)
);
}
);
};
layerId = "924B7471-43FB-4CAD-AF7E-45215B64D997";
shapes = (
{
closed = 1;
nodes = (
(391,692,o),
(322,650,o),
(257,538,cs),
(-58,0,l),
(167,0,l),
(454,512,ls),
(461,523,o),
(473,549,o),
(481,564,c),
(492,564,l),
(483,546,o),
(474,521,o),
(471,502,cs),
(423,157,ls),
(410,64,o),
(462,-4,o),
(559,-4,cs),
(666,-4,o),
(789,-5,o),
(894,8,c),
(897,159,l),
(665,159,ls),
(634,159,o),
(626,173,o),
(629,199,cs),
(672,491,ls),
(676,521,o),
(688,531,o),
(721,531,cs),
(951,531,l),
(977,681,l),
(857,692,o),
(756,692,o),
(623,692,cs)
);
},
{
closed = 1;
nodes = (
(136,314,l),
(116,156,l),
(473,156,l),
(493,314,l)
);
},
{
closed = 1;
nodes = (
(448,286,l),
(884,286,l),
(900,420,l),
(468,420,l)
);
}
);
width = 956;
}
);
unicode = 198;
},
{
glyphname = B;
kernLeft = B;
kernRight = B;
lastChange = "2024-09-05 12:38:03 +0000";
layers = (
{
layerId = "54A40BFF-1CE0-48F0-82EB-25AA62455493";
shapes = (
{
closed = 1;
nodes = (
(265,698,o),
(212,697,o),
(142,690,c),
(150,621,l),
(190,624,o),
(258,623,o),
(359,623,cs),
(467,623,o),
(499,605,o),
(486,511,cs),
(473,417,o),
(433,392,o),
(333,391,cs),
(114,391,l),
(104,324,l),
(329,324,ls),
(442,322,o),
(473,295,o),
(458,190,cs),
(445,91,o),
(405,67,o),
(292,67,cs),
(182,67,o),
(97,68,o),
(67,70,c),
(45,0,l),
(124,-7,o),
(184,-8,o),
(305,-8,cs),
(461,-8,o),
(522,26,o),
(544,169,cs),
(560,276,o),
(534,346,o),
(432,355,c),
(433,359,l),
(518,367,o),
(557,417,o),
(571,515,cs),
(591,657,o),
(527,698,o),
(363,698,cs)
);
},
{
closed = 1;
nodes = (
(142,690,l),
(45,0,l),
(131,0,l),
(228,690,l)
);
}
);
width = 618.02353;
},
{
layerId = "E21536AE-9819-4FE7-8A20-8865FE3C0515";
shapes = (
{
closed = 1;
nodes = (
(264,698,o),
(222,697,o),
(159,690,c),
(172,675,l),
(196,675,o),
(264,675,o),
(353,675,cs),
(497,675,o),
(543,647,o),
(525,520,cs),
(508,399,o),
(456,369,o),
(327,368,cs),
(127,368,l),
(124,347,l),
(326,347,ls),
(470,345,o),
(516,310,o),
(497,174,cs),
(479,45,o),
(424,15,o),
(286,15,cs),
(185,15,o),
(106,16,o),
(78,18,c),
(62,0,l),
(132,-7,o),
(182,-8,o),
(287,-8,cs),
(444,-8,o),
(502,29,o),
(522,170,cs),
(538,281,o),
(512,347,o),
(412,356,c),
(412,360,l),
(496,368,o),
(537,418,o),
(551,516,cs),
(571,658,o),
(518,698,o),
(353,698,cs)
);
},
{
closed = 1;
nodes = (
(159,690,l),
(62,0,l),
(87,0,l),
(184,690,l)
);
}
);
width = 610;
},
{
layerId = "924B7471-43FB-4CAD-AF7E-45215B64D997";
shapes = (
{
closed = 1;
nodes = (
(270,698,o),
(194,697,o),
(108,690,c),
(110,545,l),
(185,549,o),
(254,548,o),
(384,548,cs),
(419,548,o),
(428,535,o),
(422,495,cs),
(413,435,o),
(400,423,o),
(349,423,cs),
(84,423,l),
(67,292,l),
(345,292,ls),
(395,292,o),
(405,280,o),
(397,224,cs),
(387,156,o),
(370,142,o),
(306,142,cs),
(180,142,o),
(74,143,o),
(40,145,c),
(11,0,l),
(109,-7,o),
(192,-8,o),
(348,-8,cs),
(520,-8,o),
(595,26,o),
(614,164,cs),
(630,278,o),
(595,346,o),
(486,355,c),
(487,361,l),
(583,369,o),
(616,415,o),
(629,510,cs),
(648,656,o),
(574,698,o),
(391,698,cs)
);
},
{
closed = 1;
nodes = (
(108,690,l),
(11,0,l),
(223,0,l),
(320,690,l)
);
}
);
width = 657;
}
);
unicode = 66;
},
{
glyphname = C;
kernLeft = C;
kernRight = C;
lastChange = "2024-09-05 12:38:03 +0000";
layers = (
{
anchors = (
{
name = bottom;
pos = (280,-12);
},
{
name = top;
pos = (382,734);
}
);
layerId = "54A40BFF-1CE0-48F0-82EB-25AA62455493";
shapes = (
{
closed = 1;
nodes = (
(186,702,o),
(105,610,o),
(68,348,cs),
(32,95,o),
(95,-12,o),
(293,-12,cs),
(381,-12,o),
(436,-6,o),
(496,10,c),
(491,77,l),
(434,70,o),
(382,66,o),
(294,66,cs),
(163,67,o),
(130,133,o),
(160,342,cs),
(190,566,o),
(247,624,o),
(382,624,cs),
(460,624,o),
(498,621,o),
(557,615,c),
(571,681,l),
(516,696,o),
(473,702,o),
(383,702,cs)
);
}
);
width = 566.48235;
},
{
anchors = (
{
name = bottom;
pos = (288,-12);
},
{
name = top;
pos = (384,740);
}
);
guides = (
{
angle = 290;
pos = (342,278);
},
{
angle = 70;
pos = (336,401);
},
{
angle = 90;
pos = (430,354);
}
);
layerId = "E21536AE-9819-4FE7-8A20-8865FE3C0515";
shapes = (
{
closed = 1;
nodes = (
(198,702,o),
(120,609,o),
(83,347,cs),
(46,83,o),
(100,-12,o),
(290,-12,cs),
(373,-12,o),
(424,-6,o),
(479,6,c),
(474,24,l),
(420,15,o),
(370,11,o),
(289,11,cs),
(118,11,o),
(74,96,o),
(108,343,cs),
(143,592,o),
(209,679,o),
(387,679,cs),
(461,679,o),
(497,676,o),
(552,667,c),
(559,685,l),
(508,697,o),
(466,702,o),
(386,702,cs)
);
}
);
width = 557;
},
{
anchors = (
{
name = bottom;
pos = (279,-24);
},
{
name = top;
pos = (404,736);
}
);
background = {
shapes = (
{
closed = 1;
nodes = (
(177,704,o),
(85,634,o),
(46,353,cs),
(7,69,o),
(84,-14,o),
(318,-14,cs),
(528,-14,o),
(624,53,o),
(662,337,cs),
(700,624,o),
(607,704,o),
(385,704,cs)
);
},
{
closed = 1;
nodes = (
(446,543,o),
(458,510,o),
(434,353,cs),
(408,182,o),
(392,147,o),
(324,147,cs),
(260,147,o),
(248,179,o),
(273,337,cs),
(300,508,o),
(316,543,o),
(382,543,cs)
);
}
);
};
layerId = "924B7471-43FB-4CAD-AF7E-45215B64D997";
shapes = (
{
closed = 1;
nodes = (
(161,702,o),
(80,631,o),
(41,353,cs),
(3,81,o),
(84,-12,o),
(314,-12,cs),
(415,-12,o),
(479,-3,o),
(553,20,c),
(545,179,l),
(481,173,o),
(424,171,o),
(324,171,cs),
(250,171,o),
(249,201,o),
(267,337,cs),
(288,500,o),
(309,519,o),
(380,519,cs),
(472,519,o),
(520,518,o),
(593,517,c),
(618,674,l),
(551,693,o),
(494,702,o),
(391,702,cs)
);
}
);
width = 603;
}
);
unicode = 67;
},
{
glyphname = D;
kernLeft = B;
kernRight = D;
lastChange = "2024-09-05 12:38:03 +0000";
layers = (
{
anchors = (
{
name = bottom;
pos = (282,-12);
},
{
name = center;
pos = (158,345);
},
{
name = top;
pos = (377,734);
}
);
layerId = "54A40BFF-1CE0-48F0-82EB-25AA62455493";
shapes = (
{
closed = 1;
nodes = (
(306,699,o),
(210,695,o),
(142,690,c),
(174,620,l),
(226,621,o),
(318,623,o),
(366,623,cs),
(514,623,o),
(549,574,o),
(517,348,cs),
(483,114,o),
(430,68,o),
(273,68,cs),
(224,68,o),
(146,70,o),
(91,72,c),
(45,0,l),
(118,-5,o),
(205,-9,o),
(274,-9,cs),
(480,-9,o),
(566,43,o),
(608,342,cs),
(646,610,o),
(579,699,o),
(368,699,cs)
);
},
{
closed = 1;
nodes = (
(142,690,l),
(45,0,l),
(133,0,l),
(230,690,l)
);
}
);
width = 662.37647;
},
{
anchors = (
{
name = bottom;
pos = (275,-12);
},
{
name = center;
pos = (129,345);
},
{
name = top;
pos = (378,740);
}
);
background = {
shapes = (
{
closed = 1;
nodes = (
(483,-10,o),
(561,83,o),
(598,341,cs),
(635,605,o),
(581,700,o),
(391,700,cs),
(308,700,o),
(257,694,o),
(202,682,c),
(207,664,l),
(261,673,o),
(311,677,o),
(392,677,cs),
(563,677,o),
(607,592,o),
(573,345,cs),
(538,100,o),
(472,13,o),
(294,13,cs),
(220,13,o),
(184,16,o),
(129,25,c),
(122,7,l),
(173,-5,o),
(215,-10,o),
(295,-10,cs)
);
}
);
};
layerId = "E21536AE-9819-4FE7-8A20-8865FE3C0515";
shapes = (
{
closed = 1;
nodes = (
(302,699,o),
(226,695,o),
(159,690,c),
(168,672,l),
(233,674,o),
(301,676,o),
(388,676,cs),
(553,676,o),
(599,591,o),
(565,347,cs),
(530,95,o),
(458,14,o),
(291,14,cs),
(207,14,o),
(141,16,o),
(77,17,c),
(62,0,l),
(129,-5,o),
(203,-9,o),
(292,-9,cs),
(476,-9,o),
(554,80,o),
(590,343,cs),
(626,604,o),
(574,699,o),
(388,699,cs)
);
},
{
closed = 1;
nodes = (
(159,690,l),
(62,0,l),
(87,0,l),
(184,690,l)
);
}
);
width = 658;
},
{
anchors = (
{
name = bottom;
pos = (279,-24);
},
{
name = center;
pos = (221,345);
},
{
name = top;
pos = (398,735);
}
);
background = {
shapes = (
{
closed = 1;
nodes = (
(167,704,o),
(75,634,o),
(36,353,cs),
(-3,69,o),
(74,-14,o),
(308,-14,cs),
(518,-14,o),
(614,53,o),
(652,337,cs),
(690,624,o),
(597,704,o),
(375,704,cs)
);
},
{
closed = 1;
nodes = (
(436,543,o),
(448,510,o),
(424,353,cs),
(398,182,o),
(382,147,o),
(314,147,cs),
(250,147,o),
(238,179,o),
(263,337,cs),
(290,508,o),
(306,543,o),
(372,543,cs)
);
}
);
};
layerId = "924B7471-43FB-4CAD-AF7E-45215B64D997";
shapes = (
{
closed = 1;
nodes = (
(285,700,o),
(185,696,o),
(108,690,c),
(192,544,l),
(246,543,o),
(306,543,o),
(382,543,cs),
(459,543,o),
(466,508,o),
(446,353,cs),
(424,180,o),
(386,147,o),
(318,147,cs),
(241,147,o),
(159,149,o),
(114,154,c),
(11,0,l),
(103,-6,o),
(200,-10,o),
(321,-10,cs),
(555,-10,o),
(635,61,o),
(674,337,cs),
(714,621,o),
(613,700,o),
(389,700,cs)
);
},
{
closed = 1;
nodes = (
(108,690,l),
(11,0,l),
(228,0,l),
(325,690,l)
);
}
);
width = 700;
}
);
unicode = 68;
},
{
glyphname = Eth;
kernLeft = B;
kernRight = D;
lastChange = "2024-09-05 12:38:03 +0000";
layers = (
{
layerId = "54A40BFF-1CE0-48F0-82EB-25AA62455493";
shapes = (
{
closed = 1;
nodes = (
(34,391,l),
(27,342,l),
(336,342,l),
(342,391,l)
);
},
{
ref = D;
}
);
userData = {
com.schriftgestaltung.Glyphs.glyph.rightMetricsKey = D;
com.schriftgestaltung.componentsAlignment = (
-1
);
};
width = 662.37647;
},
{
layerId = "E21536AE-9819-4FE7-8A20-8865FE3C0515";
shapes = (
{
closed = 1;
nodes = (
(33,381,l),
(30,361,l),
(318,361,l),
(321,381,l)
);
},
{
ref = D;
}
);
userData = {
com.schriftgestaltung.Glyphs.glyph.rightMetricsKey = D;
};
width = 658;
},
{
layerId = "924B7471-43FB-4CAD-AF7E-45215B64D997";
shapes = (
{
closed = 1;
nodes = (
(22,413,l),
(8,313,l),
(359,313,l),
(373,413,l)
);
},
{
ref = D;
}
);
userData = {
com.schriftgestaltung.Glyphs.glyph.rightMetricsKey = D;
};
width = 700;
}
);
unicode = 208;
},
{
glyphname = E;
kernLeft = E;
kernRight = AE;
lastChange = "2024-09-05 12:38:03 +0000";
layers = (
{
anchors = (
{
name = bottom;
pos = (261,0);
},
{
name = ogonek;
pos = (471,5);
},
{
name = top;
pos = (372,755);
}
);
layerId = "54A40BFF-1CE0-48F0-82EB-25AA62455493";
shapes = (
{
closed = 1;
nodes = (
(179,691,o),
(129,647,o),
(119,573,cs),
(58,137,ls),
(46,52,o),
(91,-1,o),
(192,-1,cs),
(283,-1,o),
(383,-1,o),
(471,5,c),
(473,74,l),
(203,74,ls),
(158,74,o),
(141,93,o),
(148,139,cs),
(204,548,ls),
(210,596,o),
(230,616,o),
(275,616,cs),
(550,616,l),
(562,685,l),
(470,691,o),
(366,691,o),
(264,691,cs)
);
},
{
closed = 1;
nodes = (
(103,330,l),
(471,330,l),
(480,398,l),
(113,398,l)
);
}
);
width = 558.21176;
},
{
anchors = (
{
name = bottom;
pos = (265,0);
},
{
name = ogonek;
pos = (453,4);
},
{
name = top;
pos = (367,765);
}
);
guides = (
{
pos = (162,586);
}
);
layerId = "E21536AE-9819-4FE7-8A20-8865FE3C0515";
shapes = (
{
closed = 1;
nodes = (
(187,690,o),
(146,648,o),
(138,589,cs),
(70,103,ls),
(61,44,o),
(99,0,o),
(159,0,cs),
(256,0,o),
(354,0,o),
(453,4,c),
(452,22,l),
(164,22,ls),
(116,22,o),
(88,55,o),
(95,103,cs),
(162,585,ls),
(169,635,o),
(202,668,o),
(257,668,cs),
(543,668,l),
(547,686,l),
(449,690,o),
(351,690,o),
(252,690,cs)
);
},
{
closed = 1;
nodes = (
(123,359,l),
(459,360,l),
(462,380,l),
(126,381,l)
);
}
);
width = 548;
},
{
anchors = (
{
name = bottom;
pos = (271,0);
},
{
name = ogonek;
pos = (525,8);
},
{
name = top;
pos = (380,735);
}
);
guides = (
{
pos = (138,538);
}
);
layerId = "924B7471-43FB-4CAD-AF7E-45215B64D997";
shapes = (
{
closed = 1;
nodes = (
(157,694,o),
(95,634,o),
(82,541,cs),
(32,184,ls),
(18,75,o),
(73,-4,o),
(187,-4,cs),
(295,-4,o),
(429,-5,o),
(525,8,c),
(529,162,l),
(289,162,ls),
(260,162,o),
(248,175,o),
(252,201,cs),
(292,488,ls),
(296,518,o),
(309,528,o),
(343,528,cs),
(583,528,l),
(607,680,l),
(514,693,o),
(380,694,o),
(259,694,cs)
);
},
{
closed = 1;
nodes = (
(62,281,l),
(514,281,l),
(532,425,l),
(85,425,l)
);
}
);
width = 587;
}
);
unicode = 69;
},
{
glyphname = Schwa;
kernLeft = Schwa;
kernRight = Schwa;
lastChange = "2024-09-05 12:38:03 +0000";
layers = (
{
layerId = "54A40BFF-1CE0-48F0-82EB-25AA62455493";
shapes = (
{
closed = 1;
nodes = (
(468,-13,o),
(550,74,o),
(587,340,cs),
(624,608,o),
(552,703,o),
(362,703,cs),
(289,703,o),
(203,692,o),
(131,665,c),
(140,607,l),
(215,617,o),
(280,624,o),
(357,624,cs),
(493,624,o),
(527,563,o),
(496,347,cs),
(465,134,o),
(411,66,o),
(274,66,cs),
(194,66,o),
(128,93,o),
(144,196,cs),
(156,277,o),
(198,308,o),
(289,319,cs),
(546,349,l),
(560,425,l),
(296,396,ls),
(151,381,o),
(77,339,o),
(55,210,cs),
(31,74,o),
(94,-13,o),
(272,-13,cs)
);
}
);
width = 640.31765;
},
{
layerId = "E21536AE-9819-4FE7-8A20-8865FE3C0515";
shapes = (
{
closed = 1;
nodes = (
(444,-12,o),
(521,81,o),
(557,339,cs),
(594,607,o),
(542,702,o),
(352,702,cs),
(276,702,o),
(180,691,o),
(128,677,c),
(132,659,l),
(192,668,o),
(270,679,o),
(352,679,cs),
(525,679,o),
(569,594,o),
(533,343,cs),
(498,98,o),
(429,11,o),
(255,11,cs),
(147,11,o),
(50,42,o),
(86,195,cs),
(108,287,o),
(161,318,o),
(284,335,cs),
(545,372,l),
(549,394,l),
(285,357,ls),
(155,339,o),
(89,307,o),
(62,197,cs),
(25,44,o),
(112,-12,o),
(256,-12,cs)
);
}
);
width = 625;
},
{
layerId = "924B7471-43FB-4CAD-AF7E-45215B64D997";
shapes = (
{
closed = 1;
nodes = (
(528,-14,o),
(626,53,o),
(664,337,cs),
(702,624,o),
(606,704,o),
(378,704,cs),
(281,704,o),
(188,689,o),
(93,644,c),
(112,528,l),
(192,537,o),
(288,543,o),
(342,543,cs),
(452,543,o),
(462,510,o),
(437,353,cs),
(410,182,o),
(391,147,o),
(304,147,cs),
(249,147,o),
(225,169,o),
(229,212,cs),
(234,263,o),
(255,283,o),
(306,288,cs),
(576,315,l),
(594,439,l),
(243,411,ls),
(129,402,o),
(50,364,o),
(31,242,cs),
(7,90,o),
(72,-14,o),
(305,-14,cs)
);
}
);
width = 689;
}
);
unicode = 399;
},
{
glyphname = F;
kernLeft = F;
kernRight = F;
lastChange = "2024-09-05 12:38:03 +0000";
layers = (
{
layerId = "54A40BFF-1CE0-48F0-82EB-25AA62455493";
shapes = (
{
closed = 1;
nodes = (
(186,691,o),
(134,648,o),
(122,569,cs),
(43,0,l),
(131,0,l),
(208,548,ls),
(215,600,o),
(236,616,o),
(287,616,cs),
(544,616,l),
(556,684,l),
(468,691,o),
(367,691,o),
(268,691,cs)
);
},
{
closed = 1;
nodes = (
(104,319,l),
(464,320,l),
(474,387,l),
(114,387,l)
);
}
);
width = 537.29412;
},
{
background = {
shapes = (
{
closed = 1;
nodes = (
(200,690,o),
(159,648,o),
(151,589,cs),
(83,103,ls),
(74,44,o),
(112,0,o),
(172,0,cs),
(269,0,o),
(367,0,o),
(466,4,c),
(465,22,l),
(177,22,ls),
(129,22,o),
(101,55,o),
(108,103,cs),
(175,585,ls),
(182,635,o),
(215,668,o),
(270,668,cs),
(556,668,l),
(560,686,l),
(462,690,o),
(364,690,o),
(265,690,cs)
);
},
{
closed = 1;
nodes = (
(136,359,l),
(472,360,l),
(475,380,l),
(139,381,l)
);
}
);
};
layerId = "E21536AE-9819-4FE7-8A20-8865FE3C0515";
shapes = (
{
closed = 1;
nodes = (
(195,690,o),
(151,651,o),
(142,589,cs),
(59,0,l),
(84,0,l),
(166,585,ls),
(174,639,o),
(211,668,o),
(261,668,cs),
(540,668,l),
(544,686,l),
(448,690,o),
(353,690,o),
(256,690,cs)
);
},
{
closed = 1;
nodes = (
(126,355,l),
(455,356,l),
(458,376,l),
(129,377,l)
);
}
);
width = 530;
},
{
background = {
shapes = (
{
closed = 1;
nodes = (
(161,694,o),
(101,634,o),
(88,541,cs),
(38,184,ls),
(24,75,o),
(77,-4,o),
(186,-4,cs),
(291,-4,o),
(422,-5,o),
(515,8,c),
(520,162,l),
(293,162,ls),
(266,162,o),
(255,175,o),
(259,201,cs),
(298,488,ls),
(302,518,o),
(314,528,o),
(346,528,cs),
(572,528,l),
(597,680,l),
(508,693,o),
(377,694,o),
(260,694,cs)
);
},
{
closed = 1;
nodes = (
(68,280,l),
(506,290,l),
(523,416,l),
(89,426,l)
);
}
);
};
layerId = "924B7471-43FB-4CAD-AF7E-45215B64D997";
shapes = (
{
closed = 1;
nodes = (
(167,694,o),
(98,636,o),
(85,541,cs),
(9,0,l),
(227,0,l),
(295,488,ls),
(299,518,o),
(313,528,o),
(349,528,cs),
(579,528,l),
(603,679,l),
(511,693,o),
(380,694,o),
(261,694,cs)
);
},
{
closed = 1;
nodes = (
(64,267,l),
(507,267,l),
(525,411,l),
(85,411,l)
);
}
);
width = 567;
}
);
unicode = 70;
},
{
glyphname = G;
kernLeft = C;
kernRight = G;
lastChange = "2024-09-05 12:38:03 +0000";
layers = (
{
anchors = (
{
name = bottom;
pos = (270,-12);
},
{
name = top;
pos = (390,734);
}
);
layerId = "54A40BFF-1CE0-48F0-82EB-25AA62455493";
shapes = (
{
closed = 1;
nodes = (
(209,703,o),
(105,636,o),
(68,348,cs),
(40,96,o),
(94,-13,o),
(238,-13,cs),
(337,-13,o),
(408,35,o),
(471,115,c),
(462,174,l),
(393,106,o),
(342,65,o),
(267,65,cs),
(163,65,o),
(137,137,o),
(160,342,cs),
(190,574,o),
(246,624,o),
(406,624,cs),
(454,624,o),
(517,622,o),
(580,616,c),
(593,681,l),
(532,697,o),
(464,703,o),
(395,703,cs)
);
},
{
closed = 1;
nodes = (
(488,400,l),
(450,128,l),
(455,108,l),
(453,0,l),
(516,0,l),
(573,400,l)
);
}
);
width = 623.64706;
},
{
anchors = (
{
name = bottom;
pos = (275,-12);
},
{
name = top;
pos = (397,740);
}
);
background = {
shapes = (
{
closed = 1;
nodes = (
(196,702,o),
(118,609,o),
(81,347,cs),
(44,83,o),
(98,-12,o),
(288,-12,cs),
(371,-12,o),
(422,-6,o),
(477,6,c),
(472,24,l),
(418,15,o),
(368,11,o),
(287,11,cs),
(116,11,o),
(72,96,o),
(106,343,cs),
(141,592,o),
(207,679,o),
(385,679,cs),
(459,679,o),
(495,676,o),
(550,667,c),
(557,685,l),
(506,697,o),
(464,702,o),
(384,702,cs)
);
},
{
closed = 1;
nodes = (
(191,480,l),
(140,120,ls),
(127,34,o),
(167,-12,o),
(253,-12,cs),
(324,-12,o),
(405,32,o),
(497,116,c),
(496,140,l),
(398,55,o),
(329,11,o),
(257,11,cs),
(184,11,o),
(153,45,o),
(164,121,cs),
(215,480,l)
);
},
{
closed = 1;
nodes = (
(541,480,l),
(493,133,l),
(494,117,l),
(479,0,l),
(497,0,l),
(565,480,l)
);
}
);
};
layerId = "E21536AE-9819-4FE7-8A20-8865FE3C0515";
shapes = (
{
closed = 1;
nodes = (
(198,702,o),
(118,609,o),
(82,347,cs),
(49,93,o),
(98,-12,o),
(262,-12,cs),
(343,-12,o),
(428,37,o),
(500,116,c),
(496,135,l),
(428,73,o),
(354,11,o),
(263,11,cs),
(117,11,o),
(77,103,o),
(107,343,cs),
(141,594,o),
(210,679,o),
(389,679,cs),
(472,679,o),
(514,676,o),
(576,667,c),
(583,685,l),
(525,697,o),
(479,702,o),
(388,702,cs)
);
},
{
closed = 1;
nodes = (
(531,400,l),
(494,132,l),
(493,120,l),
(481,0,l),
(498,0,l),
(556,400,l)
);
}
);
width = 620;
},
{
associatedMasterId = "E21536AE-9819-4FE7-8A20-8865FE3C0515";
layerId = "1215C171-9D26-4D4F-A22D-89F50CC64C4E";
name = "Light May 2 13, 12:48";
shapes = (
{
closed = 1;
nodes = (
(503,24,l),
(451,15,o),
(401,11,o),
(321,11,cs),
(151,11,o),
(92,99,o),
(92,345,cs),
(92,591,o),
(151,679,o),
(321,679,cs),
(396,679,o),
(433,676,o),
(489,667,c),
(495,685,l),
(443,697,o),
(400,702,o),
(321,702,cs),
(132,702,o),
(66,608,o),
(66,345,cs),
(66,82,o),
(132,-12,o),
(321,-12,cs),
(405,-12,o),
(456,-6,o),
(509,6,c)
);
},
{
closed = 1;
nodes = (
(502,0,l),
(527,0,l),
(527,300,l),
(502,300,l)
);
}
);
width = 600;
},
{
anchors = (
{
name = bottom;
pos = (272,-12);
},
{
name = top;
pos = (413,735);
}
);
background = {
shapes = (
{
closed = 1;
nodes = (
(164,702,o),
(85,631,o),
(46,353,cs),
(8,81,o),
(87,-12,o),
(309,-12,cs),
(407,-12,o),
(469,-3,o),
(541,20,c),
(534,179,l),
(472,173,o),
(418,171,o),
(321,171,cs),
(254,171,o),
(255,201,o),
(273,337,cs),
(292,500,o),
(311,519,o),
(374,519,cs),
(463,519,o),
(510,518,o),
(581,517,c),
(607,674,l),
(542,693,o),
(486,702,o),
(386,702,cs)
);
},
{
closed = 1;
nodes = (
(121,500,l),
(69,130,ls),
(56,38,o),
(103,-14,o),
(202,-14,cs),
(278,-14,o),
(351,28,o),
(436,126,c),
(399,212,l),
(357,174,o),
(334,162,o),
(307,162,cs),
(295,162,o),
(285,167,o),
(288,189,cs),
(332,500,l)
);
},
{
closed = 1;
nodes = (
(424,500,l),
(374,146,l),
(393,134,l),
(399,0,l),
(563,0,l),
(633,500,l)
);
}
);
};
layerId = "924B7471-43FB-4CAD-AF7E-45215B64D997";
shapes = (
{
closed = 1;
nodes = (
(185,704,o),
(82,638,o),
(42,353,cs),
(3,76,o),
(87,-14,o),
(223,-14,cs),
(355,-14,o),
(434,89,o),
(465,126,c),
(429,212,l),
(408,201,o),
(385,171,o),
(324,171,cs),
(258,171,o),
(247,201,o),
(268,337,cs),
(290,478,o),
(317,521,o),
(405,521,cs),
(492,521,o),
(552,520,o),
(627,519,c),
(651,674,l),
(580,696,o),
(502,704,o),
(420,704,cs)
);
},
{
closed = 1;
nodes = (
(441,397,l),
(406,144,l),
(422,107,l),
(433,0,l),
(592,0,l),
(648,397,l)
);
}
);
width = 670;
}
);
unicode = 71;
},
{
glyphname = H;
kernLeft = B;
kernRight = H;
lastChange = "2024-09-05 12:38:03 +0000";
layers = (
{
anchors = (
{
name = bottom;
pos = (294,0);
},
{
name = center;
pos = (338,345);
},
{
name = top;
pos = (383,734);
}
);
layerId = "54A40BFF-1CE0-48F0-82EB-25AA62455493";
shapes = (
{
closed = 1;
nodes = (
(142,690,l),
(45,0,l),
(134,0,l),
(231,690,l)
);
},
{
closed = 1;
nodes = (
(183,406,l),
(172,330,l),
(509,330,l),
(519,406,l)
);
},
{
closed = 1;
nodes = (
(549,690,l),
(452,0,l),
(539,0,l),
(636,690,l)
);
}
);
width = 666.48235;
},
{
anchors = (
{
name = bottom;
pos = (295,0);
},
{
name = center;
pos = (337,345);
},
{
name = top;
pos = (394,740);
}
);
layerId = "E21536AE-9819-4FE7-8A20-8865FE3C0515";
shapes = (
{
closed = 1;
nodes = (
(159,690,l),
(62,0,l),
(87,0,l),
(184,690,l)
);
},
{
closed = 1;
nodes = (
(133,381,l),
(130,359,l),
(550,359,l),
(553,381,l)
);
},
{
closed = 1;
nodes = (
(585,690,l),
(488,0,l),
(513,0,l),
(610,690,l)
);
}
);
width = 657;
},
{
anchors = (
{
name = bottom;
pos = (311,0);
},
{
name = center;
pos = (359,345);
},
{
name = top;
pos = (409,735);
}
);
layerId = "924B7471-43FB-4CAD-AF7E-45215B64D997";
shapes = (
{
closed = 1;
nodes = (
(109,690,l),
(12,0,l),
(229,0,l),
(326,690,l)
);
},
{
closed = 1;
nodes = (
(283,443,l),
(262,289,l),
(445,289,l),
(467,443,l)
);
},
{
closed = 1;
nodes = (
(491,690,l),
(394,0,l),
(611,0,l),
(708,690,l)
);
}
);
width = 705;
}
);
unicode = 72;
},
{
glyphname = Hbar;
kernLeft = B;
kernRight = H;
lastChange = "2024-09-05 12:38:03 +0000";
layers = (
{
layerId = "54A40BFF-1CE0-48F0-82EB-25AA62455493";
shapes = (
{
closed = 1;
nodes = (
(58,566,l),
(51,519,l),
(686,519,l),
(692,566,l)
);
},
{
ref = H;
}
);
userData = {
com.schriftgestaltung.componentsAlignment = (
-1
);
};
width = 666.48235;
},
{
layerId = "E21536AE-9819-4FE7-8A20-8865FE3C0515";
shapes = (
{
closed = 1;
nodes = (
(59,545,l),
(56,525,l),
(667,525,l),
(670,545,l)
);
},
{
ref = H;
}
);
width = 657;
},
{
layerId = "924B7471-43FB-4CAD-AF7E-45215B64D997";
shapes = (
{
closed = 1;
nodes = (
(45,601,l),
(31,509,l),
(734,509,l),
(748,601,l)
);
},
{
ref = H;
}
);
width = 705;
}
);
unicode = 294;
},
{
glyphname = I;
kernLeft = B;
kernRight = H;
lastChange = "2024-09-05 12:38:03 +0000";
layers = (
{
anchors = (
{
name = bottom;
pos = (87,0);
},
{
name = ogonek;
pos = (123,0);
},
{
name = top;
pos = (193,734);
}
);
layerId = "54A40BFF-1CE0-48F0-82EB-25AA62455493";
shapes = (
{
closed = 1;
nodes = (
(142,690,l),
(45,0,l),
(134,0,l),
(231,690,l)
);
}
);
width = 260.90588;
},
{
anchors = (
{
name = bottom;
pos = (73,0);
},
{
name = ogonek;
pos = (87,0);
},
{
name = top;
pos = (178,740);
}
);
layerId = "E21536AE-9819-4FE7-8A20-8865FE3C0515";
shapes = (
{
closed = 1;
nodes = (
(159,690,l),
(62,0,l),
(87,0,l),
(184,690,l)
);
}
);
width = 231;
},
{
anchors = (
{
name = bottom;
pos = (119,0);
},
{
name = ogonek;
pos = (199,0);
},
{
name = top;
pos = (225,735);
}
);
layerId = "924B7471-43FB-4CAD-AF7E-45215B64D997";
shapes = (
{
closed = 1;
nodes = (
(109,690,l),
(12,0,l),
(228,0,l),
(325,690,l)
);
}
);
width = 322;
}
);
unicode = 73;
},
{
glyphname = J;
kernLeft = J;
kernRight = IJ;
lastChange = "2024-09-05 12:38:03 +0000";
layers = (
{
anchors = (
{
name = top;
pos = (268,734);
}
);
layerId = "54A40BFF-1CE0-48F0-82EB-25AA62455493";
shapes = (
{
closed = 1;
nodes = (
(223,690,l),
(147,143,ls),
(140,94,o),
(108,66,o),
(55,66,cs),
(8,66,l),
(-9,4,l),
(13,-3,o),
(56,-9,o),
(84,-9,cs),
(168,-9,o),
(221,43,o),
(234,143,cs),
(312,690,l)
);
}
);
width = 338.77647;
},
{
anchors = (
{
name = top;
pos = (267,740);
}
);
guides = (
{
angle = 82;
pos = (235,377);
}
);
layerId = "E21536AE-9819-4FE7-8A20-8865FE3C0515";
shapes = (
{
closed = 1;
nodes = (
(254,690,l),
(174,117,ls),
(164,50,o),
(126,16,o),
(59,16,cs),
(2,16,l),
(-3,0,l),
(15,-3,o),
(42,-6,o),
(61,-6,cs),
(142,-7,o),
(187,34,o),
(198,114,cs),
(279,690,l)
);
}
);
width = 322;
},
{
anchors = (
{
name = top;
pos = (294,735);
}
);
layerId = "924B7471-43FB-4CAD-AF7E-45215B64D997";
shapes = (
{
closed = 1;
nodes = (
(184,690,l),
(111,187,ls),
(108,162,o),
(90,148,o),
(47,148,cs),
(10,148,l),
(-24,14,l),
(7,-4,o),
(88,-14,o),
(138,-14,cs),
(239,-14,o),
(309,33,o),
(322,123,cs),
(400,690,l)
);
}
);
width = 395;
}
);
unicode = 74;
},
{
glyphname = K;
kernLeft = B;
kernRight = K;
lastChange = "2024-09-05 12:38:03 +0000";
layers = (
{
anchors = (
{
name = bottom;
pos = (266,0);
},
{
name = top;
pos = (366,734);
}
);
layerId = "54A40BFF-1CE0-48F0-82EB-25AA62455493";
shapes = (
{
closed = 1;
nodes = (
(511,690,l),
(236,362,l),
(434,0,l),
(534,0,l),
(364,306,ls),
(355,323,o),
(343,342,o),
(331,356,c),
(331,360,l),
(351,373,o),
(364,388,o),
(378,404,cs),
(618,690,l)
);
},
{
closed = 1;
nodes = (
(142,690,l),
(45,0,l),
(133,0,l),
(167,249,ls),
(172,284,o),
(173,321,o),
(171,358,c),
(185,398,o),
(193,432,o),
(199,473,cs),
(230,690,l)
);
},
{
closed = 1;
nodes = (
(157,395,l),
(148,324,l),
(280,324,l),
(290,395,l)
);
}
);
width = 592.55294;
},
{
anchors = (
{
name = bottom;
pos = (244,0);
},
{
name = top;
pos = (354,740);
}
);
guides = (
{
angle = 270;
pos = (521,359);
}
);
layerId = "E21536AE-9819-4FE7-8A20-8865FE3C0515";
shapes = (
{
closed = 1;
nodes = (
(537,690,l),
(239,361,l),
(460,0,l),
(488,0,l),
(287,331,ls),
(281,341,o),
(275,350,o),
(268,359,c),
(268,361,l),
(280,372,o),
(293,384,o),
(301,393,cs),
(568,690,l)
);
},
{
closed = 1;
nodes = (
(159,690,l),
(62,0,l),
(86,0,l),
(123,262,l),
(128,295,o),
(132,324,o),
(134,359,c),
(141,395,o),
(145,418,o),
(150,453,cs),
(183,690,l)
);
},
{
closed = 1;
nodes = (
(123,371,l),
(120,349,l),
(265,349,l),
(268,371,l)
);
}
);
width = 559;
},
{
anchors = (
{
name = bottom;
pos = (312,0);
},
{
name = top;
pos = (398,735);
}
);
layerId = "924B7471-43FB-4CAD-AF7E-45215B64D997";
shapes = (
{
closed = 1;
nodes = (
(485,690,l),
(269,353,l),
(400,0,l),
(634,0,l),
(514,269,ls),
(502,298,o),
(478,331,o),
(459,339,c),
(460,343,l),
(481,351,o),
(511,369,o),
(532,402,cs),
(725,690,l)
);
},
{
closed = 1;
nodes = (
(109,690,l),
(12,0,l),
(230,0,l),
(261,221,ls),
(267,261,o),
(263,313,o),
(249,354,c),
(278,400,o),
(294,452,o),
(300,499,cs),
(327,690,l)
);
},
{
closed = 1;
nodes = (
(227,428,l),
(208,288,l),
(321,288,l),
(340,428,l)
);
}
);
width = 668;
}
);
unicode = 75;
},
{
glyphname = L;
kernLeft = L;
kernRight = L;
lastChange = "2024-09-05 13:40:05 +0000";
layers = (
{
anchors = (
{
name = bottom;
pos = (267,0);
},
{
name = top;
pos = (191,734);
},
{
name = topright;
pos = (361,614);
}
);
layerId = "54A40BFF-1CE0-48F0-82EB-25AA62455493";
shapes = (
{
closed = 1;
nodes = (
(139,690,l),
(64,142,ls),
(50,48,o),
(102,-1,o),
(187,-1,cs),
(274,-1,o),
(367,-1,o),
(454,5,c),
(456,74,l),
(206,74,ls),
(159,74,o),
(145,99,o),
(151,139,cs),
(228,690,l)
);
}
);
width = 509.02353;
},
{
anchors = (
{
name = bottom;
pos = (263,0);
},
{
name = top;
pos = (173,740);
},
{
name = topright;
pos = (361,614);
}
);
layerId = "E21536AE-9819-4FE7-8A20-8865FE3C0515";
shapes = (
{
closed = 1;
nodes = (
(156,690,l),
(74,103,ls),
(65,44,o),
(103,0,o),
(163,0,cs),
(254,0,o),
(347,0,o),
(440,4,c),
(441,22,l),
(168,22,ls),
(120,22,o),
(92,55,o),
(99,103,cs),
(181,690,l)
);
}
);
width = 501;
},
{
anchors = (
{
name = bottom;
pos = (279,0);
},
{
name = top;
pos = (225,735);
},
{
name = topright;
pos = (461,614);
}
);
layerId = "924B7471-43FB-4CAD-AF7E-45215B64D997";
shapes = (
{
closed = 1;
nodes = (
(105,690,l),
(31,157,ls),
(17,64,o),
(81,-4,o),
(181,-4,cs),
(295,-4,o),
(420,-3,o),
(512,9,c),
(516,172,l),
(288,172,ls),
(257,172,o),
(249,182,o),
(252,212,cs),
(323,690,l)
);
}
);
width = 552;
}
);
unicode = 76;
},
{
glyphname = Lcaron;
kernLeft = L;
kernRight = L;
lastChange = "2024-09-05 13:40:05 +0000";
layers = (
{
layerId = "54A40BFF-1CE0-48F0-82EB-25AA62455493";
shapes = (
{
ref = L;
},
{
pos = (307,-41);
ref = caroncomb.alt;
}
);
userData = {
com.schriftgestaltung.componentsAlignment = (
-1,
-1
);
};
width = 509;
},
{
layerId = "E21536AE-9819-4FE7-8A20-8865FE3C0515";
shapes = (
{
ref = L;
},
{
pos = (307,-41);
ref = caroncomb.alt;
}
);
userData = {
com.schriftgestaltung.componentsAlignment = (
0,
-1
);
};
width = 501;
},
{
background = {
anchors = (
{
name = bottom;
pos = (279,0);
},
{
name = top;
pos = (225,735);
},
{
name = topright;
pos = (461,614);
}
);
shapes = (
{
closed = 1;
nodes = (
(105,690,l),
(31,157,ls),
(17,64,o),
(81,-4,o),
(181,-4,cs),
(295,-4,o),
(420,-3,o),
(512,9,c),
(516,172,l),
(288,172,ls),
(257,172,o),
(249,182,o),
(252,212,cs),
(323,690,l)
);
},
{
closed = 1;
nodes = (
(445,676,ls),
(403,676,o),
(384,662,o),
(376,617,cs),
(370,583,ls),
(364,547,o),
(377,529,o),
(414,530,c),
(407,492,o),
(397,458,o),
(381,421,c),
(452,394,l),
(485,437,o),
(516,506,o),
(524,564,cs),
(531,612,ls),
(538,658,o),
(519,676,o),
(475,676,cs)
);
}
);
};
layerId = "924B7471-43FB-4CAD-AF7E-45215B64D997";
shapes = (
{
ref = L;
},
{
pos = (407,-41);
ref = caroncomb.alt;
}
);
userData = {
com.schriftgestaltung.componentsAlignment = (
0,
-1
);
};
width = 552;
}
);
unicode = 317;
},
{
glyphname = Lslash;
kernLeft = L;
kernRight = L;
lastChange = "2024-09-05 12:38:03 +0000";
layers = (
{
layerId = "54A40BFF-1CE0-48F0-82EB-25AA62455493";
shapes = (
{
closed = 1;
nodes = (
(27,359,l),
(22,305,l),
(311,420,l),
(317,473,l)
);
},
{
pos = (-1,0);
ref = L;
}
);
userData = {
com.schriftgestaltung.componentsAlignment = (
-1
);
};
width = 508.29412;
},
{
layerId = "E21536AE-9819-4FE7-8A20-8865FE3C0515";
shapes = (
{
closed = 1;
nodes = (
(33,343,l),
(31,323,l),
(276,425,l),
(279,445,l)
);
},
{
ref = L;
}
);
width = 501;
},
{
layerId = "924B7471-43FB-4CAD-AF7E-45215B64D997";
shapes = (
{
closed = 1;
nodes = (
(18,373,l),
(4,269,l),
(384,409,l),
(399,513,l)
);
},
{
pos = (4,0);
ref = L;
}
);
width = 556;
}
);
unicode = 321;
},
{
glyphname = M;
kernLeft = M;
kernRight = M;
lastChange = "2024-09-05 12:38:03 +0000";
layers = (
{
anchors = (
{
name = bottom;
pos = (403,0);
}
);
layerId = "54A40BFF-1CE0-48F0-82EB-25AA62455493";
shapes = (
{
closed = 1;
nodes = (
(693,689,ls),
(673,689,o),
(661,681,o),
(652,661,cs),
(465,237,ls),
(452,207,o),
(439,177,o),
(426,144,c),
(407,144,l),
(403,175,o),
(400,206,o),
(394,238,cs),
(320,658,ls),
(317,678,o),
(306,690,o),
(287,690,cs),
(190,690,ls),
(167,690,o),
(155,678,o),
(151,655,cs),
(32,0,l),
(119,0,l),
(229,617,l),
(249,617,l),
(336,110,ls),
(340,90,o),
(352,78,o),
(373,78,cs),
(452,78,ls),
(473,78,o),
(485,87,o),
(493,107,cs),
(718,617,l),
(738,617,l),
(674,0,l),
(762,0,l),
(825,651,ls),
(827,675,o),
(815,690,o),
(791,690,cs)
);
}
);
width = 876.15294;
},
{
anchors = (
{
name = bottom;
pos = (393,0);
}
);
layerId = "E21536AE-9819-4FE7-8A20-8865FE3C0515";
shapes = (
{
closed = 1;
nodes = (
(734,690,ls),
(728,690,o),
(724,688,o),
(721,682,c),
(460,179,ls),
(444,147,o),
(427,113,o),
(411,81,c),
(384,81,l),
(376,112,o),
(370,144,o),
(362,175,cs),
(242,680,l),
(241,686,o),
(235,690,o),
(229,690,cs),
(188,690,ls),
(179,690,o),
(174,685,o),
(172,676,cs),
(47,0,l),
(72,0,l),
(196,668,l),
(220,668,l),
(362,70,ls),
(363,64,o),
(369,60,o),
(375,60,cs),
(417,60,ls),
(423,60,o),
(427,62,o),
(430,68,cs),
(740,668,l),
(764,668,l),
(700,0,l),
(725,0,l),
(790,674,ls),
(791,683,o),
(785,690,o),
(776,690,cs)
);
}
);
width = 855;
},
{
associatedMasterId = "E21536AE-9819-4FE7-8A20-8865FE3C0515";
layerId = "F994A714-7106-44C5-8F99-35DB345702C1";
name = "Light May 2 13, 21:35";
shapes = (
{
closed = 1;
nodes = (
(658,690,l),
(429,82,l),
(403,82,l),
(174,690,l),
(107,690,l),
(107,0,l),
(132,0,l),
(132,668,l),
(156,668,l),
(385,60,l),
(447,60,l),
(676,668,l),
(700,668,l),
(700,0,l),
(725,0,l),
(725,690,l)
);
}
);
width = 832;
},
{
anchors = (
{
name = bottom;
pos = (435,0);
}
);
guides = (
{
pos = (342,437);
}
);
layerId = "924B7471-43FB-4CAD-AF7E-45215B64D997";
shapes = (
{
closed = 1;
nodes = (
(664,690,ls),
(618,690,o),
(590,672,o),
(578,627,cs),
(494,343,ls),
(485,310,o),
(477,281,o),
(469,242,c),
(459,242,l),
(462,278,o),
(463,311,o),
(461,345,cs),
(449,619,ls),
(448,664,o),
(419,690,o),
(374,690,cs),
(190,690,ls),
(141,690,o),
(120,668,o),
(111,619,cs),
(0,0,l),
(195,0,l),
(286,528,l),
(302,528,l),
(321,180,ls),
(323,136,o),
(352,110,o),
(398,110,cs),
(508,110,ls),
(555,110,o),
(582,128,o),
(595,172,cs),
(711,528,l),
(725,528,l),
(671,0,l),
(866,0,l),
(928,611,ls),
(933,660,o),
(906,690,o),
(857,690,cs)
);
}
);
width = 947;
},
{
associatedMasterId = "924B7471-43FB-4CAD-AF7E-45215B64D997";
guides = (
{
pos = (325,393);
}
);
layerId = "3D888476-59A6-4279-AC0C-796F102B974C";
name = "Bold May 2 13, 22:06";
shapes = (
{
closed = 1;
nodes = (
(580,690,ls),
(541,690,o),
(510,664,o),
(504,624,cs),
(468,395,ls),
(464,369,o),
(457,308,o),
(453,259,c),
(439,259,l),
(433,307,o),
(428,370,o),
(424,395,cs),
(388,624,ls),
(382,664,o),
(351,690,o),
(312,690,cs),
(130,690,ls),
(82,690,o),
(48,656,o),
(48,608,cs),
(48,0,l),
(246,0,l),
(246,395,ls),
(246,432,o),
(240,474,o),
(236,508,c),
(254,508,l),
(313,164,ls),
(320,125,o),
(350,100,o),
(389,100,cs),
(503,100,ls),
(542,100,o),
(573,125,o),
(580,164,cs),
(639,508,l),
(657,508,l),
(653,474,o),
(647,432,o),
(647,393,cs),
(647,0,l),
(844,0,l),
(844,608,ls),
(844,656,o),
(810,690,o),
(762,690,cs)
);
}
);
width = 892;
},
{
associatedMasterId = "924B7471-43FB-4CAD-AF7E-45215B64D997";
guides = (
{
pos = (336,437);
}
);
layerId = "00AE0267-335A-4DE3-AC4B-088BD35A7D67";
name = "Bold May 2 13, 22:40";
shapes = (
{
closed = 1;
nodes = (
(590,690,ls),
(544,690,o),
(517,668,o),
(508,623,cs),
(455,336,l),
(447,336,l),
(392,623,ls),
(383,668,o),
(356,690,o),
(311,690,cs),
(128,690,ls),
(79,690,o),
(53,664,o),
(53,615,cs),
(53,0,l),
(251,0,l),
(251,528,l),
(257,528,l),
(323,226,ls),
(333,182,o),
(360,160,o),
(406,160,cs),
(495,160,ls),
(541,160,o),
(568,182,o),
(577,226,cs),
(642,528,l),
(648,528,l),
(652,0,l),
(850,0,l),
(850,615,ls),
(850,664,o),
(824,690,o),
(775,690,cs)
);
}
);
width = 902;
}
);
unicode = 77;
},
{
glyphname = N;
kernLeft = N;
kernRight = N;
lastChange = "2024-09-05 12:38:03 +0000";
layers = (
{
anchors = (
{
name = bottom;
pos = (310,0);
},
{
name = top;
pos = (421,734);
}
);
layerId = "54A40BFF-1CE0-48F0-82EB-25AA62455493";
shapes = (
{
closed = 1;
nodes = (
(586,690,l),
(517,185,ls),
(512,151,o),
(509,118,o),
(507,84,c),
(488,84,l),
(479,117,o),
(466,155,o),
(456,184,cs),
(288,660,ls),
(281,679,o),
(272,690,o),
(252,690,cs),
(174,690,ls),
(152,690,o),
(141,680,o),
(137,657,cs),
(45,0,l),
(133,0,l),
(204,517,ls),
(208,547,o),
(211,578,o),
(212,608,c),
(229,608,l),
(235,580,o),
(247,544,o),
(256,519,cs),
(429,30,ls),
(436,11,o),
(445,0,o),
(465,0,cs),
(545,0,ls),
(567,0,o),
(577,10,o),
(580,33,cs),
(673,690,l)
);
}
);
width = 703.31765;
},
{
anchors = (
{
name = bottom;
pos = (303,0);
},
{
name = top;
pos = (416,740);
}
);
layerId = "E21536AE-9819-4FE7-8A20-8865FE3C0515";
shapes = (
{
closed = 1;
nodes = (
(616,690,l),
(534,106,l),
(530,78,o),
(526,49,o),
(522,21,c),
(494,21,l),
(483,48,o),
(473,75,o),
(462,102,c),
(229,678,ls),
(226,686,o),
(219,690,o),
(211,690,cs),
(173,690,ls),
(163,690,o),
(159,686,o),
(157,676,cs),
(62,0,l),
(87,0,l),
(170,590,l),
(174,616,o),
(177,642,o),
(181,668,c),
(206,668,l),
(215,645,o),
(225,624,o),
(234,601,c),
(472,12,ls),
(475,4,o),
(481,0,o),
(489,0,cs),
(530,0,ls),
(540,0,o),
(545,4,o),
(546,14,cs),
(641,690,l)
);
}
);
width = 688;
},
{
anchors = (
{
name = bottom;
pos = (335,0);
},
{
name = top;
pos = (423,735);
}
);
layerId = "924B7471-43FB-4CAD-AF7E-45215B64D997";
shapes = (
{
closed = 1;
nodes = (
(535,690,l),
(493,396,ls),
(488,357,o),
(487,324,o),
(491,279,c),
(483,279,l),
(471,328,o),
(457,365,o),
(441,398,cs),
(325,623,ls),
(306,663,o),
(294,690,o),
(249,690,cs),
(177,690,ls),
(128,690,o),
(105,668,o),
(98,619,cs),
(11,0,l),
(210,0,l),
(253,290,ls),
(259,334,o),
(260,375,o),
(259,418,c),
(266,418,l),
(275,376,o),
(285,336,o),
(301,304,cs),
(419,67,ls),
(438,26,o),
(451,0,o),
(496,0,cs),
(568,0,ls),
(617,0,o),
(640,22,o),
(647,71,cs),
(734,690,l)
);
}
);
width = 730;
},
{
associatedMasterId = "924B7471-43FB-4CAD-AF7E-45215B64D997";
layerId = "C2BC136B-0A13-4817-9314-AB569EB8F046";
name = "Bold May 2 13, 22:48";
shapes = (
{
closed = 1;
nodes = (
(479,690,l),
(480,288,l),
(474,288,l),
(463,326,o),
(446,373,o),
(431,401,cs),
(311,627,ls),
(289,669,o),
(272,690,o),
(227,690,cs),
(128,690,ls),
(79,690,o),
(53,664,o),
(53,615,cs),
(53,0,l),
(257,0,l),
(257,402,l),
(263,402,l),
(274,361,o),
(287,324,o),
(299,300,cs),
(422,63,ls),
(444,21,o),
(461,0,o),
(506,0,cs),
(608,0,ls),
(657,0,o),
(683,26,o),
(683,75,cs),
(683,690,l)
);
}
);
width = 736;
}
);
unicode = 78;
},
{
glyphname = Eng;
kernLeft = N;
kernRight = N;
lastChange = "2024-09-05 12:38:03 +0000";
layers = (
{
layerId = "54A40BFF-1CE0-48F0-82EB-25AA62455493";
shapes = (
{
closed = 1;
nodes = (
(585,690,l),
(516,202,ls),
(512,168,o),
(508,133,o),
(506,98,c),
(490,98,l),
(479,132,o),
(466,171,o),
(455,198,cs),
(279,660,ls),
(271,679,o),
(262,690,o),
(242,690,cs),
(174,690,ls),
(152,690,o),
(141,680,o),
(137,657,cs),
(45,0,l),
(133,0,l),
(203,502,ls),
(208,533,o),
(212,564,o),
(213,595,c),
(229,595,l),
(235,563,o),
(245,528,o),
(255,504,cs),
(441,27,ls),
(447,13,o),
(453,-1,o),
(466,0,cs),
(493,1,l),
(483,-71,ls),
(476,-122,o),
(443,-148,o),
(389,-148,cs),
(341,-148,l),
(326,-203,l),
(350,-211,o),
(389,-216,o),
(416,-216,cs),
(496,-217,o),
(552,-170,o),
(564,-81,cs),
(673,690,l)
);
}
);
width = 703.31765;
},
{
layerId = "E21536AE-9819-4FE7-8A20-8865FE3C0515";
shapes = (
{
closed = 1;
nodes = (
(616,690,l),
(534,103,l),
(530,76,o),
(526,48,o),
(522,21,c),
(494,21,l),
(483,48,o),
(473,75,o),
(462,102,c),
(229,678,ls),
(226,686,o),
(219,690,o),
(211,690,cs),
(173,690,ls),
(163,690,o),
(159,686,o),
(157,676,cs),
(62,0,l),
(87,0,l),
(172,602,ls),
(175,624,o),
(178,646,o),
(181,668,c),
(206,668,l),
(215,645,o),
(225,624,o),
(234,601,cs),
(472,12,ls),
(475,4,o),
(481,0,o),
(489,0,cs),
(519,0,l),
(505,-99,ls),
(496,-166,o),
(457,-200,o),
(390,-200,cs),
(333,-200,l),
(329,-216,l),
(346,-219,o),
(374,-222,o),
(393,-222,cs),
(474,-223,o),
(519,-182,o),
(530,-102,cs),
(641,690,l)
);
}
);
width = 688;
},
{
background = {
shapes = (
{
closed = 1;
nodes = (
(544,690,l),
(502,396,ls),
(497,357,o),
(496,324,o),
(500,279,c),
(492,279,l),
(480,328,o),
(466,365,o),
(450,398,cs),
(334,623,ls),
(315,663,o),
(303,690,o),
(258,690,cs),
(186,690,ls),
(137,690,o),
(114,668,o),
(107,619,cs),
(20,0,l),
(219,0,l),
(262,290,ls),
(268,334,o),
(269,375,o),
(268,418,c),
(275,418,l),
(284,376,o),
(294,336,o),
(310,304,cs),
(428,67,ls),
(447,26,o),
(460,0,o),
(505,0,cs),
(577,0,ls),
(626,0,o),
(649,22,o),
(656,71,cs),
(743,690,l)
);
}
);
};
layerId = "924B7471-43FB-4CAD-AF7E-45215B64D997";
shapes = (
{
closed = 1;
nodes = (
(539,690,l),
(498,408,ls),
(492,365,o),
(488,332,o),
(490,279,c),
(484,279,l),
(472,337,o),
(456,370,o),
(444,397,cs),
(334,623,ls),
(319,664,o),
(304,690,o),
(259,690,cs),
(177,690,ls),
(128,690,o),
(105,668,o),
(98,619,cs),
(11,0,l),
(211,0,l),
(254,293,ls),
(260,335,o),
(262,373,o),
(262,418,c),
(268,418,l),
(277,375,o),
(284,341,o),
(301,303,cs),
(420,67,ls),
(429,48,o),
(440,13,o),
(453,13,cs),
(456,13,l),
(451,-11,ls),
(447,-30,o),
(426,-42,o),
(400,-42,cs),
(370,-42,l),
(333,-176,l),
(372,-194,o),
(436,-204,o),
(481,-204,cs),
(561,-204,o),
(621,-145,o),
(636,-37,cs),
(739,690,l)
);
}
);
width = 735;
}
);
unicode = 330;
},
{
glyphname = O;
kernLeft = C;
kernRight = O;
lastChange = "2024-09-05 12:38:03 +0000";
layers = (
{
anchors = (
{
name = bottom;
pos = (294,0);
},
{
name = ogonek;
pos = (325,4);
},
{
name = top;
pos = (390,734);
}
);
layerId = "54A40BFF-1CE0-48F0-82EB-25AA62455493";
shapes = (
{
closed = 1;
nodes = (
(184,703,o),
(104,608,o),
(68,348,cs),
(31,78,o),
(107,-13,o),
(297,-13,cs),
(493,-13,o),
(576,74,o),
(612,342,cs),
(650,608,o),
(577,703,o),
(387,703,cs)
);
},
{
closed = 1;
nodes = (
(518,624,o),
(552,563,o),
(521,348,cs),
(490,134,o),
(436,66,o),
(299,66,cs),
(163,66,o),
(131,133,o),
(160,342,cs),
(190,558,o),
(242,624,o),
(382,624,cs)
);
}
);
width = 665.83529;
},
{
anchors = (
{
name = bottom;
pos = (290,0);
},
{
name = ogonek;
pos = (321,4);
},
{
name = top;
pos = (389,740);
}
);
layerId = "E21536AE-9819-4FE7-8A20-8865FE3C0515";
shapes = (
{
closed = 1;
nodes = (
(198,702,o),
(120,609,o),
(83,347,cs),
(46,83,o),
(100,-12,o),
(290,-12,cs),
(478,-12,o),
(556,81,o),
(592,343,cs),
(630,607,o),
(576,702,o),
(386,702,cs)
);
},
{
closed = 1;
nodes = (
(559,679,o),
(602,594,o),
(567,347,cs),
(532,98,o),
(463,11,o),
(289,11,cs),
(121,11,o),
(74,96,o),
(108,343,cs),
(143,592,o),
(211,679,o),
(386,679,cs)
);
}
);
width = 660;
},
{
anchors = (
{
name = bottom;
pos = (303,-20);
},
{
name = ogonek;
pos = (338,-2);
},
{
name = top;
pos = (412,735);
}
);
layerId = "924B7471-43FB-4CAD-AF7E-45215B64D997";
shapes = (
{
closed = 1;
nodes = (
(174,704,o),
(80,634,o),
(41,353,cs),
(2,69,o),
(83,-14,o),
(322,-14,cs),
(539,-14,o),
(637,53,o),
(675,337,cs),
(713,624,o),
(617,704,o),
(389,704,cs)
);
},
{
closed = 1;
nodes = (
(458,543,o),
(471,510,o),
(447,353,cs),
(421,182,o),
(402,147,o),
(327,147,cs),
(256,147,o),
(243,179,o),
(268,337,cs),
(295,508,o),
(314,543,o),
(387,543,cs)
);
}
);
width = 700;
}
);
unicode = 79;
},
{
glyphname = Oslash;
kernLeft = C;
kernRight = O;
lastChange = "2024-09-05 12:38:03 +0000";
layers = (
{
anchors = (
{
name = top;
pos = (390,734);
}
);
layerId = "54A40BFF-1CE0-48F0-82EB-25AA62455493";
shapes = (
{
closed = 1;
nodes = (
(82,-35,l),
(123,-60,l),
(602,729,l),
(560,753,l)
);
},
{
ref = O;
}
);
userData = {
com.schriftgestaltung.componentsAlignment = (
-1
);
};
width = 665.83529;
},
{
anchors = (
{
name = top;
pos = (389,740);
}
);
layerId = "E21536AE-9819-4FE7-8A20-8865FE3C0515";
shapes = (
{
closed = 1;
nodes = (
(89,-41,l),
(108,-51,l),
(585,731,l),
(565,741,l)
);
},
{
ref = O;
}
);
width = 660;
},
{
anchors = (
{
name = top;
pos = (412,735);
}
);
layerId = "924B7471-43FB-4CAD-AF7E-45215B64D997";
shapes = (
{
closed = 1;
nodes = (
(87,-44,l),
(145,-71,l),
(629,730,l),
(571,757,l)
);
},
{
ref = O;
}
);
width = 700;
}
);
unicode = 216;
},
{
glyphname = OE;
kernLeft = C;
kernRight = AE;
lastChange = "2024-09-05 12:38:03 +0000";
layers = (
{
layerId = "54A40BFF-1CE0-48F0-82EB-25AA62455493";
shapes = (
{
closed = 1;
nodes = (
(185,703,o),
(106,617,o),
(68,348,cs),
(30,76,o),
(91,-13,o),
(297,-13,cs),
(372,-13,o),
(412,-2,o),
(472,26,c),
(445,90,l),
(397,75,o),
(369,66,o),
(299,66,cs),
(162,66,o),
(130,133,o),
(160,342,cs),
(190,557,o),
(246,624,o),
(387,624,cs),
(446,624,o),
(478,616,o),
(520,603,c),
(558,668,l),
(503,693,o),
(461,703,o),
(387,703,cs)
);
},
{
closed = 1;
nodes = (
(469,329,l),
(832,329,l),
(841,398,l),
(479,399,l)
);
},
{
closed = 1;
nodes = (
(547,691,o),
(495,647,o),
(485,573,cs),
(424,137,ls),
(412,52,o),
(457,-1,o),
(558,-1,cs),
(647,-1,o),
(745,-1,o),
(832,5,c),
(834,74,l),
(569,74,ls),
(524,74,o),
(507,93,o),
(514,139,cs),
(570,548,ls),
(576,596,o),
(598,616,o),
(641,616,cs),
(911,616,l),
(922,685,l),
(832,691,o),
(730,691,o),
(630,691,cs)
);
}
);
width = 918.82353;
},
{
guides = (
{
angle = 290;
pos = (312,278);
},
{
angle = 70;
pos = (306,401);
}
);
layerId = "E21536AE-9819-4FE7-8A20-8865FE3C0515";
shapes = (
{
closed = 1;
nodes = (
(194,702,o),
(120,609,o),
(83,347,cs),
(46,79,o),
(98,-12,o),
(298,-12,cs),
(371,-12,o),
(405,0,o),
(464,27,c),
(457,46,l),
(398,22,o),
(366,11,o),
(300,11,cs),
(115,11,o),
(73,98,o),
(108,343,cs),
(144,596,o),
(212,679,o),
(395,679,cs),
(446,679,o),
(493,671,o),
(540,645,c),
(549,666,l),
(498,692,o),
(449,702,o),
(396,702,cs)
);
},
{
closed = 1;
nodes = (
(481,359,l),
(797,360,l),
(800,380,l),
(484,381,l)
);
},
{
closed = 1;
nodes = (
(552,690,o),
(504,648,o),
(496,589,cs),
(428,103,ls),
(419,44,o),
(457,0,o),
(517,0,cs),
(608,0,o),
(698,0,o),
(791,4,c),
(792,22,l),
(522,22,ls),
(474,22,o),
(446,55,o),
(453,103,cs),
(520,585,ls),
(527,633,o),
(567,668,o),
(615,668,cs),
(883,668,l),
(885,686,l),
(793,690,o),
(703,690,o),
(610,690,cs)
);
}
);
width = 886;
},
{
guides = (
{
angle = 290;
pos = (364,278);
},
{
angle = 70;
pos = (358,401);
}
);
layerId = "924B7471-43FB-4CAD-AF7E-45215B64D997";
shapes = (
{
closed = 1;
nodes = (
(168,704,o),
(80,633,o),
(41,353,cs),
(1,65,o),
(79,-14,o),
(316,-14,cs),
(383,-14,o),
(442,-3,o),
(501,27,c),
(433,166,l),
(410,154,o),
(374,147,o),
(314,147,cs),
(252,147,o),
(246,181,o),
(268,337,cs),
(291,501,o),
(320,543,o),
(394,543,cs),
(439,543,o),
(473,541,o),
(495,532,c),
(588,671,l),
(533,693,o),
(474,704,o),
(393,704,cs)
);
},
{
closed = 1;
nodes = (
(458,286,l),
(903,286,l),
(920,420,l),
(478,420,l)
);
},
{
closed = 1;
nodes = (
(557,694,o),
(490,634,o),
(477,541,cs),
(423,157,ls),
(410,64,o),
(471,-4,o),
(569,-4,cs),
(679,-4,o),
(815,-5,o),
(913,8,c),
(917,162,l),
(673,162,ls),
(651,162,o),
(642,173,o),
(645,194,cs),
(687,488,ls),
(690,509,o),
(714,528,o),
(737,528,cs),
(970,528,l),
(995,680,l),
(901,693,o),
(764,694,o),
(642,694,cs)
);
}
);
width = 975;
}
);
unicode = 338;
},
{
glyphname = P;
kernLeft = B;
kernRight = P;
lastChange = "2024-09-05 12:38:03 +0000";
layers = (
{
layerId = "54A40BFF-1CE0-48F0-82EB-25AA62455493";
shapes = (
{
closed = 1;
nodes = (
(268,699,o),
(218,698,o),
(142,690,c),
(149,619,l),
(177,622,o),
(262,623,o),
(373,623,cs),
(468,623,o),
(500,597,o),
(484,487,cs),
(467,373,o),
(433,343,o),
(324,343,cs),
(252,343,o),
(174,343,o),
(104,343,c),
(98,290,l),
(122,281,o),
(225,267,o),
(327,267,cs),
(484,267,o),
(546,304,o),
(571,480,cs),
(594,641,o),
(536,699,o),
(376,699,cs)
);
},
{
closed = 1;
nodes = (
(142,690,l),
(45,0,l),
(133,0,l),
(230,690,l)
);
}
);
width = 588.02353;
},
{
layerId = "E21536AE-9819-4FE7-8A20-8865FE3C0515";
shapes = (
{
closed = 1;
nodes = (
(277,698,o),
(230,697,o),
(159,690,c),
(172,672,l),
(199,674,o),
(278,675,o),
(380,675,cs),
(506,675,o),
(546,639,o),
(526,497,cs),
(506,353,o),
(454,317,o),
(326,315,cs),
(258,315,o),
(184,315,o),
(119,315,c),
(115,297,l),
(137,295,o),
(219,292,o),
(326,292,cs),
(471,292,o),
(529,335,o),
(552,494,cs),
(574,653,o),
(526,698,o),
(379,698,cs)
);
},
{
closed = 1;
nodes = (
(159,690,l),
(62,0,l),
(87,0,l),
(184,690,l)
);
}
);
width = 580;
},
{
layerId = "924B7471-43FB-4CAD-AF7E-45215B64D997";
shapes = (
{
closed = 1;
nodes = (
(258,700,o),
(198,699,o),
(108,690,c),
(110,541,l),
(143,545,o),
(244,547,o),
(381,547,cs),
(430,547,o),
(439,529,o),
(431,473,cs),
(420,392,o),
(404,385,o),
(353,385,cs),
(264,385,o),
(162,385,o),
(72,385,c),
(66,289,l),
(95,267,o),
(237,232,o),
(372,232,cs),
(553,232,o),
(621,279,o),
(645,457,cs),
(670,645,o),
(597,700,o),
(386,700,cs)
);
},
{
closed = 1;
nodes = (
(108,690,l),
(11,0,l),
(227,0,l),
(324,690,l)
);
}
);
width = 638;
}
);
unicode = 80;
},
{
glyphname = Thorn;
kernLeft = B;
kernRight = Thorn;
lastChange = "2024-09-05 12:38:03 +0000";
layers = (
{
layerId = "54A40BFF-1CE0-48F0-82EB-25AA62455493";
shapes = (
{
closed = 1;
nodes = (
(249,567,o),
(201,566,o),
(124,559,c),
(131,488,l),
(160,491,o),
(244,492,o),
(355,492,cs),
(455,492,o),
(480,465,o),
(465,353,cs),
(448,236,o),
(409,208,o),
(305,207,cs),
(234,207,o),
(155,207,o),
(85,207,c),
(79,153,l),
(103,145,o),
(201,131,o),
(316,131,cs),
(464,131,o),
(528,175,o),
(552,346,cs),
(577,518,o),
(510,567,o),
(358,567,cs)
);
},
{
closed = 1;
nodes = (
(142,690,l),
(45,0,l),
(133,0,l),
(230,690,l)
);
}
);
width = 589.29412;
},
{
layerId = "E21536AE-9819-4FE7-8A20-8865FE3C0515";
shapes = (
{
closed = 1;
nodes = (
(258,555,o),
(210,554,o),
(139,547,c),
(153,529,l),
(180,531,o),
(259,532,o),
(361,532,cs),
(487,532,o),
(526,496,o),
(507,354,cs),
(487,208,o),
(435,174,o),
(306,172,cs),
(238,172,o),
(164,172,o),
(99,172,c),
(96,154,l),
(118,152,o),
(200,149,o),
(307,149,cs),
(452,149,o),
(510,191,o),
(532,350,cs),
(555,509,o),
(507,555,o),
(360,555,cs)
);
},
{
closed = 1;
nodes = (
(160,690,l),
(63,0,l),
(88,0,l),
(185,690,l)
);
}
);
width = 582;
},
{
layerId = "924B7471-43FB-4CAD-AF7E-45215B64D997";
shapes = (
{
closed = 1;
nodes = (
(241,578,o),
(185,577,o),
(97,568,c),
(94,419,l),
(127,423,o),
(228,425,o),
(364,425,cs),
(412,425,o),
(419,407,o),
(411,351,cs),
(400,270,o),
(385,263,o),
(336,263,cs),
(246,263,o),
(146,263,o),
(56,263,c),
(50,167,l),
(79,145,o),
(219,110,o),
(355,110,cs),
(534,110,o),
(602,157,o),
(626,335,cs),
(651,523,o),
(575,578,o),
(367,578,cs)
);
},
{
closed = 1;
nodes = (
(109,690,l),
(12,0,l),
(229,0,l),
(326,690,l)
);
}
);
width = 636;
}
);
unicode = 222;
},
{
glyphname = Q;
kernLeft = C;
kernRight = O;
lastChange = "2024-09-05 12:38:03 +0000";
layers = (
{
layerId = "54A40BFF-1CE0-48F0-82EB-25AA62455493";
shapes = (
{
closed = 1;
nodes = (
(184,703,o),
(104,608,o),
(68,348,cs),
(31,78,o),
(107,-13,o),
(297,-13,cs),
(493,-13,o),
(576,74,o),
(612,342,cs),
(650,608,o),
(577,703,o),
(387,703,cs)
);
},
{
closed = 1;
nodes = (
(208,-96,l),
(276,-144,o),
(360,-185,o),
(464,-209,c),
(499,-121,l),
(401,-106,o),
(316,-81,o),
(242,-44,c)
);
},
{
closed = 1;
nodes = (
(518,624,o),
(552,563,o),
(521,348,cs),
(490,134,o),
(436,66,o),
(299,66,cs),
(163,66,o),
(131,133,o),
(160,342,cs),
(190,558,o),
(242,624,o),
(382,624,cs)
);
}
);
width = 665.83529;
},
{
background = {
shapes = (
{
closed = 1;
nodes = (
(196,702,o),
(118,609,o),
(81,347,cs),
(44,83,o),
(98,-12,o),
(288,-12,cs),
(476,-12,o),
(554,81,o),
(590,343,cs),
(628,607,o),
(574,702,o),
(384,702,cs)
);
},
{
closed = 1;
nodes = (
(554,679,o),
(600,594,o),
(565,347,cs),
(530,98,o),
(458,11,o),
(287,11,cs),
(118,11,o),
(72,96,o),
(106,343,cs),
(141,592,o),
(214,679,o),
(385,679,cs)
);
}
);
};
layerId = "E21536AE-9819-4FE7-8A20-8865FE3C0515";
shapes = (
{
closed = 1;
nodes = (
(198,702,o),
(120,609,o),
(83,347,cs),
(46,83,o),
(100,-12,o),
(290,-12,cs),
(478,-12,o),
(556,81,o),
(592,343,cs),
(630,607,o),
(576,702,o),
(386,702,cs)
);
},
{
closed = 1;
nodes = (
(236,-65,l),
(288,-114,o),
(365,-149,o),
(452,-161,c),
(460,-136,l),
(369,-121,o),
(304,-95,o),
(248,-51,c)
);
},
{
closed = 1;
nodes = (
(559,679,o),
(602,594,o),
(567,347,cs),
(532,98,o),
(463,11,o),
(289,11,cs),
(121,11,o),
(74,96,o),
(108,343,cs),
(143,592,o),
(211,679,o),
(386,679,cs)
);
}
);
width = 660;
},
{
layerId = "924B7471-43FB-4CAD-AF7E-45215B64D997";
shapes = (
{
closed = 1;
nodes = (
(174,704,o),
(80,634,o),
(41,353,cs),
(2,69,o),
(83,-14,o),
(322,-14,cs),
(539,-14,o),
(637,53,o),
(675,337,cs),
(713,624,o),
(617,704,o),
(389,704,cs)
);
},
{
closed = 1;
nodes = (
(181,-130,l),
(251,-186,o),
(351,-237,o),
(482,-276,c),
(560,-101,l),
(435,-82,o),
(336,-64,o),
(241,-27,c)
);
},
{
closed = 1;
nodes = (
(458,543,o),
(471,510,o),
(447,353,cs),
(421,182,o),
(402,147,o),
(327,147,cs),
(256,147,o),
(243,179,o),
(268,337,cs),
(295,508,o),
(314,543,o),
(387,543,cs)
);
}
);
width = 700;
}
);
unicode = 81;
},
{
glyphname = R;
kernLeft = B;
kernRight = R;
lastChange = "2024-09-05 12:38:03 +0000";
layers = (
{
anchors = (
{
name = bottom;
pos = (279,0);
},
{
name = top;
pos = (375,734);
}
);
layerId = "54A40BFF-1CE0-48F0-82EB-25AA62455493";
shapes = (
{
closed = 1;
nodes = (
(276,699,o),
(218,698,o),
(142,690,c),
(149,621,l),
(177,621,o),
(261,623,o),
(374,623,cs),
(473,623,o),
(501,595,o),
(487,499,cs),
(472,395,o),
(431,365,o),
(330,364,cs),
(109,364,l),
(98,291,l),
(137,290,o),
(203,289,o),
(329,288,cs),
(373,288,o),
(397,270,o),
(407,218,cs),
(448,0,l),
(538,0,l),
(494,216,ls),
(483,274,o),
(459,306,o),
(421,317,c),
(422,322,l),
(518,334,o),
(561,391,o),
(576,496,cs),
(597,653,o),
(519,699,o),
(376,699,cs)
);
},
{
closed = 1;
nodes = (
(142,690,l),
(45,0,l),
(131,0,l),
(228,690,l)
);
}
);
width = 618.4;
},
{
anchors = (
{
name = bottom;
pos = (274,0);
},
{
name = top;
pos = (373,740);
}
);
layerId = "E21536AE-9819-4FE7-8A20-8865FE3C0515";
shapes = (
{
closed = 1;
nodes = (
(277,698,o),
(230,697,o),
(159,690,c),
(172,672,l),
(199,674,o),
(278,675,o),
(380,675,cs),
(507,675,o),
(546,641,o),
(527,506,cs),
(508,371,o),
(456,335,o),
(329,333,cs),
(122,333,l),
(118,315,l),
(152,313,o),
(222,312,o),
(338,310,cs),
(390,309,o),
(424,286,o),
(437,219,cs),
(481,0,l),
(508,0,l),
(463,220,ls),
(454,266,o),
(433,305,o),
(399,316,c),
(399,320,l),
(490,333,o),
(535,378,o),
(553,502,cs),
(574,656,o),
(526,698,o),
(379,698,cs)
);
},
{
closed = 1;
nodes = (
(159,690,l),
(62,0,l),
(87,0,l),
(184,690,l)
);
}
);
width = 606;
},
{
associatedMasterId = "E21536AE-9819-4FE7-8A20-8865FE3C0515";
layerId = "96A7CFA6-5623-4359-898D-2D9E1F2305CB";
name = "Light May 2 13, 16:37";
shapes = (
{
closed = 1;
nodes = (
(107,690,l),
(107,0,l),
(132,0,l),
(132,690,l)
);
},
{
closed = 1;
nodes = (
(121,672,l),
(149,674,o),
(232,675,o),
(338,675,cs),
(465,675,o),
(511,640,o),
(511,504,cs),
(511,370,o),
(465,335,o),
(338,333,cs),
(266,333,o),
(188,333,o),
(120,333,c),
(117,315,l),
(140,313,o),
(227,310,o),
(338,310,cs),
(484,310,o),
(537,356,o),
(537,504,cs),
(537,657,o),
(484,698,o),
(338,698,cs),
(230,698,o),
(180,697,o),
(107,690,c)
);
},
{
closed = 1;
nodes = (
(486,221,ls),
(456,307,o),
(404,333,o),
(338,333,c),
(347,310,l),
(400,310,o),
(437,285,o),
(460,218,cs),
(534,0,l),
(562,0,l)
);
}
);
width = 616;
},
{
anchors = (
{
name = bottom;
pos = (307,0);
},
{
name = top;
pos = (393,735);
}
);
layerId = "924B7471-43FB-4CAD-AF7E-45215B64D997";
shapes = (
{
closed = 1;
nodes = (
(260,700,o),
(198,699,o),
(108,690,c),
(110,541,l),
(143,545,o),
(242,547,o),
(385,547,cs),
(434,547,o),
(447,532,o),
(440,484,cs),
(430,419,o),
(414,405,o),
(355,405,cs),
(81,405,l),
(65,257,l),
(127,253,o),
(180,253,o),
(334,252,cs),
(364,252,o),
(373,247,o),
(374,209,cs),
(392,0,l),
(616,0,l),
(590,208,ls),
(582,292,o),
(533,314,o),
(499,319,c),
(500,326,l),
(612,337,o),
(645,403,o),
(656,482,cs),
(678,647,o),
(579,700,o),
(387,700,cs)
);
},
{
closed = 1;
nodes = (
(108,690,l),
(11,0,l),
(223,0,l),
(320,690,l)
);
}
);
width = 669;
}
);
unicode = 82;
},
{
glyphname = S;
kernLeft = S;
kernRight = S;
lastChange = "2024-09-05 12:38:03 +0000";
layers = (
{
anchors = (
{
name = bottom;
pos = (240,0);
},
{
name = top;
pos = (336,734);
}
);
layerId = "54A40BFF-1CE0-48F0-82EB-25AA62455493";
shapes = (
{
closed = 1;
nodes = (
(193,702,o),
(108,684,o),
(87,529,cs),
(74,432,o),
(102,373,o),
(199,337,cs),
(336,286,ls),
(398,263,o),
(414,247,o),
(405,176,cs),
(392,80,o),
(351,67,o),
(237,67,cs),
(194,66,o),
(154,68,o),
(37,72,c),
(26,7,l),
(118,-10,o),
(195,-12,o),
(236,-12,cs),
(399,-12,o),
(472,16,o),
(493,167,cs),
(507,269,o),
(483,323,o),
(379,361,cs),
(244,411,ls),
(182,434,o),
(166,451,o),
(175,520,cs),
(189,624,o),
(238,624,o),
(329,623,cs),
(397,623,o),
(458,621,o),
(526,618,c),
(535,682,l),
(469,697,o),
(398,701,o),
(331,702,cs)
);
}
);
width = 560.29412;
},
{
anchors = (
{
name = bottom;
pos = (238,0);
},
{
name = top;
pos = (337,740);
}
);
layerId = "E21536AE-9819-4FE7-8A20-8865FE3C0515";
shapes = (
{
closed = 1;
nodes = (
(207,703,o),
(117,695,o),
(97,546,cs),
(86,454,o),
(111,409,o),
(208,367,cs),
(358,304,ls),
(442,267,o),
(461,236,o),
(449,151,cs),
(429,29,o),
(365,14,o),
(241,12,cs),
(170,11,o),
(114,13,o),
(41,19,c),
(37,0,l),
(121,-10,o),
(189,-11,o),
(227,-11,cs),
(367,-11,o),
(453,1,o),
(475,147,cs),
(488,246,o),
(463,285,o),
(359,330,cs),
(209,393,ls),
(129,429,o),
(115,469,o),
(123,542,cs),
(140,675,o),
(219,678,o),
(311,678,cs),
(387,678,o),
(422,676,o),
(511,670,c),
(515,689,l),
(456,696,o),
(394,700,o),
(329,701,cs)
);
}
);
width = 553;
},
{
anchors = (
{
name = bottom;
pos = (254,-20);
},
{
name = top;
pos = (363,735);
}
);
layerId = "924B7471-43FB-4CAD-AF7E-45215B64D997";
shapes = (
{
closed = 1;
nodes = (
(169,704,o),
(79,661,o),
(61,509,cs),
(51,424,o),
(72,354,o),
(188,297,cs),
(314,235,ls),
(342,221,o),
(351,213,o),
(347,196,cs),
(342,175,o),
(323,167,o),
(262,167,cs),
(236,167,o),
(140,169,o),
(24,172,c),
(4,21,l),
(109,-6,o),
(215,-14,o),
(273,-14,cs),
(472,-14,o),
(543,30,o),
(561,189,cs),
(572,291,o),
(549,350,o),
(435,404,cs),
(319,459,ls),
(279,478,o),
(272,489,o),
(275,504,cs),
(280,526,o),
(297,532,o),
(343,532,cs),
(428,532,o),
(524,531,o),
(585,530,c),
(604,668,l),
(527,694,o),
(434,704,o),
(357,704,cs)
);
}
);
width = 602;
}
);
unicode = 83;
},
{
glyphname = Germandbls;
kernLeft = F;
kernRight = B;
lastChange = "2024-09-05 12:38:03 +0000";
layers = (
{
layerId = "54A40BFF-1CE0-48F0-82EB-25AA62455493";
shapes = (
{
closed = 1;
nodes = (
(186,691,o),
(134,648,o),
(122,569,cs),
(43,0,l),
(131,0,l),
(208,548,ls),
(215,600,o),
(236,616,o),
(287,616,cs),
(605,616,l),
(618,684,l),
(507,691,o),
(367,691,o),
(268,691,cs)
);
},
{
closed = 1;
nodes = (
(248,-10,o),
(310,-15,o),
(365,-13,cs),
(538,-6,o),
(595,87,o),
(613,189,cs),
(637,317,o),
(577,390,o),
(457,388,c),
(413,385,l),
(413,388,l),
(430,399,o),
(444,412,o),
(458,429,cs),
(605,616,l),
(504,616,l),
(317,379,l),
(308,322,l),
(425,320,ls),
(517,318,o),
(538,272,o),
(527,205,cs),
(513,124,o),
(463,73,o),
(359,66,cs),
(303,62,o),
(252,65,o),
(193,73,c),
(181,5,l)
);
}
);
width = 635.32941;
},
{
layerId = "E21536AE-9819-4FE7-8A20-8865FE3C0515";
shapes = (
{
closed = 1;
nodes = (
(195,690,o),
(151,651,o),
(142,589,cs),
(59,0,l),
(84,0,l),
(166,585,ls),
(174,639,o),
(211,668,o),
(261,668,cs),
(565,668,l),
(569,686,l),
(473,690,o),
(353,690,o),
(256,690,cs)
);
},
{
closed = 1;
nodes = (
(211,-9,o),
(282,-15,o),
(336,-12,cs),
(485,-3,o),
(543,90,o),
(558,190,cs),
(580,337,o),
(488,378,o),
(379,376,c),
(314.806,373.884,l),
(315,377,l),
(321,381,o),
(331,390,o),
(341,401,c),
(565,668,l),
(535,668,l),
(288,373,l),
(285,356,l),
(386,355,ls),
(529,354,o),
(546,270,o),
(534,194,cs),
(516,80,o),
(446,19,o),
(331,11,cs),
(282,8,o),
(210,12,o),
(159,23,c),
(152,5,l)
);
}
);
width = 585;
},
{
layerId = "924B7471-43FB-4CAD-AF7E-45215B64D997";
shapes = (
{
closed = 1;
nodes = (
(167,694,o),
(98,636,o),
(85,541,cs),
(9,0,l),
(227,0,l),
(295,488,ls),
(299,518,o),
(313,528,o),
(349,528,cs),
(669,528,l),
(693,679,l),
(571,693,o),
(380,694,o),
(261,694,cs)
);
},
{
closed = 1;
nodes = (
(327,-5,o),
(387,-14,o),
(447,-14,cs),
(590,-14,o),
(693,45,o),
(711,204,cs),
(725,331,o),
(665,400,o),
(577,398,cs),
(545.039,397.116,l),
(546,400,l),
(565,409,o),
(584,424,o),
(598,441,cs),
(669,528,l),
(462,528,l),
(360,392,l),
(343,263,l),
(452,263,ls),
(502,263,o),
(505,238,o),
(500,212,cs),
(487,146,o),
(444,150,o),
(377,151,cs),
(348,151,o),
(314,154,o),
(276,157,c),
(262,6,l)
);
}
);
width = 734;
}
);
unicode = 7838;
},
{
glyphname = T;
kernLeft = T;
kernRight = T;
lastChange = "2024-09-05 12:38:03 +0000";
layers = (
{
anchors = (
{
name = bottom;
pos = (242,0);
},
{
name = center;
pos = (294,345);
},
{
name = top;
pos = (349,734);
}
);
layerId = "54A40BFF-1CE0-48F0-82EB-25AA62455493";
shapes = (
{
closed = 1;
nodes = (
(298,690,l),
(201,0,l),
(289,0,l),
(386,690,l)
);
},
{
closed = 1;
nodes = (
(76,690,l),
(65,612,l),
(598,612,l),
(608,690,l)
);
}
);
width = 573.31765;
},
{
anchors = (
{
name = bottom;
pos = (238,0);
},
{
name = center;
pos = (287,345);
},
{
name = top;
pos = (343,740);
}
);
layerId = "E21536AE-9819-4FE7-8A20-8865FE3C0515";
shapes = (
{
closed = 1;
nodes = (
(322,690,l),
(225,0,l),
(250,0,l),
(347,690,l)
);
},
{
closed = 1;
nodes = (
(80,690,l),
(77,668,l),
(587,668,l),
(590,690,l)
);
}
);
width = 558;
},
{
anchors = (
{
name = bottom;
pos = (263,-10);
},
{
name = center;
pos = (317,345);
},
{
name = top;
pos = (368,735);
}
);
layerId = "924B7471-43FB-4CAD-AF7E-45215B64D997";
shapes = (
{
closed = 1;
nodes = (
(256,690,l),
(159,0,l),
(376,0,l),
(473,690,l)
);
},
{
closed = 1;
nodes = (
(66,690,l),
(43,528,l),
(641,528,l),
(664,690,l)
);
}
);
width = 618;
}
);
unicode = 84;
},
{
glyphname = Tbar;
kernLeft = T;
kernRight = T;
lastChange = "2024-09-05 12:38:03 +0000";
layers = (
{
layerId = "54A40BFF-1CE0-48F0-82EB-25AA62455493";
shapes = (
{
closed = 1;
nodes = (
(121,397,l),
(114,348,l),
(483,348,l),
(489,397,l)
);
},
{
ref = T;
}
);
userData = {
com.schriftgestaltung.componentsAlignment = (
-1
);
};
width = 573.31765;
},
{
layerId = "E21536AE-9819-4FE7-8A20-8865FE3C0515";
shapes = (
{
closed = 1;
nodes = (
(131,405,l),
(128,385,l),
(457,385,l),
(460,405,l)
);
},
{
ref = T;
}
);
width = 558;
},
{
layerId = "924B7471-43FB-4CAD-AF7E-45215B64D997";
shapes = (
{
closed = 1;
nodes = (
(100,381,l),
(87,287,l),
(537,287,l),
(550,381,l)
);
},
{
ref = T;
}
);
width = 618;
}
);
unicode = 358;
},
{
glyphname = U;
kernLeft = U;
kernRight = U;
lastChange = "2024-09-05 12:38:03 +0000";
layers = (
{
anchors = (
{
name = bottom;
pos = (294,0);
},
{
name = ogonek;
pos = (331,-9);
},
{
name = top;
pos = (390,734);
}
);
layerId = "54A40BFF-1CE0-48F0-82EB-25AA62455493";
shapes = (
{
closed = 1;
nodes = (
(550,690,l),
(492,267,ls),
(470,118,o),
(418,66,o),
(296,66,cs),
(177,66,o),
(144,114,o),
(165,263,cs),
(225,690,l),
(136,690,l),
(78,267,ls),
(49,65,o),
(121,-13,o),
(298,-13,cs),
(472,-13,o),
(550,62,o),
(579,263,cs),
(639,690,l)
);
}
);
width = 664.08235;
},
{
anchors = (
{
name = bottom;
pos = (290,0);
},
{
name = ogonek;
pos = (332,-9);
},
{
name = top;
pos = (389,740);
}
);
layerId = "E21536AE-9819-4FE7-8A20-8865FE3C0515";
shapes = (
{
closed = 1;
nodes = (
(600,690,l),
(539,256,ls),
(514,77,o),
(447,11,o),
(293,11,cs),
(140,11,o),
(93,75,o),
(118,254,cs),
(179,690,l),
(154,690,l),
(93,256,ls),
(66,64,o),
(120,-12,o),
(294,-12,cs),
(465,-12,o),
(537,62,o),
(564,254,cs),
(625,690,l)
);
}
);
width = 667;
},
{
anchors = (
{
name = bottom;
pos = (303,-20);
},
{
name = ogonek;
pos = (354,-9);
},
{
name = top;
pos = (412,735);
}
);
layerId = "924B7471-43FB-4CAD-AF7E-45215B64D997";
shapes = (
{
closed = 1;
nodes = (
(493,690,l),
(436,289,ls),
(418,178,o),
(403,147,o),
(327,147,cs),
(254,147,o),
(245,176,o),
(261,281,cs),
(319,690,l),
(103,690,l),
(45,289,ls),
(16,69,o),
(112,-14,o),
(322,-14,cs),
(542,-14,o),
(620,61,o),
(651,281,cs),
(710,690,l)
);
}
);
width = 700;
}
);
unicode = 85;
},
{
glyphname = V;
kernLeft = V;
kernRight = V;
lastChange = "2024-09-05 12:38:03 +0000";
layers = (
{
layerId = "54A40BFF-1CE0-48F0-82EB-25AA62455493";
shapes = (
{
closed = 1;
nodes = (
(552,690,l),
(312,145,ls),
(301,120,o),
(290,91,o),
(281,66,c),
(255,66,l),
(253,91,o),
(249,117,o),
(245,142,cs),
(158,690,l),
(69,690,l),
(188,27,ls),
(190,12,o),
(202,0,o),
(218,0,cs),
(306,0,ls),
(322,0,o),
(334,8,o),
(340,23,cs),
(645,690,l)
);
}
);
width = 605.23529;
},
{
layerId = "E21536AE-9819-4FE7-8A20-8865FE3C0515";
shapes = (
{
closed = 1;
nodes = (
(591,690,l),
(303,98,ls),
(291,73,o),
(278,46,o),
(267,21,c),
(240,21,l),
(236,46,o),
(231,70,o),
(226,95,cs),
(104,690,l),
(78,690,l),
(219,10,ls),
(220,5,o),
(225,0,o),
(231,0,cs),
(273,0,ls),
(279,0,o),
(284,3,o),
(286,8,cs),
(618,690,l)
);
}
);
width = 587;
},
{
layerId = "924B7471-43FB-4CAD-AF7E-45215B64D997";
shapes = (
{
closed = 1;
nodes = (
(495,690,l),
(345,245,ls),
(335,217,o),
(327,189,o),
(322,159,c),
(296,159,l),
(297,188,o),
(298,219,o),
(296,249,cs),
(272,690,l),
(54,690,l),
(132,62,ls),
(136,27,o),
(164,0,o),
(201,0,cs),
(390,0,ls),
(427,0,o),
(453,20,o),
(466,54,cs),
(723,690,l)
);
}
);
width = 665;
}
);
unicode = 86;
},
{
glyphname = W;
kernLeft = W;
kernRight = W;
lastChange = "2024-09-05 12:38:03 +0000";
layers = (
{
anchors = (
{
name = top;
pos = (532,733);
}
);
layerId = "54A40BFF-1CE0-48F0-82EB-25AA62455493";
shapes = (
{
closed = 1;
nodes = (
(877,690,l),
(696,152,ls),
(687,124,o),
(677,93,o),
(669,65,c),
(644,65,l),
(644,93,o),
(642,122,o),
(640,150,cs),
(599,659,ls),
(598,676,o),
(586,690,o),
(569,690,cs),
(474,690,ls),
(455,690,o),
(443,680,o),
(438,662,cs),
(261,154,ls),
(252,126,o),
(242,96,o),
(232,65,c),
(208,65,l),
(207,96,o),
(207,124,o),
(205,151,cs),
(173,690,l),
(83,690,l),
(133,28,ls),
(134,12,o),
(148,0,o),
(166,0,cs),
(263,0,ls),
(280,0,o),
(294,9,o),
(299,25,cs),
(478,544,ls),
(487,569,o),
(496,598,o),
(505,624,c),
(526,624,l),
(527,598,o),
(530,574,o),
(532,548,cs),
(568,29,ls),
(569,12,o),
(583,0,o),
(600,0,cs),
(698,0,ls),
(716,0,o),
(729,8,o),
(734,24,cs),
(969,690,l)
);
}
);
width = 942.77647;
},
{
anchors = (
{
name = top;
pos = (525,740);
}
);
background = {
shapes = (
{
closed = 1;
nodes = (
(597,661,l),
(264,93,ls),
(250,69,o),
(235,43,o),
(222,18,c),
(193,20,l),
(191,46,o),
(188,70,o),
(185,95,cs),
(110,697,l),
(84,701,l),
(173,12,ls),
(173,7,o),
(178,1,o),
(184,0,cs),
(226,-3,ls),
(232,-3,o),
(237,-1,o),
(239,4,cs),
(623,659,l)
);
}
);
};
guides = (
{
pos = (456,587);
}
);
layerId = "E21536AE-9819-4FE7-8A20-8865FE3C0515";
shapes = (
{
closed = 1;
nodes = (
(923,690,l),
(679,91,ls),
(670,68,o),
(661,44,o),
(652,21,c),
(623,21,l),
(620,44,o),
(619,67,o),
(616,90,cs),
(549,678,ls),
(548,685,o),
(542,690,o),
(535,690,cs),
(496,690,ls),
(489,690,o),
(485,687,o),
(482,680,cs),
(250,91,ls),
(241,68,o),
(233,44,o),
(224,21,c),
(195,21,l),
(192,44,o),
(190,67,o),
(187,90,cs),
(111,690,l),
(86,690,l),
(173,11,ls),
(174,5,o),
(179,0,o),
(186,0,cs),
(229,0,ls),
(236,0,o),
(241,3,o),
(244,10,cs),
(471,590,ls),
(481,616,o),
(491,641,o),
(502,667,c),
(527,667,l),
(531,641,o),
(533,618,o),
(536,592,cs),
(601,12,ls),
(602,5,o),
(607,0,o),
(614,0,cs),
(656,0,ls),
(663,0,o),
(668,3,o),
(671,9,cs),
(949,690,l)
);
}
);
width = 926;
},
{
anchors = (
{
name = top;
pos = (554,735);
}
);
guides = (
{
pos = (433,447);
}
);
layerId = "924B7471-43FB-4CAD-AF7E-45215B64D997";
shapes = (
{
closed = 1;
nodes = (
(817,690,l),
(725,269,ls),
(717,235,o),
(708,185,o),
(704,148,c),
(686,148,l),
(687,184,o),
(688,226,o),
(688,262,cs),
(688,622,ls),
(688,660,o),
(660,690,o),
(621,690,cs),
(470,690,ls),
(431,690,o),
(403,668,o),
(393,630,cs),
(297,272,ls),
(287,236,o),
(277,191,o),
(269,148,c),
(252,148,l),
(255,192,o),
(258,229,o),
(260,263,cs),
(287,690,l),
(74,690,l),
(72,62,ls),
(71,27,o),
(104,0,o),
(141,0,cs),
(328,0,ls),
(365,0,o),
(395,19,o),
(404,54,cs),
(503,434,ls),
(511,467,o),
(518,502,o),
(523,536,c),
(541,536,l),
(539,499,o),
(537,469,o),
(536,431,cs),
(529,62,ls),
(528,27,o),
(561,0,o),
(598,0,cs),
(780,0,ls),
(818,0,o),
(847,19,o),
(856,54,cs),
(1030,690,l)
);
}
);
width = 995;
}
);
unicode = 87;
},
{
glyphname = X;
kernLeft = X;
kernRight = X;
lastChange = "2024-09-05 12:38:03 +0000";
layers = (
{
layerId = "54A40BFF-1CE0-48F0-82EB-25AA62455493";
shapes = (
{
closed = 1;
nodes = (
(94,690,l),
(228,357,l),
(-18,0,l),
(84,0,l),
(317,349,l),
(184,690,l)
);
},
{
closed = 1;
nodes = (
(266,392,l),
(256,324,l),
(362,324,l),
(372,392,l)
);
},
{
closed = 1;
nodes = (
(533,690,l),
(311,367,l),
(455,0,l),
(545,0,l),
(400,357,l),
(630,690,l)
);
}
);
width = 608.96471;
},
{
layerId = "E21536AE-9819-4FE7-8A20-8865FE3C0515";
shapes = (
{
closed = 1;
nodes = (
(106,690,l),
(266,361,l),
(-4,0,l),
(26,0,l),
(294,358,l),
(133,690,l)
);
},
{
closed = 1;
nodes = (
(286,372,l),
(282,350,l),
(334,350,l),
(338,372,l)
);
},
{
closed = 1;
nodes = (
(568,690,l),
(317,363,l),
(486,0,l),
(513,0,l),
(345,360,l),
(597,690,l)
);
}
);
width = 590;
},
{
layerId = "924B7471-43FB-4CAD-AF7E-45215B64D997";
shapes = (
{
closed = 1;
nodes = (
(68,690,l),
(172,352,l),
(-46,0,l),
(184,0,l),
(372,332,l),
(277,690,l)
);
},
{
closed = 1;
nodes = (
(241,414,l),
(224,294,l),
(431,294,l),
(448,414,l)
);
},
{
closed = 1;
nodes = (
(499,690,l),
(321,374,l),
(420,0,l),
(633,0,l),
(516,352,l),
(720,690,l)
);
}
);
width = 672;
}
);
unicode = 88;
},
{
glyphname = Y;
kernLeft = Y;
kernRight = Y;
lastChange = "2024-09-05 12:38:03 +0000";
layers = (
{
anchors = (
{
name = bottom;
pos = (236,0);
},
{
name = top;
pos = (332,734);
}
);
layerId = "54A40BFF-1CE0-48F0-82EB-25AA62455493";
shapes = (
{
closed = 1;
nodes = (
(513,690,l),
(327,400,ls),
(312,377,o),
(295,344,o),
(286,319,c),
(278,319,l),
(274,345,o),
(266,373,o),
(258,397,cs),
(154,690,l),
(64,690,l),
(233,234,l),
(312,234,l),
(609,690,l)
);
},
{
closed = 1;
nodes = (
(237,296,l),
(194,0,l),
(283,0,l),
(324,296,l)
);
}
);
width = 564.90588;
},
{
anchors = (
{
name = bottom;
pos = (224,0);
},
{
name = top;
pos = (323,740);
}
);
guides = (
{
angle = 90;
pos = (259,289);
}
);
layerId = "E21536AE-9819-4FE7-8A20-8865FE3C0515";
shapes = (
{
closed = 1;
nodes = (
(541,690,l),
(314,357,ls),
(300,336,o),
(282,309,o),
(267,287,c),
(261,287,l),
(252,309,o),
(242,334,o),
(233,356,cs),
(99,690,l),
(73,690,l),
(251,251,l),
(269,250,l),
(569,690,l)
);
},
{
closed = 1;
nodes = (
(252,281,l),
(212,0,l),
(237,0,l),
(277,281,l)
);
}
);
width = 535;
},
{
anchors = (
{
name = bottom;
pos = (278,-11);
},
{
name = top;
pos = (383,735);
}
);
layerId = "924B7471-43FB-4CAD-AF7E-45215B64D997";
shapes = (
{
closed = 1;
nodes = (
(484,690,l),
(367,467,ls),
(351,434,o),
(340,396,o),
(337,368,c),
(322,368,l),
(323,399,o),
(324,429,o),
(315,469,cs),
(262,690,l),
(46,690,l),
(209,206,l),
(417,205,l),
(715,690,l)
);
},
{
closed = 1;
nodes = (
(219,328,l),
(173,0,l),
(391,0,l),
(436,328,l)
);
}
);
width = 649;
}
);
unicode = 89;
},
{
glyphname = Z;
kernLeft = Z;
kernRight = Z;
lastChange = "2024-09-05 12:38:03 +0000";
layers = (
{
anchors = (
{
name = bottom;
pos = (254,0);
},
{
name = top;
pos = (336,734);
}
);
layerId = "54A40BFF-1CE0-48F0-82EB-25AA62455493";
shapes = (
{
closed = 1;
nodes = (
(16,75,l),
(112,74,l),
(556,615,l),
(459,616,l)
);
},
{
closed = 1;
nodes = (
(16,75,l),
(6,0,l),
(476,0,l),
(487,75,l)
);
},
{
closed = 1;
nodes = (
(108,690,l),
(97,615,l),
(556,615,l),
(567,690,l)
);
}
);
width = 562.48235;
},
{
anchors = (
{
name = bottom;
pos = (256,0);
},
{
name = top;
pos = (335,740);
}
);
layerId = "E21536AE-9819-4FE7-8A20-8865FE3C0515";
shapes = (
{
closed = 1;
nodes = (
(12,23,l),
(41,22,l),
(552,667,l),
(522,668,l)
);
},
{
closed = 1;
nodes = (
(12,23,l),
(8,0,l),
(463,0,l),
(467,23,l)
);
},
{
closed = 1;
nodes = (
(108,690,l),
(105,667,l),
(552,667,l),
(555,690,l)
);
}
);
width = 553;
},
{
anchors = (
{
name = bottom;
pos = (268,-11);
},
{
name = top;
pos = (355,735);
}
);
layerId = "924B7471-43FB-4CAD-AF7E-45215B64D997";
shapes = (
{
closed = 1;
nodes = (
(9,152,l),
(260,151,l),
(594,538,l),
(344,539,l)
);
},
{
closed = 1;
nodes = (
(9,152,l),
(-11,0,l),
(528,0,l),
(549,152,l)
);
},
{
closed = 1;
nodes = (
(96,690,l),
(75,538,l),
(594,538,l),
(615,690,l)
);
}
);
width = 598;
}
);
unicode = 90;
},
{
glyphname = Oslash.rvrn;
lastChange = "2024-09-05 12:38:03 +0000";
layers = (
{
layerId = "54A40BFF-1CE0-48F0-82EB-25AA62455493";
shapes = (
{
closed = 1;
nodes = (
(152,92,l),
(64,-51,l),
(127,-85,l),
(214,58,l)
);
},
{
closed = 1;
nodes = (
(548,620,l),
(624,747,l),
(561,780,l),
(485,654,l)
);
},
{
ref = O;
}
);
userData = {
com.schriftgestaltung.componentsAlignment = (
-1
);
};
width = 666;
},
{
layerId = "E21536AE-9819-4FE7-8A20-8865FE3C0515";
shapes = (
{
closed = 1;
nodes = (
(139,42,l),
(89,-41,l),
(108,-51,l),
(156,28,l)
);
},
{
closed = 1;
nodes = (
(534,648,l),
(585,731,l),
(565,741,l),
(516,661,l)
);
},
{
ref = O;
}
);
width = 660;
},
{
layerId = "924B7471-43FB-4CAD-AF7E-45215B64D997";
shapes = (
{
closed = 1;
nodes = (
(104,95,l),
(36,-18,l),
(165,-68,l),
(233,46,l)
);
},
{
closed = 1;
nodes = (
(618,595,l),
(687,711,l),
(557,760,l),
(493,653,l)
);
},
{
ref = O;
}
);
width = 700;
}
);
},
{
color = (255,225,46,255);
glyphname = Oslashacute.rvrn;
lastChange = "2024-09-05 12:38:03 +0000";
layers = (
{
layerId = "54A40BFF-1CE0-48F0-82EB-25AA62455493";
shapes = (
{
closed = 1;
nodes = (
(152,92,l),
(64,-51,l),
(127,-85,l),
(214,58,l)
);
},
{
closed = 1;
nodes = (
(548,620,l),
(624,747,l),
(561,780,l),
(485,654,l)
);
},
{
ref = O;
},
{
pos = (546,190);
ref = acutecomb;
}
);
width = 662;
},
{
layerId = "E21536AE-9819-4FE7-8A20-8865FE3C0515";
shapes = (
{
closed = 1;
nodes = (
(139,42,l),
(89,-41,l),
(108,-51,l),
(156,28,l)
);
},
{
closed = 1;
nodes = (
(534,648,l),
(585,731,l),
(565,741,l),
(516,661,l)
);
},
{
ref = O;
},
{
pos = (515,186);
ref = acutecomb;
}
);
width = 660;
},
{
layerId = "924B7471-43FB-4CAD-AF7E-45215B64D997";
shapes = (
{
closed = 1;
nodes = (
(104,95,l),
(36,-18,l),
(165,-68,l),
(233,46,l)
);
},
{
closed = 1;
nodes = (
(618,595,l),
(687,711,l),
(557,760,l),
(493,653,l)
);
},
{
ref = O;
},
{
pos = (632,209);
ref = acutecomb;
}
);
width = 701;
}
);
},
{
glyphname = a;
kernLeft = a;
kernRight = a;
lastChange = "2024-09-05 12:38:03 +0000";
layers = (
{
anchors = (
{
name = bottom;
pos = (240,-13);
},
{
name = ogonek;
pos = (456,0);
},
{
name = top;
pos = (323,554);
}
);
layerId = "54A40BFF-1CE0-48F0-82EB-25AA62455493";
shapes = (
{
closed = 1;
nodes = (
(155,499,o),
(82,468,o),
(51,249,cs),
(23,54,o),
(62,-12,o),
(178,-12,cs),
(289,-12,o),
(385,66,o),
(436,156,c),
(419,197,l),
(336,110,o),
(267,62,o),
(195,62,cs),
(128,62,o),
(115,95,o),
(136,242,cs),
(160,404,o),
(186,428,o),
(320,428,cs),
(351,428,o),
(412,426,o),
(485,423,c),
(523,476,l),
(455,489,o),
(364,499,o),
(294,499,cs)
);
},
{
closed = 1;
nodes = (
(387,123,l),
(396,115,l),
(389,0,l),
(456,0,l),
(523,476,l),
(437,476,l)
);
}
);
width = 572.75294;
},
{
anchors = (
{
name = bottom;
pos = (243,-12);
},
{
name = ogonek;
pos = (430,0);
},
{
name = top;
pos = (327,558);
}
);
layerId = "E21536AE-9819-4FE7-8A20-8865FE3C0515";
shapes = (
{
closed = 1;
nodes = (
(146,492,o),
(102,442,o),
(70,242,cs),
(42,68,o),
(60,-12,o),
(182,-12,cs),
(244,-12,o),
(347,31,o),
(432,128,c),
(432,155,l),
(349,62,o),
(247,11,o),
(182,11,cs),
(81,11,o),
(69,79,o),
(94,238,cs),
(124,429,o),
(160,470,o),
(322,470,cs),
(374,470,o),
(416,466,o),
(488,462,c),
(498,480,l),
(435,487,o),
(377,492,o),
(319,492,cs)
);
},
{
closed = 1;
nodes = (
(425,126,l),
(427,122,l),
(412,0,l),
(430,0,l),
(498,480,l),
(473,480,l)
);
}
);
width = 564;
},
{
anchors = (
{
name = bottom;
pos = (258,-12);
},
{
name = ogonek;
pos = (529,0);
},
{
name = top;
pos = (355,547);
}
);
layerId = "924B7471-43FB-4CAD-AF7E-45215B64D997";
shapes = (
{
closed = 1;
nodes = (
(174,514,o),
(62,500,o),
(25,264,cs),
(-2,90,o),
(26,-22,o),
(170,-12,cs),
(298,-3,o),
(383,75,o),
(414,221,c),
(380,277,l),
(354,213,o),
(297,152,o),
(260,149,cs),
(222,146,o),
(224,168,o),
(239,270,cs),
(253,366,o),
(286,377,o),
(328,377,cs),
(375,377,o),
(400,377,o),
(434,376,c),
(597,482,l),
(559,496,o),
(424,514,o),
(354,514,cs)
);
},
{
closed = 1;
nodes = (
(338,125,l),
(365,109,l),
(367,0,l),
(529,0,l),
(597,482,l),
(392,500,l)
);
}
);
width = 613;
},
{
associatedMasterId = "924B7471-43FB-4CAD-AF7E-45215B64D997";
layerId = "49A279C6-D974-49F1-BD92-4171D8D7607C";
name = "(null) Apr 26 13, 12:09";
shapes = (
{
closed = 1;
nodes = (
(216,181,ls),
(216,197,o),
(214,223,o),
(246,226,cs),
(298,231,l),
(298,171,l),
(298,171,o),
(299,138,o),
(258,138,cs),
(239,138,o),
(216,134,o),
(216,175,cs)
);
},
{
closed = 1;
nodes = (
(22,143,ls),
(22,87,o),
(60,-1,o),
(186,-6,cs),
(259,-9,o),
(289,33,o),
(298,54,c),
(336,0,l),
(492,0,l),
(492,357,l),
(492,506,o),
(408,541,o),
(268,541,cs),
(169,541,o),
(109,534,o),
(40,501,c),
(40,388,l),
(40,388,o),
(211,399,o),
(236,399,cs),
(276,399,o),
(298,400,o),
(298,347,c),
(299,346,o),
(298,340,o),
(298,340,c),
(298,339,o),
(196,340,o),
(196,340,cs),
(57,340,o),
(22,259,o),
(22,184,cs)
);
}
);
width = 600;
}
);
unicode = 97;
},
{
glyphname = aringacute;
kernLeft = a;
kernRight = a;
lastChange = "2024-09-05 12:38:03 +0000";
layers = (
{
layerId = "54A40BFF-1CE0-48F0-82EB-25AA62455493";
shapes = (
{
closed = 1;
nodes = (
(259,811,l),
(281,770,l),
(480,847,l),
(446,917,l)
);
},
{
ref = a;
},
{
pos = (130,3);
ref = ring;
}
);
userData = {
com.schriftgestaltung.componentsAlignment = (
-1,
-1
);
};
width = 572.75294;
},
{
layerId = "E21536AE-9819-4FE7-8A20-8865FE3C0515";
shapes = (
{
closed = 1;
nodes = (
(281,775,l),
(292,759,l),
(466,848,l),
(453,870,l)
);
},
{
ref = a;
},
{
pos = (135,-6);
ref = ring;
}
);
width = 564;
},
{
layerId = "924B7471-43FB-4CAD-AF7E-45215B64D997";
shapes = (
{
closed = 1;
nodes = (
(237,855,l),
(284,769,l),
(550,865,l),
(484,1011,l)
);
},
{
ref = a;
},
{
pos = (154,-5);
ref = ring;
}
);
width = 613;
}
);
unicode = 507;
},
{
glyphname = ae;
kernLeft = a;
kernRight = ae;
lastChange = "2024-09-05 12:38:03 +0000";
layers = (
{
anchors = (
{
name = top;
pos = (511,554);
}
);
layerId = "54A40BFF-1CE0-48F0-82EB-25AA62455493";
shapes = (
{
closed = 1;
nodes = (
(156,499,o),
(81,468,o),
(50,249,cs),
(23,59,o),
(60,-12,o),
(175,-12,cs),
(290,-12,o),
(382,67,o),
(430,157,c),
(413,197,l),
(331,109,o),
(266,62,o),
(192,62,cs),
(129,62,o),
(117,97,o),
(138,242,cs),
(161,402,o),
(186,428,o),
(318,428,cs),
(353,428,o),
(414,425,o),
(490,421,c),
(530,473,l),
(459,488,o),
(366,499,o),
(292,499,cs)
);
},
{
closed = 1;
nodes = (
(479,499,o),
(411,447,o),
(385,255,cs),
(360,72,o),
(415,-12,o),
(582,-12,cs),
(638,-12,o),
(729,-5,o),
(778,15,c),
(772,72,l),
(721,65,o),
(649,60,o),
(597,60,cs),
(495,60,o),
(448,91,o),
(473,254,cs),
(495,400,o),
(533,428,o),
(640,428,cs),
(720,428,o),
(759,424,o),
(747,350,cs),
(738,293,o),
(710,276,o),
(646,271,cs),
(419,249,l),
(409,185,l),
(647,207,ls),
(762,216,o),
(816,249,o),
(832,343,cs),
(848,445,o),
(804,499,o),
(651,499,cs)
);
}
);
width = 873.45882;
},
{
anchors = (
{
name = top;
pos = (514,558);
}
);
layerId = "E21536AE-9819-4FE7-8A20-8865FE3C0515";
shapes = (
{
closed = 1;
nodes = (
(147,492,o),
(98,443,o),
(67,242,cs),
(43,86,o),
(51,-12,o),
(170,-12,cs),
(247,-12,o),
(336,36,o),
(412,129,c),
(412,156,l),
(331,59,o),
(241,11,o),
(171,11,cs),
(77,11,o),
(68,86,o),
(91,238,cs),
(119,421,o),
(154,470,o),
(314,470,cs),
(383,470,o),
(423,461,o),
(505,452,c),
(525,470,l),
(451,483,o),
(385,492,o),
(312,492,cs)
);
},
{
closed = 1;
nodes = (
(510,492,o),
(437,451,o),
(406,244,cs),
(378,58,o),
(420,-12,o),
(578,-12,cs),
(632,-12,o),
(730,-4,o),
(767,6,c),
(764,24,l),
(722,18,o),
(646,10,o),
(588,10,cs),
(443,10,o),
(401,57,o),
(430,241,cs),
(461,441,o),
(519,470,o),
(661,470,cs),
(751,470,o),
(820,455,o),
(791,346,cs),
(774,281,o),
(744,264,o),
(657,253,cs),
(416,226,l),
(413,205,l),
(656,231,ls),
(755,242,o),
(796,265,o),
(815,344,cs),
(844,465,o),
(770,492,o),
(654,492,cs)
);
}
);
width = 872;
},
{
anchors = (
{
name = top;
pos = (525,547);
}
);
layerId = "924B7471-43FB-4CAD-AF7E-45215B64D997";
shapes = (
{
closed = 1;
nodes = (
(151,513,o),
(59,500,o),
(25,264,cs),
(0,90,o),
(26,-22,o),
(169,-12,cs),
(296,-3,o),
(379,75,o),
(410,221,c),
(376,277,l),
(353,213,o),
(295,152,o),
(260,149,cs),
(222,146,o),
(224,168,o),
(239,270,cs),
(253,366,o),
(277,377,o),
(326,377,cs),
(373,377,o),
(397,377,o),
(430,376,c),
(594,482,l),
(550,497,o),
(436,515,o),
(305,514,cs)
);
},
{
closed = 1;
nodes = (
(481,514,o),
(376,468,o),
(354,254,cs),
(337,83,o),
(393,-12,o),
(618,-12,cs),
(697,-12,o),
(781,-1,o),
(851,32,c),
(838,160,l),
(778,153,o),
(675,149,o),
(637,149,cs),
(562,149,o),
(552,162,o),
(568,261,cs),
(584,357,o),
(595,378,o),
(657,379,cs),
(695,380,o),
(702,371,o),
(700,349,cs),
(697,311,o),
(674,307,o),
(634,303,cs),
(442,283,l),
(429,184,l),
(690,204,ls),
(822,214,o),
(887,238,o),
(900,328,cs),
(918,449,o),
(859,514,o),
(655,514,cs)
);
}
);
width = 916;
}
);
unicode = 230;
},
{
glyphname = b;
kernLeft = b;
kernRight = b;
lastChange = "2024-09-05 12:38:03 +0000";
layers = (
{
layerId = "54A40BFF-1CE0-48F0-82EB-25AA62455493";
shapes = (
{
closed = 1;
nodes = (
(289,499,o),
(177,406,o),
(123,333,c),
(140,295,l),
(229,379,o),
(309,425,o),
(360,425,cs),
(427,425,o),
(442,394,o),
(421,244,cs),
(399,83,o),
(374,58,o),
(244,58,cs),
(213,58,o),
(149,60,o),
(77,67,c),
(37,23,l),
(106,2,o),
(200,-13,o),
(275,-13,cs),
(402,-13,o),
(477,17,o),
(508,238,cs),
(536,444,o),
(491,499,o),
(380,499,cs)
);
},
{
closed = 1;
nodes = (
(132,700,l),
(37,23,l),
(121,19,l),
(169,365,l),
(162,377,l),
(175,417,o),
(182,452,o),
(189,498,cs),
(216,700,l)
);
}
);
width = 572.67059;
},
{
background = {
shapes = (
{
closed = 1;
nodes = (
(303,492,o),
(220,441,o),
(126,362,c),
(125,339,l),
(230,424,o),
(303,469,o),
(374,469,cs),
(447,469,o),
(478,437,o),
(467,359,cs),
(416,0,l),
(440,0,l),
(491,360,ls),
(503,446,o),
(464,492,o),
(378,492,cs)
);
},
{
closed = 1;
nodes = (
(124,480,l),
(56,0,l),
(80,0,l),
(128,342,l),
(127,360,l),
(142,480,l)
);
}
);
};
layerId = "E21536AE-9819-4FE7-8A20-8865FE3C0515";
shapes = (
{
closed = 1;
nodes = (
(290,492,o),
(216,450,o),
(118,363,c),
(120,342,l),
(223,426,o),
(289,469,o),
(354,469,cs),
(459,469,o),
(478,410,o),
(455,242,cs),
(430,60,o),
(396,11,o),
(248,11,cs),
(195,11,o),
(142,17,o),
(74,37,c),
(53,19,l),
(122,0,o),
(174,-12,o),
(252,-12,cs),
(400,-12,o),
(451,30,o),
(480,238,cs),
(507,429,o),
(469,492,o),
(358,492,cs)
);
},
{
closed = 1;
nodes = (
(148,700,l),
(52,19,l),
(76,19,l),
(122,349,l),
(119,362,l),
(128,408,o),
(134,443,o),
(142,499,cs),
(172,700,l)
);
}
);
width = 561;
},
{
background = {
shapes = (
{
closed = 1;
nodes = (
(320,512,o),
(232,407,o),
(208,367,c),
(245,287,l),
(263,321,o),
(304,351,o),
(334,351,cs),
(361,351,o),
(365,327,o),
(352,230,cs),
(339,134,o),
(332,113,o),
(274,113,cs),
(207,113,o),
(179,113,o),
(137,113,c),
(119,35,l),
(162,-2,o),
(283,-14,o),
(343,-14,cs),
(457,-14,o),
(541,29,o),
(567,236,cs),
(590,417,o),
(543,512,o),
(434,512,cs)
);
}
);
};
layerId = "924B7471-43FB-4CAD-AF7E-45215B64D997";
shapes = (
{
closed = 1;
nodes = (
(333,514,o),
(252,449,o),
(202,367,c),
(229,300,l),
(268,327,o),
(300,351,o),
(345,351,cs),
(377,351,o),
(381,334,o),
(370,263,cs),
(354,158,o),
(332,132,o),
(280,129,cs),
(251,127,o),
(198,133,o),
(180,141,c),
(6,30,l),
(63,1,o),
(214,-12,o),
(290,-12,cs),
(509,-12,o),
(563,117,o),
(583,248,cs),
(610,427,o),
(562,514,o),
(439,514,cs)
);
},
{
closed = 1;
nodes = (
(100,700,l),
(6,30,l),
(216,20,l),
(275,422,l),
(257,430,l),
(280,482,o),
(290,528,o),
(295,577,cs),
(311,700,l)
);
}
);
width = 616;
}
);
unicode = 98;
},
{
glyphname = c;
kernLeft = c;
kernRight = c;
lastChange = "2024-09-05 12:38:03 +0000";
layers = (
{
anchors = (
{
name = bottom;
pos = (234,-12);
},
{
name = top;
pos = (300,554);
}
);
layerId = "54A40BFF-1CE0-48F0-82EB-25AA62455493";
shapes = (
{
closed = 1;
nodes = (
(142,499,o),
(73,433,o),
(46,247,cs),
(20,61,o),
(75,-12,o),
(246,-12,cs),
(300,-12,o),
(362,-4,o),
(413,12,c),
(407,70,l),
(357,62,o),
(293,60,o),
(261,60,cs),
(148,60,o),
(116,90,o),
(135,240,cs),
(154,393,o),
(203,427,o),
(322,427,cs),
(353,427,o),
(407,426,o),
(450,422,c),
(464,475,l),
(419,493,o),
(354,499,o),
(308,499,cs)
);
}
);
width = 484.48235;
},
{
anchors = (
{
name = bottom;
pos = (243,-12);
},
{
name = top;
pos = (301,558);
}
);
guides = (
{
angle = 290;
pos = (306,195);
},
{
angle = 70;
pos = (300,271);
},
{
angle = 90;
pos = (376,224);
}
);
layerId = "E21536AE-9819-4FE7-8A20-8865FE3C0515";
shapes = (
{
closed = 1;
nodes = (
(155,492,o),
(87,426,o),
(61,242,cs),
(35,56,o),
(87,-12,o),
(248,-12,cs),
(295,-12,o),
(349,-5,o),
(394,5,c),
(391,23,l),
(345,14,o),
(279,11,o),
(250,11,cs),
(106,11,o),
(61,62,o),
(86,239,cs),
(111,416,o),
(172,469,o),
(318,469,cs),
(349,469,o),
(407,466,o),
(440,457,c),
(447,475,l),
(407,488,o),
(350,492,o),
(313,492,cs)
);
}
);
width = 475;
},
{
anchors = (
{
name = bottom;
pos = (237,-12);
},
{
name = top;
pos = (325,547);
}
);
layerId = "924B7471-43FB-4CAD-AF7E-45215B64D997";
shapes = (
{
closed = 1;
nodes = (
(115,514,o),
(46,438,o),
(21,259,cs),
(-6,64,o),
(89,-12,o),
(265,-12,cs),
(337,-12,o),
(420,-3,o),
(485,28,c),
(470,161,l),
(407,154,o),
(342,154,o),
(302,154,cs),
(242,154,o),
(228,170,o),
(240,253,cs),
(250,323,o),
(268,347,o),
(328,347,cs),
(370,347,o),
(429,347,o),
(504,347,c),
(532,475,l),
(469,502,o),
(380,514,o),
(303,514,cs)
);
}
);
width = 536;
}
);
unicode = 99;
},
{
glyphname = d;
kernLeft = d;
kernRight = H;
lastChange = "2024-09-05 13:40:31 +0000";
layers = (
{
anchors = (
{
name = bottom;
pos = (260,-13);
},
{
name = top;
pos = (637,531);
},
{
name = topright;
pos = (661,634);
}
);
layerId = "54A40BFF-1CE0-48F0-82EB-25AA62455493";
shapes = (
{
closed = 1;
nodes = (
(155,499,o),
(82,467,o),
(50,249,cs),
(23,54,o),
(69,-12,o),
(168,-12,cs),
(288,-12,o),
(387,87,o),
(435,156,c),
(418,197,l),
(326,106,o),
(263,62,o),
(192,62,cs),
(126,62,o),
(117,102,o),
(136,242,cs),
(159,406,o),
(186,429,o),
(317,429,cs),
(352,429,o),
(411,427,o),
(485,425,c),
(508,476,l),
(444,489,o),
(356,499,o),
(285,499,cs)
);
},
{
closed = 1;
nodes = (
(468,700,l),
(451,580,ls),
(446,543,o),
(443,513,o),
(443,478,c),
(434,462,l),
(387,117,l),
(395,110,l),
(388,0,l),
(455,0,l),
(553,700,l)
);
}
);
width = 572.21176;
},
{
anchors = (
{
name = bottom;
pos = (258,-12);
},
{
name = top;
pos = (611,554);
},
{
name = topright;
pos = (641,654);
}
);
background = {
shapes = (
{
closed = 1;
nodes = (
(122,480,l),
(71,120,ls),
(58,34,o),
(98,-12,o),
(184,-12,cs),
(255,-12,o),
(337,37,o),
(429,130,c),
(428,154,l),
(330,60,o),
(260,11,o),
(188,11,cs),
(115,11,o),
(84,45,o),
(95,121,cs),
(146,480,l)
);
},
{
closed = 1;
nodes = (
(472,480,l),
(425,147,l),
(426,131,l),
(410,0,l),
(428,0,l),
(496,480,l)
);
}
);
};
layerId = "E21536AE-9819-4FE7-8A20-8865FE3C0515";
shapes = (
{
closed = 1;
nodes = (
(146,492,o),
(97,443,o),
(68,242,cs),
(44,78,o),
(57,-12,o),
(171,-12,cs),
(254,-12,o),
(348,36,o),
(430,128,c),
(430,155,l),
(346,62,o),
(250,11,o),
(173,11,cs),
(79,11,o),
(70,87,o),
(92,238,cs),
(120,429,o),
(158,470,o),
(321,470,cs),
(372,470,o),
(414,466,o),
(486,462,c),
(496,480,l),
(433,487,o),
(374,492,o),
(319,492,cs)
);
},
{
closed = 1;
nodes = (
(503,700,l),
(485,574,ls),
(480,539,o),
(477,516,o),
(475,481,c),
(469,464,l),
(424,137,l),
(425,133,l),
(410,0,l),
(428,0,l),
(527,700,l)
);
}
);
width = 562;
},
{
anchors = (
{
name = bottom;
pos = (297,-12);
},
{
name = top;
pos = (743,508);
},
{
name = topright;
pos = (742,644);
}
);
background = {
shapes = (
{
closed = 1;
nodes = (
(75,500,l),
(23,130,ls),
(10,38,o),
(57,-14,o),
(156,-14,cs),
(232,-14,o),
(305,28,o),
(390,126,c),
(353,212,l),
(311,174,o),
(288,162,o),
(261,162,cs),
(249,162,o),
(239,167,o),
(242,189,cs),
(286,500,l)
);
},
{
closed = 1;
nodes = (
(378,500,l),
(328,146,l),
(347,134,l),
(353,0,l),
(517,0,l),
(587,500,l)
);
}
);
};
layerId = "924B7471-43FB-4CAD-AF7E-45215B64D997";
shapes = (
{
closed = 1;
nodes = (
(132,514,o),
(50,465,o),
(24,264,cs),
(1,80,o),
(51,-12,o),
(175,-12,cs),
(283,-12,o),
(373,89,o),
(406,126,c),
(368,212,l),
(340,190,o),
(306,165,o),
(264,162,cs),
(223,159,o),
(229,198,o),
(238,270,cs),
(251,371,o),
(268,387,o),
(327,387,cs),
(393,387,o),
(426,387,o),
(473,387,c),
(492,465,l),
(444,500,o),
(345,514,o),
(236,514,cs)
);
},
{
closed = 1;
nodes = (
(421,700,l),
(403,605,ls),
(397,567,o),
(396,533,o),
(396,500,c),
(387,484,l),
(341,145,l),
(360,134,l),
(366,0,l),
(532,0,l),
(631,700,l)
);
}
);
width = 617;
}
);
unicode = 100;
},
{
glyphname = dcroat;
kernLeft = d;
kernRight = H;
lastChange = "2024-09-05 12:38:03 +0000";
layers = (
{
layerId = "54A40BFF-1CE0-48F0-82EB-25AA62455493";
shapes = (
{
closed = 1;
nodes = (
(309,624,l),
(302,576,l),
(609,576,l),
(615,624,l)
);
},
{
ref = d;
}
);
userData = {
com.schriftgestaltung.componentsAlignment = (
-1
);
};
width = 572.21176;
},
{
layerId = "E21536AE-9819-4FE7-8A20-8865FE3C0515";
shapes = (
{
closed = 1;
nodes = (
(317,610,l),
(314,590,l),
(589,590,l),
(592,610,l)
);
},
{
ref = d;
}
);
width = 562;
},
{
layerId = "924B7471-43FB-4CAD-AF7E-45215B64D997";
shapes = (
{
closed = 1;
nodes = (
(314,631,l),
(302,547,l),
(673,547,l),
(685,631,l)
);
},
{
ref = d;
}
);
width = 622;
}
);
unicode = 273;
},
{
glyphname = eth;
kernLeft = eth;
kernRight = eth;
lastChange = "2024-09-05 12:38:03 +0000";
layers = (
{
layerId = "54A40BFF-1CE0-48F0-82EB-25AA62455493";
shapes = (
{
closed = 1;
nodes = (
(168,636,l),
(311,639,o),
(445,598,o),
(405,291,cs),
(385,132,o),
(346,59,o),
(234,59,cs),
(147,59,o),
(115,100,o),
(132,216,cs),
(146,318,o),
(185,377,o),
(287,377,cs),
(342,377,o),
(395,361,o),
(441,308,c),
(448,343,l),
(401,433,o),
(329,448,o),
(269,448,cs),
(126,448,o),
(62,362,o),
(44,222,cs),
(23,63,o),
(79,-13,o),
(230,-13,cs),
(410,-13,o),
(468,101,o),
(491,279,cs),
(535,618,o),
(368,704,o),
(181,698,c)
);
},
{
closed = 1;
nodes = (
(244,552,l),
(267,518,l),
(493,674,l),
(468,710,l)
);
}
);
width = 555.21176;
},
{
layerId = "E21536AE-9819-4FE7-8A20-8865FE3C0515";
shapes = (
{
closed = 1;
nodes = (
(170,680,l),
(272,680,o),
(492,653,o),
(441,288,cs),
(418,123,o),
(380,10,o),
(227,10,cs),
(111,10,o),
(62,66,o),
(83,218,cs),
(99,336,o),
(149,424,o),
(279,424,cs),
(341,424,o),
(414,411,o),
(459,323,c),
(466,338,l),
(421,432,o),
(341,446,o),
(283,446,cs),
(141,446,o),
(78,359,o),
(59,223,cs),
(35,58,o),
(91,-12,o),
(228,-12,cs),
(409,-12,o),
(442,129,o),
(463,277,cs),
(516,654,o),
(302,700,o),
(176,698,c)
);
},
{
closed = 1;
nodes = (
(260,566,l),
(268,549,l),
(478,681,l),
(469,698,l)
);
}
);
width = 545;
},
{
layerId = "924B7471-43FB-4CAD-AF7E-45215B64D997";
shapes = (
{
closed = 1;
nodes = (
(175,568,l),
(380,583,o),
(384,505,o),
(355,298,cs),
(337,170,o),
(327,130,o),
(276,130,cs),
(229,130,o),
(227,150,o),
(238,220,cs),
(249,290,o),
(263,321,o),
(315,321,cs),
(363,321,o),
(404,291,o),
(428,244,c),
(438,322,l),
(413,439,o),
(320,453,o),
(257,453,cs),
(121,453,o),
(40,388,o),
(18,222,cs),
(-4,58,o),
(95,-14,o),
(261,-14,cs),
(448,-14,o),
(545,58,o),
(573,283,cs),
(610,584,o),
(498,717,o),
(198,698,c)
);
},
{
closed = 1;
nodes = (
(224,524,l),
(272,463,l),
(536,673,l),
(488,734,l)
);
}
);
width = 604;
}
);
unicode = 240;
},
{
glyphname = e;
kernLeft = c;
kernRight = ae;
lastChange = "2024-09-05 12:38:03 +0000";
layers = (
{
anchors = (
{
name = bottom;
pos = (246,-13);
},
{
name = ogonek;
pos = (442,16);
},
{
name = top;
pos = (318,554);
}
);
layerId = "54A40BFF-1CE0-48F0-82EB-25AA62455493";
shapes = (
{
closed = 1;
nodes = (
(143,499,o),
(75,447,o),
(48,255,cs),
(23,72,o),
(78,-12,o),
(246,-12,cs),
(303,-12,o),
(394,-5,o),
(445,15,c),
(439,72,l),
(385,65,o),
(314,60,o),
(260,60,cs),
(158,60,o),
(112,91,o),
(136,254,cs),
(159,400,o),
(196,428,o),
(303,428,cs),
(383,428,o),
(423,424,o),
(411,350,cs),
(401,293,o),
(374,276,o),
(309,271,cs),
(82,249,l),
(73,185,l),
(310,207,ls),
(425,216,o),
(479,249,o),
(495,343,cs),
(512,445,o),
(467,499,o),
(314,499,cs)
);
}
);
width = 536.94118;
},
{
anchors = (
{
name = bottom;
pos = (243,-12);
},
{
name = ogonek;
pos = (419,8);
},
{
name = top;
pos = (315,558);
}
);
layerId = "E21536AE-9819-4FE7-8A20-8865FE3C0515";
shapes = (
{
closed = 1;
nodes = (
(166,492,o),
(93,451,o),
(62,244,cs),
(34,58,o),
(76,-12,o),
(234,-12,cs),
(288,-12,o),
(386,-4,o),
(423,6,c),
(420,24,l),
(378,18,o),
(302,10,o),
(244,10,cs),
(99,10,o),
(57,57,o),
(86,241,cs),
(117,441,o),
(175,470,o),
(317,470,cs),
(407,470,o),
(476,455,o),
(447,346,cs),
(430,281,o),
(400,264,o),
(313,253,cs),
(72,226,l),
(69,205,l),
(312,231,ls),
(411,242,o),
(452,265,o),
(471,344,cs),
(500,465,o),
(426,492,o),
(310,492,cs)
);
}
);
width = 526;
},
{
associatedMasterId = "E21536AE-9819-4FE7-8A20-8865FE3C0515";
layerId = "A00F4962-11FC-4F80-98F4-19EF99D7D3E6";
name = "Light Apr 26 13, 16:54";
shapes = (
{
closed = 1;
nodes = (
(169,11,o),
(88,37,o),
(88,243,cs),
(88,410,o),
(141,469,o),
(268,469,cs),
(384,469,o),
(436,419,o),
(438,287,cs),
(438,269,o),
(430,262,o),
(415,262,cs),
(77,262,l),
(77,240,l),
(415,240,ls),
(447,240,o),
(463,256,o),
(463,287,cs),
(462,437,o),
(395,492,o),
(268,492,cs),
(120,492,o),
(63,420,o),
(63,242,cs),
(63,58,o),
(125,-12,o),
(277,-12,cs),
(329,-12,o),
(415,-4,o),
(448,6,c),
(444,24,l),
(407,18,o),
(360,11,o),
(295,11,cs)
);
}
);
width = 546;
},
{
anchors = (
{
name = bottom;
pos = (278,-12);
},
{
name = ogonek;
pos = (525,33);
},
{
name = top;
pos = (346,547);
}
);
layerId = "924B7471-43FB-4CAD-AF7E-45215B64D997";
shapes = (
{
closed = 1;
nodes = (
(148,514,o),
(43,468,o),
(21,254,cs),
(4,83,o),
(61,-12,o),
(289,-12,cs),
(368,-12,o),
(455,-1,o),
(526,32,c),
(512,160,l),
(451,153,o),
(348,149,o),
(307,149,cs),
(238,149,o),
(226,162,o),
(242,261,cs),
(258,357,o),
(271,378,o),
(328,379,cs),
(369,380,o),
(376,371,o),
(374,349,cs),
(370,311,o),
(347,307,o),
(306,303,cs),
(108,283,l),
(95,184,l),
(361,204,ls),
(496,214,o),
(561,238,o),
(574,328,cs),
(592,449,o),
(533,514,o),
(326,514,cs)
);
}
);
width = 590;
}
);
unicode = 101;
},
{
glyphname = schwa;
kernLeft = schwa;
kernRight = schwa;
lastChange = "2024-09-05 12:38:03 +0000";
layers = (
{
layerId = "54A40BFF-1CE0-48F0-82EB-25AA62455493";
shapes = (
{
closed = 1;
nodes = (
(394,-12,o),
(462,40,o),
(489,232,cs),
(514,415,o),
(459,499,o),
(291,499,cs),
(234,499,o),
(143,492,o),
(92,473,c),
(98,415,l),
(152,422,o),
(223,428,o),
(277,428,cs),
(379,428,o),
(425,396,o),
(401,233,cs),
(378,87,o),
(341,60,o),
(234,60,cs),
(154,60,o),
(114,63,o),
(126,137,cs),
(136,195,o),
(163,212,o),
(228,217,cs),
(455,239,l),
(464,302,l),
(227,280,ls),
(112,272,o),
(58,238,o),
(42,144,cs),
(25,43,o),
(70,-12,o),
(223,-12,cs)
);
}
);
width = 536.94118;
},
{
layerId = "E21536AE-9819-4FE7-8A20-8865FE3C0515";
shapes = (
{
closed = 1;
nodes = (
(360,-12,o),
(433,29,o),
(464,236,cs),
(492,422,o),
(450,492,o),
(292,492,cs),
(238,492,o),
(140,484,o),
(103,474,c),
(106,456,l),
(148,462,o),
(224,470,o),
(282,470,cs),
(427,470,o),
(469,423,o),
(440,239,cs),
(409,39,o),
(351,10,o),
(209,10,cs),
(119,10,o),
(50,25,o),
(79,134,cs),
(96,199,o),
(126,216,o),
(213,227,cs),
(454,254,l),
(457,275,l),
(214,249,ls),
(115,238,o),
(74,215,o),
(55,136,cs),
(26,15,o),
(100,-12,o),
(216,-12,cs)
);
}
);
width = 526;
},
{
layerId = "924B7471-43FB-4CAD-AF7E-45215B64D997";
shapes = (
{
closed = 1;
nodes = (
(442,-12,o),
(547,34,o),
(569,248,cs),
(586,419,o),
(529,514,o),
(301,514,cs),
(222,514,o),
(135,503,o),
(64,470,c),
(78,342,l),
(139,349,o),
(242,353,o),
(283,353,cs),
(352,353,o),
(364,340,o),
(348,241,cs),
(332,145,o),
(319,124,o),
(262,123,cs),
(221,122,o),
(214,131,o),
(216,153,cs),
(220,191,o),
(243,195,o),
(284,199,cs),
(482,219,l),
(495,318,l),
(229,298,ls),
(94,288,o),
(29,264,o),
(16,174,cs),
(-2,53,o),
(57,-12,o),
(264,-12,cs)
);
}
);
width = 590;
}
);
unicode = 601;
},
{
glyphname = f;
kernLeft = f;
kernRight = f;
lastChange = "2024-09-05 12:38:03 +0000";
layers = (
{
layerId = "54A40BFF-1CE0-48F0-82EB-25AA62455493";
shapes = (
{
closed = 1;
nodes = (
(217,717,o),
(167,666,o),
(154,576,cs),
(67,-47,ls),
(57,-114,o),
(31,-130,o),
(-31,-130,cs),
(-107,-130,l),
(-120,-194,l),
(-74,-199,o),
(-34,-201,o),
(-4,-201,cs),
(89,-201,o),
(138,-150,o),
(150,-60,cs),
(238,563,ls),
(248,630,o),
(275,647,o),
(339,647,cs),
(437,647,l),
(450,710,l),
(412,715,o),
(346,717,o),
(312,717,cs)
);
},
{
closed = 1;
nodes = (
(146,487,l),
(53,482,l),
(45,420,l),
(373,420,l),
(383,487,l)
);
}
);
width = 377.25882;
},
{
layerId = "E21536AE-9819-4FE7-8A20-8865FE3C0515";
shapes = (
{
closed = 1;
nodes = (
(212,714,o),
(173,670,o),
(161,582,cs),
(68,-76,ls),
(57,-158,o),
(26,-188,o),
(-48,-188,cs),
(-127,-188,l),
(-128,-206,l),
(-103,-209,o),
(-62,-210,o),
(-40,-210,cs),
(45,-210,o),
(80,-167,o),
(92,-78,cs),
(185,580,ls),
(196,662,o),
(231,692,o),
(311,692,cs),
(420,692,l),
(421,710,l),
(387,713,o),
(332,714,o),
(303,714,cs)
);
},
{
closed = 1;
nodes = (
(153,480,l),
(59,475,l),
(56,458,l),
(345,458,l),
(349,480,l)
);
}
);
width = 351;
},
{
layerId = "924B7471-43FB-4CAD-AF7E-45215B64D997";
shapes = (
{
closed = 1;
nodes = (
(195,724,o),
(145,659,o),
(131,565,cs),
(50,5,ls),
(43,-37,o),
(28,-51,o),
(-14,-51,cs),
(-63,-51,l),
(-95,-176,l),
(-25,-186,o),
(21,-191,o),
(60,-191,cs),
(186,-191,o),
(236,-126,o),
(250,-32,cs),
(333,528,ls),
(339,570,o),
(354,584,o),
(394,584,cs),
(474,584,l),
(506,709,l),
(457,719,o),
(366,724,o),
(321,724,cs)
);
},
{
closed = 1;
nodes = (
(123,500,l),
(37,495,l),
(22,374,l),
(429,374,l),
(446,500,l)
);
}
);
width = 423;
}
);
unicode = 102;
},
{
glyphname = g;
kernLeft = a;
kernRight = g;
lastChange = "2024-09-05 12:38:03 +0000";
layers = (
{
anchors = (
{
name = top;
pos = (334,554);
}
);
layerId = "54A40BFF-1CE0-48F0-82EB-25AA62455493";
shapes = (
{
closed = 1;
nodes = (
(389,128,l),
(412,118,l),
(389,82,o),
(382,39,o),
(372,-8,cs),
(354,-103,o),
(277,-136,o),
(182,-139,cs),
(107,-141,o),
(66,-140,o),
(24,-138,c),
(15,-195,l),
(68,-210,o),
(155,-212,o),
(181,-211,cs),
(360,-207,o),
(442,-123,o),
(458,9,cs),
(526,476,l),
(440,476,l)
);
},
{
closed = 1;
nodes = (
(158,499,o),
(84,469,o),
(52,249,cs),
(22,48,o),
(72,-12,o),
(176,-12,cs),
(289,-12,o),
(387,68,o),
(438,158,c),
(420,197,l),
(336,109,o),
(268,62,o),
(196,62,cs),
(129,62,o),
(116,97,o),
(138,242,cs),
(161,404,o),
(188,428,o),
(318,428,cs),
(353,428,o),
(412,426,o),
(486,423,c),
(524,476,l),
(455,489,o),
(361,499,o),
(286,499,cs)
);
}
);
width = 574.83529;
},
{
anchors = (
{
name = top;
pos = (339,558);
}
);
layerId = "E21536AE-9819-4FE7-8A20-8865FE3C0515";
shapes = (
{
closed = 1;
nodes = (
(429,146,l),
(435,138,l),
(427,116,o),
(418,70,o),
(406,-4,cs),
(386,-127,o),
(322,-186,o),
(204,-198,cs),
(146,-204,o),
(83,-203,o),
(25,-200,c),
(22,-218,l),
(77,-224,o),
(169,-224,o),
(212,-220,cs),
(339,-208,o),
(410,-132,o),
(430,-6,cs),
(506,480,l),
(481,480,l)
);
},
{
closed = 1;
nodes = (
(146,492,o),
(102,442,o),
(70,242,cs),
(42,68,o),
(60,-12,o),
(182,-12,cs),
(245,-12,o),
(350,33,o),
(437,133,c),
(432,155,l),
(349,62,o),
(247,11,o),
(182,11,cs),
(81,11,o),
(69,79,o),
(94,238,cs),
(124,429,o),
(160,470,o),
(322,470,cs),
(374,470,o),
(416,466,o),
(488,462,c),
(498,480,l),
(435,487,o),
(377,492,o),
(319,492,cs)
);
}
);
width = 569;
},
{
associatedMasterId = "E21536AE-9819-4FE7-8A20-8865FE3C0515";
layerId = "5D2BFBDB-1CBC-4213-A615-016AE8BA2BAD";
name = "Light Apr 26 13, 18:43";
shapes = (
{
closed = 1;
nodes = (
(147,492,o),
(93,422,o),
(93,240,cs),
(93,58,o),
(141,-12,o),
(267,-12,cs),
(333,-12,o),
(397,7,o),
(468,38,c),
(468,61,l),
(386,28,o),
(331,11,o),
(267,11,cs),
(160,11,o),
(118,72,o),
(118,240,cs),
(118,408,o),
(166,469,o),
(287,469,cs),
(345,469,o),
(398,462,o),
(468,443,c),
(489,461,l),
(418,480,o),
(354,492,o),
(287,492,cs)
);
},
{
closed = 1;
nodes = (
(465,54,l),
(468,38,l),
(464,7,o),
(463,-16,o),
(463,-55,cs),
(463,-176,o),
(357,-199,o),
(289,-199,cs),
(231,-199,o),
(168,-187,o),
(118,-175,c),
(115,-193,l),
(165,-209,o),
(239,-222,o),
(289,-222,cs),
(356,-222,o),
(489,-208,o),
(489,-53,cs),
(489,461,l),
(465,461,l)
);
}
);
width = 600;
},
{
associatedMasterId = "E21536AE-9819-4FE7-8A20-8865FE3C0515";
layerId = "CCCCB466-0FCB-4EDF-86DF-B32B5911D27A";
name = "Light Apr 26 13, 19:05";
shapes = (
{
closed = 1;
nodes = (
(435,186,o),
(490,237,o),
(490,339,cs),
(490,441,o),
(435,492,o),
(294,492,cs),
(153,492,o),
(98,441,o),
(98,339,cs),
(98,237,o),
(153,186,o),
(294,186,cs)
);
},
{
closed = 1;
nodes = (
(168,208,o),
(122,251,o),
(122,339,cs),
(122,427,o),
(168,470,o),
(294,470,cs),
(420,470,o),
(466,427,o),
(466,339,cs),
(466,251,o),
(420,208,o),
(294,208,cs)
);
},
{
closed = 1;
nodes = (
(178,70,o),
(77,36,o),
(77,-66,cs),
(77,-173,o),
(136,-212,o),
(300,-212,cs),
(466,-212,o),
(524,-172,o),
(524,-69,cs),
(524,15,o),
(486,45,o),
(402,62,cs),
(209,106,ls),
(149,120,o),
(144,176,o),
(185,220,c),
(167,222,l),
(118,181,o),
(128,103,o),
(196,87,cs),
(392,42,ls),
(462,28,o),
(500,9,o),
(500,-69,cs),
(500,-159,o),
(449,-189,o),
(304,-189,cs),
(154,-189,o),
(101,-157,o),
(101,-64,cs),
(101,20,o),
(190,50,o),
(251,81,c),
(246,91,l)
);
},
{
closed = 1;
nodes = (
(416,458,l),
(527,462,l),
(527,480,l),
(381,480,l)
);
}
);
width = 600;
},
{
associatedMasterId = "E21536AE-9819-4FE7-8A20-8865FE3C0515";
layerId = "A85FD6EB-EB6B-4838-A7FD-4740482799EB";
name = "Light Apr 26 13, 19:23";
shapes = (
{
closed = 1;
nodes = (
(418,196,o),
(471,244,o),
(471,343,cs),
(471,441,o),
(419,492,o),
(281,492,cs),
(143,492,o),
(89,441,o),
(89,343,cs),
(89,244,o),
(144,196,o),
(281,196,cs)
);
},
{
closed = 1;
nodes = (
(159,218,o),
(113,258,o),
(113,343,cs),
(113,427,o),
(158,470,o),
(281,470,cs),
(404,470,o),
(447,427,o),
(447,343,cs),
(447,258,o),
(403,218,o),
(281,218,cs)
);
},
{
closed = 1;
nodes = (
(154,62,ls),
(103,26,o),
(69,-5,o),
(69,-74,cs),
(69,-176,o),
(127,-212,o),
(286,-212,cs),
(438,-212,o),
(497,-176,o),
(497,-74,cs),
(497,14,o),
(474,42,o),
(383,63,cs),
(190,107,ls),
(125,122,o),
(131,183,o),
(168,227,c),
(150,229,l),
(104,191,o),
(104,104,o),
(177,87,cs),
(373,42,ls),
(453,25,o),
(473,2,o),
(473,-74,cs),
(473,-159,o),
(421,-189,o),
(286,-189,cs),
(145,-189,o),
(93,-159,o),
(93,-74,cs),
(93,-11,o),
(122,19,o),
(170,47,cs),
(235,87,l),
(210,94,l)
);
},
{
closed = 1;
nodes = (
(407,458,l),
(518,462,l),
(518,480,l),
(372,480,l)
);
}
);
width = 565;
},
{
anchors = (
{
name = top;
pos = (365,553);
}
);
layerId = "924B7471-43FB-4CAD-AF7E-45215B64D997";
shapes = (
{
closed = 1;
nodes = (
(343,125,l),
(376,113,l),
(358,79,o),
(359,43,o),
(336,8,cs),
(304,-42,o),
(236,-56,o),
(141,-56,cs),
(66,-56,o),
(45,-56,o),
(15,-56,c),
(5,-169,l),
(74,-201,o),
(188,-204,o),
(228,-204,cs),
(369,-204,o),
(513,-172,o),
(547,90,cs),
(602,482,l),
(397,500,l)
);
},
{
closed = 1;
nodes = (
(154,514,o),
(63,501,o),
(26,264,cs),
(0,99,o),
(28,-9,o),
(173,-2,cs),
(296,4,o),
(388,80,o),
(419,221,c),
(385,277,l),
(356,210,o),
(305,157,o),
(263,149,cs),
(228,142,o),
(222,168,o),
(240,270,cs),
(254,352,o),
(265,377,o),
(331,377,cs),
(378,377,o),
(405,377,o),
(440,376,c),
(602,482,l),
(555,496,o),
(433,514,o),
(299,514,cs)
);
}
);
width = 618;
}
);
unicode = 103;
},
{
glyphname = h;
kernLeft = b;
kernRight = h;
lastChange = "2024-09-05 12:38:03 +0000";
layers = (
{
anchors = (
{
name = bottom;
pos = (245,0);
},
{
name = center;
pos = (276,240);
},
{
name = top;
pos = (178,720);
}
);
layerId = "54A40BFF-1CE0-48F0-82EB-25AA62455493";
shapes = (
{
closed = 1;
nodes = (
(325,499,o),
(250,456,o),
(158,374,c),
(157,311,l),
(249,384,o),
(310,427,o),
(374,427,cs),
(420,427,o),
(435,407,o),
(427,343,cs),
(378,0,l),
(463,0,l),
(515,364,ls),
(527,453,o),
(481,499,o),
(400,499,cs)
);
},
{
closed = 1;
nodes = (
(134,700,l),
(35,0,l),
(120,0,l),
(168,346,l),
(162,360,l),
(173,391,o),
(185,451,o),
(192,504,cs),
(219,700,l)
);
}
);
width = 577.94118;
},
{
anchors = (
{
name = bottom;
pos = (241,0);
},
{
name = center;
pos = (276,240);
},
{
name = top;
pos = (165,720);
}
);
background = {
shapes = (
{
closed = 1;
nodes = (
(287,492,o),
(226,461,o),
(128,374,c),
(130,353,l),
(233,437,o),
(286,469,o),
(361,469,cs),
(466,469,o),
(485,410,o),
(462,242,cs),
(437,60,o),
(403,11,o),
(255,11,cs),
(202,11,o),
(149,17,o),
(81,37,c),
(60,19,l),
(129,0,o),
(181,-12,o),
(259,-12,cs),
(407,-12,o),
(458,30,o),
(487,238,cs),
(514,429,o),
(476,492,o),
(365,492,cs)
);
},
{
closed = 1;
nodes = (
(155,700,l),
(59,19,l),
(83,19,l),
(132,360,l),
(129,373,l),
(138,419,o),
(144,454,o),
(152,510,cs),
(179,700,l)
);
}
);
};
layerId = "E21536AE-9819-4FE7-8A20-8865FE3C0515";
shapes = (
{
closed = 1;
nodes = (
(299,492,o),
(216,441,o),
(122,362,c),
(121,336,l),
(226,424,o),
(299,469,o),
(370,469,cs),
(443,469,o),
(474,437,o),
(463,359,cs),
(412,0,l),
(436,0,l),
(487,360,ls),
(499,446,o),
(460,492,o),
(374,492,cs)
);
},
{
closed = 1;
nodes = (
(151,700,l),
(52,0,l),
(76,0,l),
(125,343,l),
(123,360,l),
(131,397,o),
(140,446,o),
(145,484,cs),
(175,700,l)
);
}
);
width = 567;
},
{
anchors = (
{
name = bottom;
pos = (269,-5);
},
{
name = center;
pos = (276,240);
},
{
name = top;
pos = (208,720);
}
);
background = {
shapes = (
{
closed = 1;
nodes = (
(366,514,o),
(269,459,o),
(208,374,c),
(245,287,l),
(285,325,o),
(311,335,o),
(330,337,cs),
(355,340,o),
(359,329,o),
(355,302,cs),
(312,0,l),
(523,0,l),
(575,370,ls),
(590,466,o),
(530,514,o),
(451,514,cs)
);
},
{
closed = 1;
nodes = (
(75,500,l),
(5,0,l),
(216,0,l),
(265,354,l),
(246,366,l),
(239,500,l)
);
}
);
};
layerId = "924B7471-43FB-4CAD-AF7E-45215B64D997";
shapes = (
{
closed = 1;
nodes = (
(380,514,o),
(293,471,o),
(207,374,c),
(242,287,l),
(293,327,o),
(320,337,o),
(352,337,cs),
(371,337,o),
(375,333,o),
(371,311,cs),
(327,0,l),
(537,0,l),
(589,370,l),
(602,462,o),
(553,514,o),
(451,514,cs)
);
},
{
closed = 1;
nodes = (
(101,700,l),
(3,0,l),
(213,0,l),
(262,356,l),
(237,365,l),
(254,404,o),
(280,475,o),
(290,547,cs),
(311,700,l)
);
}
);
width = 619;
}
);
unicode = 104;
},
{
glyphname = hbar;
kernLeft = b;
kernRight = h;
lastChange = "2024-09-05 12:38:03 +0000";
layers = (
{
layerId = "54A40BFF-1CE0-48F0-82EB-25AA62455493";
shapes = (
{
closed = 1;
nodes = (
(52,624,l),
(45,576,l),
(351,576,l),
(358,624,l)
);
},
{
ref = h;
}
);
userData = {
com.schriftgestaltung.componentsAlignment = (
-1
);
};
width = 577.94118;
},
{
layerId = "E21536AE-9819-4FE7-8A20-8865FE3C0515";
shapes = (
{
closed = 1;
nodes = (
(57,610,l),
(54,590,l),
(329,590,l),
(332,610,l)
);
},
{
ref = h;
}
);
width = 567;
},
{
layerId = "924B7471-43FB-4CAD-AF7E-45215B64D997";
shapes = (
{
closed = 1;
nodes = (
(38,631,l),
(26,547,l),
(397,547,l),
(409,631,l)
);
},
{
pos = (-4,0);
ref = h;
}
);
width = 615;
}
);
unicode = 295;
},
{
glyphname = i;
kernLeft = i;
kernRight = i;
lastChange = "2024-09-05 12:38:03 +0000";
layers = (
{
anchors = (
{
name = bottom;
pos = (81,0);
},
{
name = ogonek;
pos = (118,0);
},
{
name = top;
pos = (161,554);
}
);
layerId = "54A40BFF-1CE0-48F0-82EB-25AA62455493";
shapes = (
{
closed = 1;
nodes = (
(108,487,l),
(40,0,l),
(124,0,l),
(192,487,l)
);
},
{
closed = 1;
nodes = (
(157,694,ls),
(140,694,o),
(132,685,o),
(130,669,cs),
(122,613,ls),
(120,595,o),
(129,585,o),
(147,585,cs),
(186,585,ls),
(204,585,o),
(211,592,o),
(214,609,cs),
(221,666,ls),
(224,682,o),
(215,694,o),
(197,694,cs)
);
}
);
width = 245.71765;
},
{
anchors = (
{
name = bottom;
pos = (67,0);
},
{
name = ogonek;
pos = (80,0);
},
{
name = top;
pos = (146,558);
}
);
layerId = "E21536AE-9819-4FE7-8A20-8865FE3C0515";
shapes = (
{
closed = 1;
nodes = (
(124,480,l),
(56,0,l),
(80,0,l),
(148,480,l)
);
},
{
closed = 1;
nodes = (
(158,679,ls),
(150,679,o),
(146,676,o),
(145,668,cs),
(136,606,ls),
(135,598,o),
(140,593,o),
(148,593,cs),
(158,593,ls),
(166,593,o),
(169,596,o),
(170,604,cs),
(179,666,ls),
(180,674,o),
(176,679,o),
(168,679,cs)
);
}
);
width = 218;
},
{
anchors = (
{
name = bottom;
pos = (110,-5);
},
{
name = ogonek;
pos = (198,0);
},
{
name = top;
pos = (183,547);
}
);
layerId = "924B7471-43FB-4CAD-AF7E-45215B64D997";
shapes = (
{
closed = 1;
nodes = (
(76,500,l),
(7,0,l),
(216,0,l),
(285,500,l)
);
},
{
closed = 1;
nodes = (
(169,729,ls),
(126,729,o),
(104,711,o),
(100,671,cs),
(93,620,ls),
(88,575,o),
(107,554,o),
(152,554,cs),
(234,554,ls),
(277,554,o),
(298,572,o),
(303,612,cs),
(310,663,ls),
(315,708,o),
(295,729,o),
(250,729,cs)
);
}
);
width = 304;
}
);
unicode = 105;
},
{
glyphname = idotless;
kernLeft = i;
kernRight = i;
lastChange = "2024-09-05 12:38:03 +0000";
layers = (
{
anchors = (
{
name = bottom;
pos = (81,0);
},
{
name = ogonek;
pos = (118,0);
},
{
name = top;
pos = (161,554);
}
);
layerId = "54A40BFF-1CE0-48F0-82EB-25AA62455493";
shapes = (
{
closed = 1;
nodes = (
(108,487,l),
(39,0,l),
(124,0,l),
(193,487,l)
);
}
);
width = 246.44706;
},
{
anchors = (
{
name = bottom;
pos = (68,0);
},
{
name = ogonek;
pos = (80,0);
},
{
name = top;
pos = (146,558);
}
);
layerId = "E21536AE-9819-4FE7-8A20-8865FE3C0515";
shapes = (
{
closed = 1;
nodes = (
(124,480,l),
(56,0,l),
(80,0,l),
(148,480,l)
);
}
);
width = 218;
},
{
anchors = (
{
name = bottom;
pos = (110,-5);
},
{
name = ogonek;
pos = (198,0);
},
{
name = top;
pos = (188,547);
}
);
layerId = "924B7471-43FB-4CAD-AF7E-45215B64D997";
shapes = (
{
closed = 1;
nodes = (
(77,500,l),
(7,0,l),
(218,0,l),
(288,500,l)
);
}
);
width = 306;
}
);
unicode = 305;
},
{
glyphname = j;
kernLeft = i;
kernRight = i;
lastChange = "2024-09-05 12:38:03 +0000";
layers = (
{
layerId = "54A40BFF-1CE0-48F0-82EB-25AA62455493";
shapes = (
{
closed = 1;
nodes = (
(108,487,l),
(38,-10,ls),
(29,-73,o),
(4,-118,o),
(-41,-165,c),
(5,-204,l),
(67,-161,o),
(112,-92,o),
(122,-14,cs),
(192,487,l)
);
},
{
closed = 1;
nodes = (
(157,694,l),
(140,694,o),
(132,685,o),
(130,669,cs),
(122,613,l),
(120,595,o),
(129,585,o),
(147,585,cs),
(186,585,l),
(204,585,o),
(211,592,o),
(214,609,cs),
(221,666,l),
(224,682,o),
(215,694,o),
(197,694,cs)
);
}
);
width = 245.98824;
},
{
layerId = "E21536AE-9819-4FE7-8A20-8865FE3C0515";
shapes = (
{
closed = 1;
nodes = (
(124,480,l),
(50,-45,ls),
(41,-110,o),
(13,-155,o),
(-27,-200,c),
(-15,-210,l),
(31,-165,o),
(65,-112,o),
(74,-47,cs),
(148,480,l)
);
},
{
closed = 1;
nodes = (
(158,679,l),
(150,679,o),
(146,676,o),
(145,668,cs),
(136,606,l),
(135,598,o),
(140,593,o),
(148,593,cs),
(158,593,l),
(166,593,o),
(169,596,o),
(170,604,cs),
(179,666,l),
(180,674,o),
(176,679,o),
(168,679,cs)
);
}
);
width = 219;
},
{
layerId = "924B7471-43FB-4CAD-AF7E-45215B64D997";
shapes = (
{
closed = 1;
nodes = (
(79,500,l),
(16,62,ls),
(8,5,o),
(-16,-42,o),
(-73,-95,c),
(42,-192,l),
(144,-151,o),
(211,-50,o),
(224,54,cs),
(289,500,l)
);
},
{
closed = 1;
nodes = (
(171,729,ls),
(127,729,o),
(104,711,o),
(99,671,cs),
(92,620,ls),
(87,575,o),
(106,554,o),
(152,554,cs),
(231,554,ls),
(274,554,o),
(297,572,o),
(302,612,cs),
(309,663,ls),
(315,708,o),
(296,729,o),
(250,729,cs)
);
}
);
width = 306;
}
);
unicode = 106;
},
{
glyphname = jdotless;
kernLeft = i;
kernRight = i;
lastChange = "2024-09-05 12:38:03 +0000";
layers = (
{
anchors = (
{
name = top;
pos = (153,554);
}
);
layerId = "54A40BFF-1CE0-48F0-82EB-25AA62455493";
shapes = (
{
closed = 1;
nodes = (
(108,487,l),
(38,-10,ls),
(29,-73,o),
(4,-118,o),
(-41,-165,c),
(5,-204,l),
(67,-161,o),
(112,-92,o),
(122,-14,cs),
(192,487,l)
);
}
);
width = 245.98824;
},
{
anchors = (
{
name = top;
pos = (143,558);
}
);
layerId = "E21536AE-9819-4FE7-8A20-8865FE3C0515";
shapes = (
{
closed = 1;
nodes = (
(124,480,l),
(50,-45,ls),
(41,-110,o),
(13,-155,o),
(-27,-200,c),
(-15,-210,l),
(31,-165,o),
(65,-112,o),
(74,-47,cs),
(148,480,l)
);
}
);
width = 219;
},
{
anchors = (
{
name = top;
pos = (194,547);
}
);
layerId = "924B7471-43FB-4CAD-AF7E-45215B64D997";
shapes = (
{
closed = 1;
nodes = (
(79,500,l),
(16,62,ls),
(8,5,o),
(-16,-42,o),
(-73,-95,c),
(42,-192,l),
(144,-151,o),
(211,-50,o),
(224,54,cs),
(289,500,l)
);
}
);
width = 306;
}
);
unicode = 567;
},
{
glyphname = k;
kernLeft = b;
kernRight = k;
lastChange = "2024-09-05 12:38:03 +0000";
layers = (
{
anchors = (
{
name = bottom;
pos = (244,0);
}
);
layerId = "54A40BFF-1CE0-48F0-82EB-25AA62455493";
shapes = (
{
closed = 1;
nodes = (
(134,700,l),
(36,0,l),
(120,0,l),
(150,199,l),
(147,211,o),
(143,223,o),
(140,236,c),
(157,280,o),
(168,317,o),
(174,362,cs),
(219,700,l)
);
},
{
closed = 1;
nodes = (
(410,487,l),
(376,376,o),
(251,290,o),
(122,237,c),
(128,166,l),
(262,224,o),
(434,292,o),
(497,487,c)
);
},
{
closed = 1;
nodes = (
(255,258,l),
(366,0,l),
(457,0,l),
(361,214,ls),
(350,238,o),
(337,263,o),
(322,284,c)
);
}
);
width = 520.55294;
},
{
anchors = (
{
name = bottom;
pos = (224,0);
}
);
background = {
shapes = (
{
closed = 1;
nodes = (
(303,492,o),
(220,441,o),
(126,362,c),
(125,336,l),
(230,424,o),
(303,469,o),
(374,469,cs),
(447,469,o),
(478,437,o),
(467,359,cs),
(416,0,l),
(440,0,l),
(491,360,ls),
(503,446,o),
(464,492,o),
(378,492,cs)
);
},
{
closed = 1;
nodes = (
(155,700,l),
(56,0,l),
(80,0,l),
(129,343,l),
(127,360,l),
(135,397,o),
(144,446,o),
(149,484,cs),
(179,700,l)
);
}
);
};
guides = (
{
angle = 82;
pos = (391,273);
}
);
layerId = "E21536AE-9819-4FE7-8A20-8865FE3C0515";
shapes = (
{
closed = 1;
nodes = (
(151,700,l),
(52,0,l),
(76,0,l),
(106,209,l),
(105,211,o),
(104,214,o),
(103,216,c),
(112,252,o),
(116,275,o),
(121,310,cs),
(175,700,l)
);
},
{
closed = 1;
nodes = (
(436,480,l),
(382,356,o),
(268,265,o),
(92,217,c),
(92,194,l),
(203,225,o),
(382,288,o),
(461,480,c)
);
},
{
closed = 1;
nodes = (
(247,260,l),
(377,0,l),
(404,0,l),
(296,215,ls),
(287,234,o),
(277,252,o),
(268,271,c)
);
}
);
width = 487;
},
{
anchors = (
{
name = bottom;
pos = (284,0);
}
);
guides = (
{
angle = 90;
pos = (463,273);
}
);
layerId = "924B7471-43FB-4CAD-AF7E-45215B64D997";
shapes = (
{
closed = 1;
nodes = (
(101,700,l),
(3,0,l),
(213,0,l),
(233,139,ls),
(238,187,o),
(233,258,o),
(230,306,c),
(252,347,o),
(266,386,o),
(273,428,cs),
(311,700,l)
);
},
{
closed = 1;
nodes = (
(388,500,l),
(368,406,o),
(279,319,o),
(183,284,c),
(203,160,l),
(360,206,o),
(554,281,o),
(604,500,c)
);
},
{
closed = 1;
nodes = (
(259,230,l),
(365,0,l),
(580,0,l),
(489,189,ls),
(473,225,o),
(445,259,o),
(393,279,c)
);
}
);
width = 609;
}
);
unicode = 107;
},
{
glyphname = kgreenlandic;
kernLeft = b;
kernRight = k;
lastChange = "2024-09-05 12:38:03 +0000";
layers = (
{
layerId = "54A40BFF-1CE0-48F0-82EB-25AA62455493";
shapes = (
{
closed = 1;
nodes = (
(105,487,l),
(36,0,l),
(120,0,l),
(149,192,l),
(146,204,o),
(143,217,o),
(139,229,c),
(156,274,o),
(167,311,o),
(173,355,cs),
(191,487,l)
);
},
{
closed = 1;
nodes = (
(413,487,l),
(376,374,o),
(250,283,o),
(121,230,c),
(128,160,l),
(262,218,o),
(435,292,o),
(500,487,c)
);
},
{
closed = 1;
nodes = (
(254,251,l),
(363,0,l),
(454,0,l),
(360,207,ls),
(350,231,o),
(336,256,o),
(321,278,c)
);
}
);
width = 520.55294;
},
{
background = {
shapes = (
{
closed = 1;
nodes = (
(151,700,l),
(52,0,l),
(76,0,l),
(106,209,l),
(105,211,o),
(104,214,o),
(103,216,c),
(112,252,o),
(116,275,o),
(121,310,cs),
(175,700,l)
);
},
{
closed = 1;
nodes = (
(436,480,l),
(382,356,o),
(268,265,o),
(92,217,c),
(92,194,l),
(203,225,o),
(382,288,o),
(461,480,c)
);
},
{
closed = 1;
nodes = (
(247,260,l),
(377,0,l),
(404,0,l),
(296,215,ls),
(287,234,o),
(277,252,o),
(268,271,c)
);
}
);
};
layerId = "E21536AE-9819-4FE7-8A20-8865FE3C0515";
shapes = (
{
closed = 1;
nodes = (
(120,480,l),
(52,0,l),
(76,0,l),
(106,209,l),
(105,211,o),
(104,214,o),
(103,216,c),
(112,252,o),
(116,275,o),
(121,310,cs),
(144,480,l)
);
},
{
closed = 1;
nodes = (
(436,480,l),
(382,356,o),
(268,265,o),
(92,217,c),
(92,194,l),
(203,225,o),
(382,288,o),
(461,480,c)
);
},
{
closed = 1;
nodes = (
(247,260,l),
(377,0,l),
(404,0,l),
(296,215,ls),
(287,234,o),
(277,252,o),
(268,271,c)
);
}
);
width = 487;
},
{
background = {
shapes = (
{
closed = 1;
nodes = (
(101,700,l),
(3,0,l),
(213,0,l),
(233,139,ls),
(238,187,o),
(233,258,o),
(230,306,c),
(252,347,o),
(267,385,o),
(273,428,cs),
(311,700,l)
);
},
{
closed = 1;
nodes = (
(388,500,l),
(368,406,o),
(279,319,o),
(183,284,c),
(203,160,l),
(360,206,o),
(554,281,o),
(604,500,c)
);
},
{
closed = 1;
nodes = (
(259,230,l),
(365,0,l),
(580,0,l),
(489,189,ls),
(473,225,o),
(445,259,o),
(393,279,c)
);
}
);
};
layerId = "924B7471-43FB-4CAD-AF7E-45215B64D997";
shapes = (
{
closed = 1;
nodes = (
(73,500,l),
(3,0,l),
(213,0,l),
(232,128,ls),
(239,176,o),
(232,247,o),
(229,295,c),
(251,336,o),
(266,375,o),
(272,417,cs),
(283,500,l)
);
},
{
closed = 1;
nodes = (
(393,500,l),
(370,396,o),
(278,308,o),
(182,273,c),
(202,149,l),
(359,195,o),
(559,281,o),
(609,500,c)
);
},
{
closed = 1;
nodes = (
(258,219,l),
(360,0,l),
(575,0,l),
(488,178,ls),
(471,213,o),
(444,248,o),
(392,268,c)
);
}
);
width = 609;
}
);
unicode = 312;
},
{
glyphname = l;
kernLeft = l;
kernRight = l;
lastChange = "2024-09-05 13:40:56 +0000";
layers = (
{
anchors = (
{
name = bottom;
pos = (151,-1);
},
{
name = top;
pos = (188,756);
},
{
name = topright;
pos = (311,644);
}
);
layerId = "54A40BFF-1CE0-48F0-82EB-25AA62455493";
shapes = (
{
closed = 1;
nodes = (
(135,700,l),
(53,117,ls),
(42,37,o),
(84,-9,o),
(159,-9,cs),
(181,-9,o),
(228,-5,o),
(247,3,c),
(244,69,l),
(195,69,ls),
(149,69,o),
(133,86,o),
(140,132,cs),
(220,700,l)
);
}
);
width = 292.71765;
},
{
anchors = (
{
name = bottom;
pos = (145,-5);
},
{
name = top;
pos = (174,763);
},
{
name = topright;
pos = (271,654);
}
);
layerId = "E21536AE-9819-4FE7-8A20-8865FE3C0515";
shapes = (
{
closed = 1;
nodes = (
(152,700,l),
(67,96,ls),
(58,31,o),
(93,-6,o),
(155,-6,cs),
(172,-6,o),
(206,-4,o),
(219,0,c),
(218,16,l),
(159,16,ls),
(108,16,o),
(83,43,o),
(91,95,cs),
(176,700,l)
);
}
);
width = 265;
},
{
anchors = (
{
name = bottom;
pos = (165,-5);
},
{
name = top;
pos = (219,740);
},
{
name = topright;
pos = (417,644);
}
);
layerId = "924B7471-43FB-4CAD-AF7E-45215B64D997";
shapes = (
{
closed = 1;
nodes = (
(102,700,l),
(21,130,ls),
(10,42,o),
(72,-14,o),
(184,-14,cs),
(217,-14,o),
(295,-8,o),
(327,10,c),
(315,146,l),
(275,146,ls),
(239,146,o),
(231,152,o),
(236,178,cs),
(311,700,l)
);
}
);
width = 360;
}
);
unicode = 108;
},
{
glyphname = lslash;
kernLeft = l;
kernRight = l;
lastChange = "2024-09-05 12:38:03 +0000";
layers = (
{
layerId = "54A40BFF-1CE0-48F0-82EB-25AA62455493";
shapes = (
{
closed = 1;
nodes = (
(23,359,l),
(16,305,l),
(306,420,l),
(313,473,l)
);
},
{
ref = l;
}
);
userData = {
com.schriftgestaltung.componentsAlignment = (
-1
);
};
width = 298.94118;
},
{
layerId = "E21536AE-9819-4FE7-8A20-8865FE3C0515";
shapes = (
{
closed = 1;
nodes = (
(37,343,l),
(35,323,l),
(280,425,l),
(283,445,l)
);
},
{
ref = l;
}
);
width = 288;
},
{
layerId = "924B7471-43FB-4CAD-AF7E-45215B64D997";
shapes = (
{
closed = 1;
nodes = (
(14,373,l),
(0,269,l),
(380,409,l),
(395,513,l)
);
},
{
pos = (12,0);
ref = l;
}
);
width = 376;
}
);
unicode = 322;
},
{
glyphname = m;
kernLeft = m;
kernRight = h;
lastChange = "2024-09-05 12:38:03 +0000";
layers = (
{
anchors = (
{
name = bottom;
pos = (397,0);
}
);
layerId = "54A40BFF-1CE0-48F0-82EB-25AA62455493";
shapes = (
{
closed = 1;
nodes = (
(104,487,l),
(35,0,l),
(120,0,l),
(168,346,l),
(162,361,l),
(169,487,l)
);
},
{
closed = 1;
nodes = (
(306,499,o),
(239,459,o),
(156,374,c),
(157,312,l),
(249,395,o),
(292,427,o),
(345,427,cs),
(398,427,o),
(412,401,o),
(404,343,cs),
(356,0,l),
(438,0,l),
(489,364,ls),
(501,447,o),
(461,499,o),
(376,499,cs)
);
},
{
closed = 1;
nodes = (
(626,499,o),
(561,460,o),
(478,374,c),
(479,313,l),
(571,398,o),
(613,427,o),
(663,427,cs),
(709,427,o),
(730,407,o),
(722,343,cs),
(674,0,l),
(758,0,l),
(809,364,ls),
(821,447,o),
(781,499,o),
(695,499,cs)
);
}
);
width = 872.35294;
},
{
anchors = (
{
name = bottom;
pos = (400,0);
}
);
background = {
shapes = (
{
closed = 1;
nodes = (
(625,492,o),
(551,458,o),
(466,392,c),
(465,369,l),
(560,435,o),
(621,469,o),
(689,469,cs),
(757,469,o),
(787,435,o),
(777,359,cs),
(726,0,l),
(750,0,l),
(801,360,ls),
(813,446,o),
(774,492,o),
(693,492,cs)
);
},
{
closed = 1;
nodes = (
(124,480,l),
(56,0,l),
(80,0,l),
(133,376,l),
(132,392,l),
(142,480,l)
);
},
{
closed = 1;
nodes = (
(290,492,o),
(216,458,o),
(131,392,c),
(130,369,l),
(225,435,o),
(286,469,o),
(354,469,cs),
(422,469,o),
(452,435,o),
(442,359,cs),
(391,0,l),
(415,0,l),
(466,360,ls),
(478,446,o),
(439,492,o),
(358,492,cs)
);
}
);
};
layerId = "E21536AE-9819-4FE7-8A20-8865FE3C0515";
shapes = (
{
closed = 1;
nodes = (
(120,480,l),
(52,0,l),
(76,0,l),
(124,342,l),
(123,360,l),
(138,480,l)
);
},
{
closed = 1;
nodes = (
(280,492,o),
(208,441,o),
(122,362,c),
(121,339,l),
(218,424,o),
(280,469,o),
(345,469,cs),
(418,469,o),
(449,437,o),
(438,359,cs),
(387,0,l),
(411,0,l),
(462,360,ls),
(474,446,o),
(435,492,o),
(349,492,cs)
);
},
{
closed = 1;
nodes = (
(614,492,o),
(542,441,o),
(456,362,c),
(455,339,l),
(552,424,o),
(614,469,o),
(679,469,cs),
(752,469,o),
(783,437,o),
(772,359,cs),
(721,0,l),
(745,0,l),
(796,360,ls),
(808,446,o),
(769,492,o),
(683,492,cs)
);
}
);
width = 876;
},
{
anchors = (
{
name = bottom;
pos = (404,-5);
}
);
background = {
shapes = (
{
closed = 1;
nodes = (
(350,514,o),
(253,459,o),
(192,374,c),
(229,287,l),
(269,325,o),
(295,335,o),
(314,337,cs),
(339,340,o),
(343,329,o),
(339,302,cs),
(296,0,l),
(507,0,l),
(559,370,ls),
(574,466,o),
(514,514,o),
(435,514,cs)
);
},
{
closed = 1;
nodes = (
(59,500,l),
(-11,0,l),
(200,0,l),
(249,354,l),
(230,366,l),
(223,500,l)
);
}
);
};
guides = (
{
angle = 82;
pos = (594,168);
}
);
layerId = "924B7471-43FB-4CAD-AF7E-45215B64D997";
shapes = (
{
closed = 1;
nodes = (
(73,500,l),
(3,0,l),
(212,0,l),
(265,386,l),
(245,398,l),
(236,500,l)
);
},
{
closed = 1;
nodes = (
(338,514,o),
(275,472,o),
(191,374,c),
(227,289,l),
(276,327,o),
(306,337,o),
(327,337,cs),
(341,337,o),
(350,333,o),
(346,311,cs),
(303,0,l),
(504,0,l),
(556,370,ls),
(569,462,o),
(521,514,o),
(424,514,cs)
);
},
{
closed = 1;
nodes = (
(635,514,o),
(571,473,o),
(487,374,c),
(524,289,l),
(570,327,o),
(600,337,o),
(619,337,cs),
(631,337,o),
(641,333,o),
(638,311,cs),
(595,0,l),
(803,0,l),
(855,370,ls),
(868,460,o),
(821,514,o),
(721,514,cs)
);
}
);
width = 884;
}
);
unicode = 109;
},
{
glyphname = n;
kernLeft = m;
kernRight = h;
lastChange = "2024-09-05 12:38:03 +0000";
layers = (
{
anchors = (
{
name = bottom;
pos = (259,0);
},
{
name = top;
pos = (328,554);
}
);
layerId = "54A40BFF-1CE0-48F0-82EB-25AA62455493";
shapes = (
{
closed = 1;
nodes = (
(325,499,o),
(250,456,o),
(158,374,c),
(157,312,l),
(249,384,o),
(310,427,o),
(374,427,cs),
(420,427,o),
(435,407,o),
(427,343,cs),
(378,0,l),
(463,0,l),
(515,364,ls),
(527,453,o),
(481,499,o),
(400,499,cs)
);
},
{
closed = 1;
nodes = (
(104,487,l),
(35,0,l),
(120,0,l),
(168,346,l),
(164,361,l),
(172,487,l)
);
}
);
width = 577.94118;
},
{
anchors = (
{
name = bottom;
pos = (242,0);
},
{
name = top;
pos = (312,558);
}
);
layerId = "E21536AE-9819-4FE7-8A20-8865FE3C0515";
shapes = (
{
closed = 1;
nodes = (
(299,492,o),
(216,441,o),
(122,362,c),
(121,339,l),
(226,424,o),
(299,469,o),
(370,469,cs),
(443,469,o),
(474,437,o),
(463,359,cs),
(412,0,l),
(436,0,l),
(487,360,ls),
(499,446,o),
(460,492,o),
(374,492,cs)
);
},
{
closed = 1;
nodes = (
(120,480,l),
(52,0,l),
(76,0,l),
(124,342,l),
(123,360,l),
(138,480,l)
);
}
);
width = 567;
},
{
anchors = (
{
name = bottom;
pos = (277,0);
},
{
name = top;
pos = (347,547);
}
);
guides = (
{
angle = 82;
pos = (242,197);
}
);
layerId = "924B7471-43FB-4CAD-AF7E-45215B64D997";
shapes = (
{
closed = 1;
nodes = (
(372,514,o),
(273,459,o),
(207,374,c),
(242,287,l),
(288,325,o),
(319,335,o),
(343,337,cs),
(369,340,o),
(374,329,o),
(370,302,cs),
(327,0,l),
(538,0,l),
(590,370,ls),
(604,466,o),
(542,514,o),
(460,514,cs)
);
},
{
closed = 1;
nodes = (
(72,500,l),
(3,0,l),
(213,0,l),
(263,354,l),
(243,366,l),
(236,500,l)
);
}
);
width = 619;
}
);
unicode = 110;
},
{
glyphname = eng;
kernLeft = m;
kernRight = h;
lastChange = "2024-09-05 12:38:03 +0000";
layers = (
{
layerId = "54A40BFF-1CE0-48F0-82EB-25AA62455493";
shapes = (
{
closed = 1;
nodes = (
(321,499,o),
(242,452,o),
(153,369,c),
(159,312,l),
(240,373,o),
(308,421,o),
(371,421,cs),
(421,421,o),
(434,399,o),
(427,343,cs),
(370,-59,ls),
(362,-118,o),
(332,-138,o),
(284,-138,cs),
(244,-138,l),
(229,-192,l),
(255,-200,o),
(289,-205,o),
(314,-205,cs),
(396,-205,o),
(442,-155,o),
(456,-56,cs),
(515,364,ls),
(527,451,o),
(485,499,o),
(397,499,cs)
);
},
{
closed = 1;
nodes = (
(104,487,l),
(35,0,l),
(120,0,l),
(168,341,l),
(164,365,l),
(169,487,l)
);
}
);
width = 577.94118;
},
{
background = {
shapes = (
{
closed = 1;
nodes = (
(303,492,o),
(220,441,o),
(126,362,c),
(125,339,l),
(230,424,o),
(303,469,o),
(374,469,cs),
(447,469,o),
(478,437,o),
(467,359,cs),
(416,0,l),
(440,0,l),
(491,360,ls),
(503,446,o),
(464,492,o),
(378,492,cs)
);
},
{
closed = 1;
nodes = (
(124,480,l),
(56,0,l),
(80,0,l),
(128,342,l),
(127,360,l),
(142,480,l)
);
}
);
};
layerId = "E21536AE-9819-4FE7-8A20-8865FE3C0515";
shapes = (
{
closed = 1;
nodes = (
(289,492,o),
(214,436,o),
(119,360,c),
(118,337,l),
(216,412,o),
(285,469,o),
(370,469,cs),
(443,469,o),
(473,435,o),
(463,359,cs),
(400,-87,ls),
(391,-154,o),
(355,-188,o),
(295,-188,cs),
(248,-188,l),
(244,-204,l),
(268,-209,o),
(282,-210,o),
(298,-210,cs),
(372,-211,o),
(412,-170,o),
(424,-90,cs),
(487,360,ls),
(499,446,o),
(460,492,o),
(374,492,cs)
);
},
{
closed = 1;
nodes = (
(120,480,l),
(52,0,l),
(76,0,l),
(125,343,l),
(123,359,l),
(138,480,l)
);
}
);
width = 567;
},
{
background = {
shapes = (
{
closed = 1;
nodes = (
(366,514,o),
(269,459,o),
(208,374,c),
(245,287,l),
(285,325,o),
(311,335,o),
(330,337,cs),
(355,340,o),
(359,329,o),
(355,302,cs),
(312,0,l),
(523,0,l),
(575,370,ls),
(590,466,o),
(530,514,o),
(451,514,cs)
);
},
{
closed = 1;
nodes = (
(75,500,l),
(5,0,l),
(216,0,l),
(265,354,l),
(246,366,l),
(239,500,l)
);
}
);
};
layerId = "924B7471-43FB-4CAD-AF7E-45215B64D997";
shapes = (
{
closed = 1;
nodes = (
(381,514,o),
(293,474,o),
(205,377,c),
(242,287,l),
(291,326,o),
(322,335,o),
(344,337,cs),
(366,339,o),
(375,333,o),
(371,311,cs),
(326,-2,ls),
(323,-21,o),
(300,-33,o),
(275,-33,cs),
(245,-33,l),
(209,-167,l),
(240,-185,o),
(318,-195,o),
(365,-195,cs),
(459,-195,o),
(518,-136,o),
(533,-28,cs),
(590,370,ls),
(602,462,o),
(553,514,o),
(451,514,cs)
);
},
{
closed = 1;
nodes = (
(72,500,l),
(3,0,l),
(213,0,l),
(261,341,l),
(242,413,l),
(236,500,l)
);
}
);
width = 619;
}
);
unicode = 331;
},
{
glyphname = o;
kernLeft = c;
kernRight = o;
lastChange = "2024-09-05 12:38:03 +0000";
layers = (
{
anchors = (
{
name = bottom;
pos = (240,-13);
},
{
name = ogonek;
pos = (283,0);
},
{
name = top;
pos = (318,554);
}
);
layerId = "54A40BFF-1CE0-48F0-82EB-25AA62455493";
shapes = (
{
closed = 1;
nodes = (
(141,499,o),
(72,430,o),
(46,246,cs),
(20,58,o),
(83,-13,o),
(245,-13,cs),
(408,-13,o),
(478,55,o),
(504,239,cs),
(531,428,o),
(471,499,o),
(307,499,cs)
);
},
{
closed = 1;
nodes = (
(411,427,o),
(437,387,o),
(417,246,cs),
(397,103,o),
(354,59,o),
(245,59,cs),
(141,59,o),
(115,100,o),
(135,239,cs),
(156,388,o),
(200,427,o),
(307,427,cs)
);
}
);
width = 564.29412;
},
{
anchors = (
{
name = bottom;
pos = (243,-12);
},
{
name = ogonek;
pos = (269,0);
},
{
name = top;
pos = (315,558);
}
);
layerId = "E21536AE-9819-4FE7-8A20-8865FE3C0515";
shapes = (
{
closed = 1;
nodes = (
(150,492,o),
(87,426,o),
(61,242,cs),
(35,56,o),
(82,-12,o),
(238,-12,cs),
(392,-12,o),
(455,54,o),
(481,238,cs),
(507,424,o),
(460,492,o),
(304,492,cs)
);
},
{
closed = 1;
nodes = (
(440,469,o),
(480,414,o),
(456,242,cs),
(432,68,o),
(374,11,o),
(238,11,cs),
(102,11,o),
(62,66,o),
(86,238,cs),
(110,412,o),
(168,469,o),
(304,469,cs)
);
}
);
width = 557;
},
{
anchors = (
{
name = bottom;
pos = (268,-12);
},
{
name = ogonek;
pos = (310,0);
},
{
name = top;
pos = (346,547);
}
);
layerId = "924B7471-43FB-4CAD-AF7E-45215B64D997";
shapes = (
{
closed = 1;
nodes = (
(126,514,o),
(48,448,o),
(21,257,cs),
(-7,61,o),
(80,-12,o),
(278,-12,cs),
(477,-12,o),
(555,53,o),
(582,241,cs),
(610,440,o),
(527,514,o),
(327,514,cs)
);
},
{
closed = 1;
nodes = (
(372,372,o),
(379,352,o),
(365,257,cs),
(349,152,o),
(337,130,o),
(286,130,cs),
(233,130,o),
(227,149,o),
(240,241,cs),
(256,350,o),
(269,372,o),
(323,372,cs)
);
}
);
width = 615;
}
);
unicode = 111;
},
{
glyphname = oslash;
kernLeft = c;
kernRight = o;
lastChange = "2024-09-05 12:38:03 +0000";
layers = (
{
anchors = (
{
name = bottom;
pos = (240,-13);
},
{
name = top;
pos = (318,554);
}
);
layerId = "54A40BFF-1CE0-48F0-82EB-25AA62455493";
shapes = (
{
closed = 1;
nodes = (
(76,-53,l),
(113,-75,l),
(487,541,l),
(449,563,l)
);
},
{
ref = o;
}
);
userData = {
com.schriftgestaltung.componentsAlignment = (
-1
);
};
width = 564.29412;
},
{
anchors = (
{
name = bottom;
pos = (243,-12);
},
{
name = top;
pos = (315,558);
}
);
layerId = "E21536AE-9819-4FE7-8A20-8865FE3C0515";
shapes = (
{
closed = 1;
nodes = (
(86,-52,l),
(104,-61,l),
(463,530,l),
(445,539,l)
);
},
{
ref = o;
}
);
width = 557;
},
{
anchors = (
{
name = bottom;
pos = (268,-12);
},
{
name = top;
pos = (346,547);
}
);
layerId = "924B7471-43FB-4CAD-AF7E-45215B64D997";
shapes = (
{
closed = 1;
nodes = (
(84,-71,l),
(131,-93,l),
(533,575,l),
(486,597,l)
);
},
{
ref = o;
}
);
width = 615;
}
);
unicode = 248;
},
{
glyphname = oe;
kernLeft = c;
kernRight = ae;
lastChange = "2024-09-05 12:38:03 +0000";
layers = (
{
layerId = "54A40BFF-1CE0-48F0-82EB-25AA62455493";
shapes = (
{
closed = 1;
nodes = (
(141,499,o),
(71,430,o),
(46,246,cs),
(20,58,o),
(82,-13,o),
(245,-13,cs),
(408,-13,o),
(478,55,o),
(504,239,cs),
(531,428,o),
(471,499,o),
(307,499,cs)
);
},
{
closed = 1;
nodes = (
(411,427,o),
(437,387,o),
(416,246,cs),
(397,103,o),
(353,59,o),
(245,59,cs),
(140,59,o),
(115,100,o),
(135,239,cs),
(156,388,o),
(200,427,o),
(307,427,cs)
);
},
{
closed = 1;
nodes = (
(512,499,o),
(444,447,o),
(418,255,cs),
(393,72,o),
(448,-12,o),
(615,-12,cs),
(671,-12,o),
(762,-5,o),
(811,15,c),
(805,72,l),
(753,65,o),
(682,60,o),
(630,60,cs),
(526,60,o),
(482,94,o),
(506,254,cs),
(528,399,o),
(566,427,o),
(672,427,cs),
(752,427,o),
(792,425,o),
(780,350,cs),
(771,293,o),
(743,276,o),
(679,271,cs),
(452,249,l),
(442,185,l),
(679,207,ls),
(795,216,o),
(849,249,o),
(865,343,cs),
(881,445,o),
(837,499,o),
(684,499,cs)
);
}
);
width = 905.41176;
},
{
layerId = "E21536AE-9819-4FE7-8A20-8865FE3C0515";
shapes = (
{
closed = 1;
nodes = (
(149,492,o),
(86,426,o),
(60,242,cs),
(34,56,o),
(81,-12,o),
(237,-12,cs),
(391,-12,o),
(454,54,o),
(480,238,cs),
(506,424,o),
(459,492,o),
(303,492,cs)
);
},
{
closed = 1;
nodes = (
(439,469,o),
(479,414,o),
(455,242,cs),
(431,68,o),
(373,11,o),
(237,11,cs),
(101,11,o),
(61,66,o),
(85,238,cs),
(109,412,o),
(167,469,o),
(303,469,cs)
);
},
{
closed = 1;
nodes = (
(559,492,o),
(486,451,o),
(455,244,cs),
(427,58,o),
(469,-12,o),
(627,-12,cs),
(681,-12,o),
(779,-4,o),
(816,6,c),
(813,24,l),
(771,18,o),
(694,11,o),
(639,11,cs),
(486,11,o),
(452,66,o),
(479,241,cs),
(509,435,o),
(568,469,o),
(707,469,cs),
(798,469,o),
(868,456,o),
(840,346,cs),
(824,283,o),
(793,265,o),
(706,254,cs),
(465,226,l),
(462,204,l),
(705,231,ls),
(804,242,o),
(845,265,o),
(864,344,cs),
(893,465,o),
(819,492,o),
(703,492,cs)
);
}
);
width = 920;
},
{
layerId = "924B7471-43FB-4CAD-AF7E-45215B64D997";
shapes = (
{
closed = 1;
nodes = (
(124,514,o),
(48,448,o),
(21,257,cs),
(-7,61,o),
(77,-12,o),
(270,-12,cs),
(406,-12,o),
(540,53,o),
(567,241,cs),
(595,440,o),
(456,514,o),
(319,514,cs)
);
},
{
closed = 1;
nodes = (
(358,372,o),
(363,352,o),
(349,257,cs),
(334,152,o),
(324,130,o),
(279,130,cs),
(231,130,o),
(226,149,o),
(239,241,cs),
(254,350,o),
(265,372,o),
(314,372,cs)
);
},
{
closed = 1;
nodes = (
(525,514,o),
(371,468,o),
(349,254,cs),
(332,83,o),
(446,-12,o),
(612,-12,cs),
(691,-12,o),
(775,-1,o),
(845,32,c),
(832,160,l),
(772,153,o),
(670,149,o),
(631,149,cs),
(564,149,o),
(554,162,o),
(570,261,cs),
(586,357,o),
(597,378,o),
(651,379,cs),
(689,380,o),
(696,371,o),
(694,349,cs),
(691,311,o),
(668,307,o),
(628,303,cs),
(436,283,l),
(423,184,l),
(685,204,ls),
(816,214,o),
(881,238,o),
(894,328,cs),
(912,449,o),
(853,514,o),
(649,514,cs)
);
}
);
width = 910;
}
);
unicode = 339;
},
{
glyphname = p;
kernLeft = m;
kernRight = p;
lastChange = "2024-09-05 12:38:03 +0000";
layers = (
{
layerId = "54A40BFF-1CE0-48F0-82EB-25AA62455493";
shapes = (
{
closed = 1;
nodes = (
(295,499,o),
(175,406,o),
(125,330,c),
(141,290,l),
(224,376,o),
(315,425,o),
(365,425,cs),
(431,425,o),
(444,392,o),
(423,244,cs),
(400,81,o),
(374,57,o),
(240,57,cs),
(210,57,o),
(149,59,o),
(75,62,c),
(52,11,l),
(116,-3,o),
(206,-13,o),
(271,-13,cs),
(405,-13,o),
(478,19,o),
(509,238,cs),
(537,439,o),
(498,499,o),
(384,499,cs)
);
},
{
closed = 1;
nodes = (
(105,487,l),
(6,-203,l),
(92,-203,l),
(109,-93,ls),
(115,-56,o),
(116,-27,o),
(117,8,c),
(126,25,l),
(173,369,l),
(165,377,l),
(172,487,l)
);
}
);
width = 574.67059;
},
{
background = {
shapes = (
{
closed = 1;
nodes = (
(303,492,o),
(220,441,o),
(126,362,c),
(125,339,l),
(230,424,o),
(303,469,o),
(374,469,cs),
(447,469,o),
(478,437,o),
(467,359,cs),
(416,0,l),
(440,0,l),
(491,360,ls),
(503,446,o),
(464,492,o),
(378,492,cs)
);
},
{
closed = 1;
nodes = (
(124,480,l),
(56,0,l),
(80,0,l),
(128,342,l),
(127,360,l),
(142,480,l)
);
}
);
};
layerId = "E21536AE-9819-4FE7-8A20-8865FE3C0515";
shapes = (
{
closed = 1;
nodes = (
(306,492,o),
(203,449,o),
(118,352,c),
(118,325,l),
(201,418,o),
(303,469,o),
(368,469,cs),
(469,469,o),
(479,401,o),
(456,242,cs),
(428,51,o),
(390,10,o),
(228,10,cs),
(176,10,o),
(134,14,o),
(62,18,c),
(52,0,l),
(115,-7,o),
(173,-12,o),
(231,-12,cs),
(404,-12,o),
(450,38,o),
(480,238,cs),
(506,412,o),
(490,492,o),
(368,492,cs)
);
},
{
closed = 1;
nodes = (
(120,480,l),
(21,-220,l),
(45,-220,l),
(63,-94,ls),
(68,-59,o),
(71,-36,o),
(73,-1,c),
(79,16,l),
(124,343,l),
(123,347,l),
(138,480,l)
);
}
);
width = 563;
},
{
background = {
shapes = (
{
closed = 1;
nodes = (
(366,514,o),
(269,459,o),
(208,374,c),
(245,287,l),
(285,325,o),
(311,335,o),
(330,337,cs),
(354,340,o),
(358,329,o),
(354,302,cs),
(312,0,l),
(523,0,l),
(575,370,ls),
(590,466,o),
(530,514,o),
(451,514,cs)
);
},
{
closed = 1;
nodes = (
(75,500,l),
(5,0,l),
(216,0,l),
(266,354,l),
(246,366,l),
(239,500,l)
);
}
);
};
layerId = "924B7471-43FB-4CAD-AF7E-45215B64D997";
shapes = (
{
closed = 1;
nodes = (
(322,512,o),
(228,407,o),
(202,367,c),
(240,287,l),
(264,321,o),
(311,351,o),
(343,351,cs),
(374,351,o),
(379,327,o),
(365,230,cs),
(351,134,o),
(343,113,o),
(277,113,cs),
(211,113,o),
(178,113,o),
(132,113,c),
(112,35,l),
(159,-2,o),
(284,-14,o),
(347,-14,cs),
(466,-14,o),
(553,29,o),
(580,236,cs),
(603,417,o),
(554,512,o),
(440,512,cs)
);
},
{
closed = 1;
nodes = (
(72,500,l),
(-22,-180,l),
(188,-180,l),
(202,-94,ls),
(208,-56,o),
(210,-22,o),
(209,11,c),
(220,27,l),
(261,358,l),
(239,374,l),
(239,500,l)
);
}
);
width = 615;
}
);
unicode = 112;
},
{
glyphname = thorn;
kernLeft = f;
kernRight = p;
lastChange = "2024-09-05 12:38:03 +0000";
layers = (
{
layerId = "54A40BFF-1CE0-48F0-82EB-25AA62455493";
shapes = (
{
closed = 1;
nodes = (
(273,499,o),
(175,421,o),
(124,330,c),
(141,290,l),
(224,376,o),
(292,425,o),
(365,425,cs),
(430,425,o),
(442,392,o),
(421,244,cs),
(398,82,o),
(372,59,o),
(240,59,cs),
(210,59,o),
(150,61,o),
(77,63,c),
(54,11,l),
(117,-3,o),
(206,-13,o),
(271,-13,cs),
(404,-13,o),
(478,19,o),
(509,238,cs),
(537,439,o),
(490,499,o),
(384,499,cs)
);
},
{
closed = 1;
nodes = (
(134,700,l),
(8,-201,l),
(92,-201,l),
(110,-73,ls),
(117,-34,o),
(120,-2,o),
(122,36,c),
(128,50,l),
(175,394,l),
(173,404,l),
(183,442,o),
(188,475,o),
(193,513,c),
(219,700,l)
);
}
);
width = 572.75294;
},
{
layerId = "E21536AE-9819-4FE7-8A20-8865FE3C0515";
shapes = (
{
closed = 1;
nodes = (
(307,492,o),
(204,449,o),
(119,352,c),
(119,325,l),
(202,418,o),
(304,469,o),
(369,469,cs),
(470,469,o),
(480,401,o),
(457,242,cs),
(429,51,o),
(391,10,o),
(229,10,cs),
(180,10,o),
(141,14,o),
(73,18,c),
(63,0,l),
(122,-7,o),
(177,-12,o),
(232,-12,cs),
(405,-12,o),
(451,38,o),
(481,238,cs),
(507,412,o),
(491,492,o),
(369,492,cs)
);
},
{
closed = 1;
nodes = (
(152,700,l),
(24,-210,l),
(48,-210,l),
(65,-92,ls),
(70,-57,o),
(74,-34,o),
(75,1,c),
(80,14,l),
(124,337,l),
(123,348,l),
(132,383,o),
(134,406,o),
(139,441,cs),
(176,700,l)
);
}
);
width = 564;
},
{
layerId = "924B7471-43FB-4CAD-AF7E-45215B64D997";
shapes = (
{
closed = 1;
nodes = (
(309,512,o),
(220,410,o),
(204,323,c),
(233,238,l),
(257,295,o),
(287,351,o),
(341,351,cs),
(382,351,o),
(376,312,o),
(366,230,cs),
(354,129,o),
(337,113,o),
(278,113,cs),
(212,113,o),
(179,113,o),
(132,113,c),
(113,35,l),
(161,0,o),
(261,-14,o),
(369,-14,cs),
(473,-14,o),
(560,54,o),
(581,236,cs),
(602,419,o),
(563,512,o),
(429,512,cs)
);
},
{
closed = 1;
nodes = (
(101,700,l),
(-22,-180,l),
(188,-180,l),
(202,-85,ls),
(210,-38,o),
(212,15,o),
(215,58,c),
(225,74,l),
(273,445,l),
(270,453,l),
(281,496,o),
(291,549,o),
(297,596,c),
(311,700,l)
);
}
);
width = 616;
}
);
unicode = 254;
},
{
glyphname = q;
kernLeft = q;
kernRight = q;
lastChange = "2024-09-05 12:38:03 +0000";
layers = (
{
layerId = "54A40BFF-1CE0-48F0-82EB-25AA62455493";
shapes = (
{
closed = 1;
nodes = (
(155,499,o),
(81,468,o),
(50,249,cs),
(22,46,o),
(75,-12,o),
(172,-12,cs),
(291,-12,o),
(382,83,o),
(435,156,c),
(419,196,l),
(321,103,o),
(269,62,o),
(196,62,cs),
(128,62,o),
(117,99,o),
(136,242,cs),
(158,404,o),
(185,429,o),
(311,429,cs),
(346,429,o),
(409,427,o),
(481,420,c),
(520,465,l),
(451,485,o),
(359,499,o),
(278,499,cs)
);
},
{
closed = 1;
nodes = (
(387,121,l),
(399,113,l),
(384,72,o),
(375,36,o),
(368,-12,cs),
(340,-203,l),
(425,-203,l),
(520,465,l),
(435,468,l)
);
}
);
width = 569.56471;
},
{
background = {
anchors = (
{
name = ogonek;
pos = (428,0);
},
{
name = top;
pos = (317,558);
}
);
shapes = (
{
closed = 1;
nodes = (
(122,480,l),
(71,120,ls),
(58,34,o),
(98,-12,o),
(184,-12,cs),
(255,-12,o),
(337,37,o),
(429,130,c),
(428,154,l),
(330,60,o),
(260,11,o),
(188,11,cs),
(115,11,o),
(84,45,o),
(95,121,cs),
(146,480,l)
);
},
{
closed = 1;
nodes = (
(472,480,l),
(425,147,l),
(426,131,l),
(410,0,l),
(428,0,l),
(496,480,l)
);
}
);
};
layerId = "E21536AE-9819-4FE7-8A20-8865FE3C0515";
shapes = (
{
closed = 1;
nodes = (
(147,492,o),
(94,447,o),
(67,242,cs),
(41,47,o),
(79,-12,o),
(186,-12,cs),
(268,-12,o),
(332,22,o),
(430,128,c),
(431,153,l),
(326,52,o),
(271,11,o),
(189,11,cs),
(85,11,o),
(72,77,o),
(92,238,cs),
(115,423,o),
(153,469,o),
(299,469,cs),
(352,469,o),
(405,463,o),
(473,443,c),
(494,461,l),
(425,480,o),
(373,492,o),
(296,492,cs)
);
},
{
closed = 1;
nodes = (
(426,142,l),
(429,129,l),
(420,83,o),
(414,48,o),
(406,-8,cs),
(375,-220,l),
(399,-220,l),
(495,461,l),
(471,461,l)
);
}
);
width = 563;
},
{
background = {
shapes = (
{
closed = 1;
nodes = (
(76,500,l),
(24,130,ls),
(11,38,o),
(58,-14,o),
(157,-14,cs),
(233,-14,o),
(306,28,o),
(391,126,c),
(354,212,l),
(312,174,o),
(289,162,o),
(262,162,cs),
(250,162,o),
(240,167,o),
(243,189,cs),
(287,500,l)
);
},
{
closed = 1;
nodes = (
(379,500,l),
(329,146,l),
(348,134,l),
(354,0,l),
(518,0,l),
(588,500,l)
);
}
);
};
layerId = "924B7471-43FB-4CAD-AF7E-45215B64D997";
shapes = (
{
closed = 1;
nodes = (
(88,514,o),
(45,405,o),
(23,254,cs),
(-4,67,o),
(50,-12,o),
(183,-12,cs),
(252,-12,o),
(349,43,o),
(408,129,c),
(369,210,l),
(338,193,o),
(307,162,o),
(267,162,cs),
(226,162,o),
(227,191,o),
(237,259,cs),
(251,352,o),
(274,369,o),
(325,373,cs),
(346,374,o),
(407,370,o),
(426,361,c),
(600,472,l),
(543,501,o),
(394,514,o),
(313,514,cs)
);
},
{
closed = 1;
nodes = (
(335,106,l),
(353,98,l),
(330,46,o),
(318,-18,o),
(311,-75,cs),
(297,-180,l),
(507,-180,l),
(600,472,l),
(390,482,l)
);
}
);
width = 617;
}
);
unicode = 113;
},
{
glyphname = r;
kernLeft = m;
kernRight = r;
lastChange = "2024-09-05 12:38:03 +0000";
layers = (
{
anchors = (
{
name = bottom;
pos = (77,0);
},
{
name = top;
pos = (267,554);
}
);
layerId = "54A40BFF-1CE0-48F0-82EB-25AA62455493";
shapes = (
{
closed = 1;
nodes = (
(104,487,l),
(35,0,l),
(120,0,l),
(167,338,l),
(161,353,l),
(169,487,l)
);
},
{
closed = 1;
nodes = (
(386,499,l),
(317,499,o),
(237,450,o),
(153,365,c),
(157,310,l),
(249,379,o),
(306,419,o),
(365,419,cs),
(390,419,l),
(411,499,l)
);
}
);
width = 398.31765;
},
{
anchors = (
{
name = bottom;
pos = (64,0);
},
{
name = top;
pos = (258,558);
}
);
background = {
shapes = (
{
closed = 1;
nodes = (
(303,492,o),
(220,441,o),
(126,361,c),
(125,336,l),
(230,424,o),
(303,469,o),
(374,469,cs),
(447,469,o),
(478,437,o),
(467,359,cs),
(416,0,l),
(440,0,l),
(491,360,ls),
(503,446,o),
(464,492,o),
(378,492,cs)
);
},
{
closed = 1;
nodes = (
(124,480,l),
(56,0,l),
(80,0,l),
(128,342,l),
(127,360,l),
(142,480,l)
);
}
);
};
layerId = "E21536AE-9819-4FE7-8A20-8865FE3C0515";
shapes = (
{
closed = 1;
nodes = (
(120,480,l),
(52,0,l),
(76,0,l),
(124,343,l),
(123,359,l),
(138,480,l)
);
},
{
closed = 1;
nodes = (
(368,492,ls),
(294,492,o),
(213,443,o),
(122,360,c),
(121,336,l),
(223,421,o),
(293,469,o),
(364,469,cs),
(380,469,l),
(388,492,l)
);
}
);
width = 383;
},
{
anchors = (
{
name = bottom;
pos = (110,0);
},
{
name = top;
pos = (285,547);
}
);
layerId = "924B7471-43FB-4CAD-AF7E-45215B64D997";
shapes = (
{
closed = 1;
nodes = (
(73,500,l),
(3,0,l),
(214,0,l),
(266,386,l),
(247,398,l),
(237,500,l)
);
},
{
closed = 1;
nodes = (
(443,514,l),
(379,514,o),
(307,487,o),
(234,424,c),
(242,307,l),
(314,319,o),
(353,322,o),
(389,322,cs),
(436,322,l),
(479,514,l)
);
}
);
width = 452;
}
);
unicode = 114;
},
{
glyphname = s;
kernLeft = s;
kernRight = s;
lastChange = "2024-09-05 12:38:03 +0000";
layers = (
{
anchors = (
{
name = bottom;
pos = (212,-11);
},
{
name = top;
pos = (294,554);
}
);
layerId = "54A40BFF-1CE0-48F0-82EB-25AA62455493";
shapes = (
{
closed = 1;
nodes = (
(139,501,o),
(72,479,o),
(60,384,cs),
(51,311,o),
(85,276,o),
(153,245,cs),
(289,185,ls),
(333,165,o),
(358,158,o),
(352,117,cs),
(344,71,o),
(310,61,o),
(187,60,cs),
(139,60,o),
(79,61,o),
(31,65,c),
(21,3,l),
(93,-5,o),
(113,-11,o),
(207,-11,cs),
(342,-11,o),
(420,0,o),
(435,109,cs),
(445,184,o),
(413,214,o),
(338,247,cs),
(202,307,ls),
(160,326,o),
(137,338,o),
(143,378,cs),
(149,426,o),
(181,428,o),
(266,428,cs),
(338,427,o),
(397,425,o),
(458,423,c),
(469,484,l),
(413,492,o),
(332,498,o),
(264,499,cs)
);
}
);
width = 506.02353;
},
{
anchors = (
{
name = bottom;
pos = (227,-11);
},
{
name = top;
pos = (288,558);
}
);
layerId = "E21536AE-9819-4FE7-8A20-8865FE3C0515";
shapes = (
{
closed = 1;
nodes = (
(151,494,o),
(88,487,o),
(72,387,cs),
(59,301,o),
(101,283,o),
(159,261,cs),
(318,201,ls),
(367,183,o),
(397,168,o),
(388,104,cs),
(377,24,o),
(329,12,o),
(207,10,cs),
(144,9,o),
(99,11,o),
(37,18,c),
(33,0,l),
(105,-11,o),
(160,-12,o),
(203,-12,cs),
(324,-12,o),
(397,-4,o),
(412,100,cs),
(423,177,o),
(385,200,o),
(320,224,cs),
(160,284,ls),
(107,304,o),
(86,323,o),
(96,383,cs),
(110,468,o),
(153,472,o),
(265,470,cs),
(324,469,o),
(388,466,o),
(446,462,c),
(450,480,l),
(392,487,o),
(326,491,o),
(264,492,cs)
);
}
);
width = 498;
},
{
anchors = (
{
name = bottom;
pos = (225,-16);
},
{
name = top;
pos = (313,547);
}
);
layerId = "924B7471-43FB-4CAD-AF7E-45215B64D997";
shapes = (
{
closed = 1;
nodes = (
(102,514,o),
(49,463,o),
(36,376,cs),
(24,295,o),
(52,232,o),
(147,205,cs),
(252,175,ls),
(298,162,o),
(307,158,o),
(306,148,cs),
(304,135,o),
(285,132,o),
(182,132,cs),
(120,132,o),
(39,132,o),
(14,132,c),
(-3,11,l),
(103,-8,o),
(191,-11,o),
(253,-11,cs),
(402,-11,o),
(491,14,o),
(507,146,cs),
(517,230,o),
(475,282,o),
(393,304,cs),
(284,333,ls),
(243,344,o),
(233,350,o),
(235,360,cs),
(237,370,o),
(252,370,o),
(322,370,cs),
(380,370,o),
(447,370,o),
(513,370,c),
(530,491,l),
(471,504,o),
(357,514,o),
(278,514,cs)
);
}
);
width = 548;
}
);
unicode = 115;
},
{
glyphname = germandbls;
kernLeft = f;
kernRight = germandbls;
lastChange = "2024-09-05 12:38:03 +0000";
layers = (
{
layerId = "54A40BFF-1CE0-48F0-82EB-25AA62455493";
shapes = (
{
closed = 1;
nodes = (
(257,721,o),
(172,700,o),
(150,544,cs),
(67,-47,ls),
(57,-114,o),
(31,-130,o),
(-31,-130,cs),
(-107,-130,l),
(-120,-194,l),
(-75,-199,o),
(-29,-201,o),
(-10,-201,cs),
(87,-201,o),
(136,-156,o),
(150,-60,cs),
(234,532,ls),
(247,627,o),
(285,651,o),
(401,651,cs),
(517,651,o),
(532,627,o),
(528,589,cs),
(524,548,o),
(497,527,o),
(447,498,cs),
(375,460,o),
(320,433,o),
(312,370,cs),
(305,322,o),
(331,285,o),
(378,257,cs),
(479,196,ls),
(512,175,o),
(533,162,o),
(528,122,cs),
(521,70,o),
(484,61,o),
(405,61,cs),
(371,60,o),
(321,62,o),
(271,65,c),
(261,0,l),
(324,-9,o),
(379,-11,o),
(420,-11,cs),
(533,-11,o),
(600,7,o),
(614,110,cs),
(623,181,o),
(597,210,o),
(543,243,cs),
(445,302,ls),
(409,324,o),
(389,338,o),
(394,367,cs),
(402,410,o),
(451,428,o),
(506,456,cs),
(578,498,o),
(604,534,o),
(610,587,cs),
(624,688,o),
(564,721,o),
(394,721,cs)
);
},
{
closed = 1;
nodes = (
(146,487,l),
(53,481,l),
(44,420,l),
(176,420,l),
(187,487,l)
);
}
);
width = 672.25882;
},
{
background = {
shapes = (
{
closed = 1;
nodes = (
(334,494,o),
(271,487,o),
(255,387,cs),
(242,301,o),
(284,283,o),
(342,261,cs),
(501,201,ls),
(550,183,o),
(580,168,o),
(571,104,cs),
(560,24,o),
(512,12,o),
(390,10,cs),
(327,9,o),
(282,11,o),
(220,18,c),
(216,0,l),
(288,-11,o),
(343,-12,o),
(386,-12,cs),
(507,-12,o),
(580,-4,o),
(595,100,cs),
(606,177,o),
(568,200,o),
(503,224,cs),
(343,284,ls),
(290,304,o),
(269,323,o),
(279,383,cs),
(293,468,o),
(336,472,o),
(448,470,cs),
(507,469,o),
(571,466,o),
(629,462,c),
(633,480,l),
(575,487,o),
(509,491,o),
(447,492,cs)
);
}
);
};
layerId = "E21536AE-9819-4FE7-8A20-8865FE3C0515";
shapes = (
{
closed = 1;
nodes = (
(268,712,o),
(177,699,o),
(154,532,cs),
(68,-76,ls),
(56,-158,o),
(26,-188,o),
(-48,-188,cs),
(-127,-188,l),
(-128,-206,l),
(-103,-209,o),
(-60,-210,o),
(-46,-210,cs),
(42,-210,o),
(78,-173,o),
(92,-78,cs),
(178,530,ls),
(196,659,o),
(245,690,o),
(388,690,cs),
(531,690,o),
(558,659,o),
(555,603,cs),
(551,523,o),
(488,502,o),
(456,492,cs),
(367,464,o),
(297,450,o),
(288,367,cs),
(282,314,o),
(306,289,o),
(362,261,cs),
(488,201,ls),
(522,185,o),
(558,171,o),
(549,104,cs),
(539,26,o),
(487,13,o),
(397,11,cs),
(348,10,o),
(294,12,o),
(236,18,c),
(233,0,l),
(301,-10,o),
(356,-11,o),
(387,-11,cs),
(489,-11,o),
(560,0,o),
(573,100,cs),
(582,169,o),
(555,195,o),
(493,224,cs),
(365,284,ls),
(320,305,o),
(308,326,o),
(311,363,cs),
(317,438,o),
(375,444,o),
(458,471,cs),
(520,491,o),
(571,519,o),
(576,599,cs),
(582,689,o),
(520,712,o),
(376,712,cs)
);
},
{
closed = 1;
nodes = (
(153,480,l),
(59,475,l),
(56,458,l),
(160,458,l),
(164,480,l)
);
}
);
width = 646;
},
{
layerId = "924B7471-43FB-4CAD-AF7E-45215B64D997";
shapes = (
{
closed = 1;
nodes = (
(223,742,o),
(149,701,o),
(131,570,cs),
(52,5,ls),
(45,-37,o),
(31,-51,o),
(-9,-51,cs),
(-58,-51,l),
(-89,-176,l),
(-20,-186,o),
(27,-191,o),
(63,-191,cs),
(194,-191,o),
(240,-123,o),
(254,-32,cs),
(333,537,ls),
(340,589,o),
(359,602,o),
(425,602,cs),
(463,602,o),
(475,598,o),
(471,568,cs),
(468,545,o),
(459,532,o),
(422,491,cs),
(375,438,o),
(357,418,o),
(352,378,cs),
(345,322,o),
(367,292,o),
(408,254,cs),
(434,234,ls),
(487,184,o),
(495,171,o),
(495,157,cs),
(495,131,o),
(470,128,o),
(437,128,cs),
(393,128,o),
(362,128,o),
(327,128,c),
(309,0,l),
(383,-7,o),
(434,-11,o),
(482,-11,cs),
(640,-11,o),
(687,33,o),
(702,123,cs),
(711,173,o),
(694,218,o),
(640,273,cs),
(594,316,ls),
(564,345,o),
(549,359,o),
(551,378,cs),
(554,402,o),
(579,421,o),
(608,454,cs),
(648,499,o),
(657,538,o),
(662,566,cs),
(683,688,o),
(634,742,o),
(413,742,cs)
);
},
{
closed = 1;
nodes = (
(121,500,l),
(36,495,l),
(21,374,l),
(203,374,l),
(221,500,l)
);
}
);
width = 731;
}
);
unicode = 223;
},
{
glyphname = t;
kernLeft = t;
kernRight = t;
lastChange = "2024-09-05 13:41:50 +0000";
layers = (
{
anchors = (
{
name = bottom;
pos = (192,-9);
},
{
name = center;
pos = (195,302);
},
{
name = top;
pos = (207,653);
},
{
name = topright;
pos = (346,714);
}
);
layerId = "54A40BFF-1CE0-48F0-82EB-25AA62455493";
shapes = (
{
closed = 1;
nodes = (
(161,631,l),
(89,124,ls),
(77,40,o),
(115,-9,o),
(199,-9,cs),
(221,-9,o),
(276,-5,o),
(308,4,c),
(305,69,l),
(229,69,ls),
(182,69,o),
(168,85,o),
(175,132,cs),
(245,631,l)
);
},
{
closed = 1;
nodes = (
(146,487,l),
(50,482,l),
(42,420,l),
(370,420,l),
(380,487,l)
);
}
);
width = 377.47059;
},
{
anchors = (
{
name = bottom;
pos = (173,-6);
},
{
name = center;
pos = (180,302);
},
{
name = top;
pos = (179,654);
},
{
name = topright;
pos = (306,701);
}
);
layerId = "E21536AE-9819-4FE7-8A20-8865FE3C0515";
shapes = (
{
closed = 1;
nodes = (
(165,631,l),
(90,96,ls),
(81,31,o),
(112,-6,o),
(187,-6,cs),
(203,-6,o),
(245,-4,o),
(272,0,c),
(271,16,l),
(182,16,ls),
(131,16,o),
(106,42,o),
(114,95,cs),
(189,631,l)
);
},
{
closed = 1;
nodes = (
(150,480,l),
(56,475,l),
(53,458,l),
(342,458,l),
(346,480,l)
);
}
);
width = 341;
},
{
anchors = (
{
name = bottom;
pos = (219,-19);
},
{
name = center;
pos = (222,302);
},
{
name = top;
pos = (257,649);
},
{
name = topright;
pos = (468,756);
}
);
layerId = "924B7471-43FB-4CAD-AF7E-45215B64D997";
shapes = (
{
closed = 1;
nodes = (
(147,631,l),
(73,130,ls),
(60,42,o),
(121,-14,o),
(223,-14,cs),
(265,-14,o),
(344,-8,o),
(390,10,c),
(379,146,l),
(320,146,l),
(289,146,o),
(285,152,o),
(289,178,cs),
(354,631,l)
);
},
{
closed = 1;
nodes = (
(135,500,l),
(38,495,l),
(23,374,l),
(438,374,l),
(455,500,l)
);
}
);
width = 439;
}
);
unicode = 116;
},
{
glyphname = tbar;
kernLeft = t;
kernRight = t;
lastChange = "2024-09-05 12:38:03 +0000";
layers = (
{
layerId = "54A40BFF-1CE0-48F0-82EB-25AA62455493";
shapes = (
{
closed = 1;
nodes = (
(49,310,l),
(43,261,l),
(326,261,l),
(333,310,l)
);
},
{
ref = t;
}
);
userData = {
com.schriftgestaltung.componentsAlignment = (
-1
);
};
width = 377.47059;
},
{
layerId = "E21536AE-9819-4FE7-8A20-8865FE3C0515";
shapes = (
{
closed = 1;
nodes = (
(50,320,l),
(47,300,l),
(302,300,l),
(305,320,l)
);
},
{
ref = t;
}
);
width = 341;
},
{
layerId = "924B7471-43FB-4CAD-AF7E-45215B64D997";
shapes = (
{
closed = 1;
nodes = (
(45,316,l),
(32,222,l),
(375,222,l),
(388,316,l)
);
},
{
ref = t;
}
);
width = 439;
}
);
unicode = 359;
},
{
glyphname = tcaron;
kernLeft = t;
kernRight = t;
lastChange = "2024-09-05 13:41:50 +0000";
layers = (
{
background = {
anchors = (
{
name = bottom;
pos = (192,-9);
},
{
name = center;
pos = (195,302);
},
{
name = top;
pos = (207,653);
}
);
shapes = (
{
closed = 1;
nodes = (
(161,631,l),
(89,124,ls),
(77,40,o),
(115,-9,o),
(199,-9,cs),
(221,-9,o),
(276,-5,o),
(308,4,c),
(305,69,l),
(229,69,ls),
(182,69,o),
(168,85,o),
(175,132,cs),
(245,631,l)
);
},
{
closed = 1;
nodes = (
(146,487,l),
(50,482,l),
(42,420,l),
(370,420,l),
(380,487,l)
);
},
{
closed = 1;
nodes = (
(349,770,ls),
(326,770,o),
(320,764,o),
(316,745,cs),
(308,691,ls),
(306,677,o),
(315,666,o),
(330,668,c),
(324,630,o),
(311,594,o),
(299,563,c),
(335,551,l),
(356,588,o),
(379,642,o),
(385,684,cs),
(393,742,ls),
(395,762,o),
(389,770,o),
(370,770,cs)
);
}
);
};
layerId = "54A40BFF-1CE0-48F0-82EB-25AA62455493";
shapes = (
{
ref = t;
},
{
pos = (292,59);
ref = caroncomb.alt;
}
);
userData = {
com.schriftgestaltung.componentsAlignment = (
-1,
-1
);
};
width = 377;
},
{
background = {
anchors = (
{
name = bottom;
pos = (173,-6);
},
{
name = center;
pos = (180,302);
},
{
name = top;
pos = (179,654);
}
);
shapes = (
{
closed = 1;
nodes = (
(165,631,l),
(90,96,ls),
(81,31,o),
(112,-6,o),
(187,-6,cs),
(203,-6,o),
(245,-4,o),
(272,0,c),
(271,16,l),
(182,16,ls),
(131,16,o),
(106,42,o),
(114,95,cs),
(189,631,l)
);
},
{
closed = 1;
nodes = (
(150,480,l),
(56,475,l),
(53,458,l),
(342,458,l),
(346,480,l)
);
},
{
closed = 1;
nodes = (
(309,746,ls),
(301,746,o),
(299,744,o),
(298,737,cs),
(290,681,ls),
(289,676,o),
(292,672,o),
(295,672,c),
(289,633,o),
(283,606,o),
(272,574,c),
(285,570,l),
(299,601,o),
(314,649,o),
(318,679,cs),
(326,737,ls),
(327,744,o),
(325,746,o),
(319,746,cs)
);
}
);
};
layerId = "E21536AE-9819-4FE7-8A20-8865FE3C0515";
shapes = (
{
ref = t;
},
{
pos = (252,46);
ref = caroncomb.alt;
}
);
userData = {
com.schriftgestaltung.componentsAlignment = (
0,
-1
);
};
width = 341;
},
{
background = {
anchors = (
{
name = bottom;
pos = (219,-19);
},
{
name = center;
pos = (222,302);
},
{
name = top;
pos = (257,649);
}
);
shapes = (
{
closed = 1;
nodes = (
(147,631,l),
(73,130,ls),
(60,42,o),
(121,-14,o),
(223,-14,cs),
(265,-14,o),
(344,-8,o),
(390,10,c),
(379,146,l),
(320,146,l),
(289,146,o),
(285,152,o),
(289,178,cs),
(354,631,l)
);
},
{
closed = 1;
nodes = (
(135,500,l),
(38,495,l),
(23,374,l),
(438,374,l),
(455,500,l)
);
},
{
closed = 1;
nodes = (
(451,817,ls),
(409,817,o),
(390,803,o),
(382,758,cs),
(376,724,ls),
(370,688,o),
(383,670,o),
(420,671,c),
(413,633,o),
(403,599,o),
(387,562,c),
(458,535,l),
(491,578,o),
(522,647,o),
(530,705,cs),
(537,753,ls),
(544,799,o),
(525,817,o),
(481,817,cs)
);
}
);
};
layerId = "924B7471-43FB-4CAD-AF7E-45215B64D997";
shapes = (
{
ref = t;
},
{
pos = (414,101);
ref = caroncomb.alt;
}
);
userData = {
com.schriftgestaltung.componentsAlignment = (
0,
-1
);
};
width = 439;
}
);
unicode = 357;
},
{
glyphname = u;
kernLeft = u;
kernRight = q;
lastChange = "2024-09-05 12:38:03 +0000";
layers = (
{
anchors = (
{
name = bottom;
pos = (250,-10);
},
{
name = ogonek;
pos = (450,0);
},
{
name = top;
pos = (322,558);
}
);
layerId = "54A40BFF-1CE0-48F0-82EB-25AA62455493";
shapes = (
{
closed = 1;
nodes = (
(101,487,l),
(50,123,ls),
(37,39,o),
(77,-13,o),
(166,-13,cs),
(244,-13,o),
(317,31,o),
(404,118,c),
(396,179,l),
(309,100,o),
(257,61,o),
(195,61,cs),
(145,61,o),
(128,84,o),
(137,144,cs),
(186,487,l)
);
},
{
closed = 1;
nodes = (
(433,487,l),
(387,148,l),
(393,134,l),
(384,0,l),
(450,0,l),
(518,487,l)
);
}
);
width = 566.94118;
},
{
anchors = (
{
name = bottom;
pos = (252,-9);
},
{
name = ogonek;
pos = (422,0);
},
{
name = top;
pos = (311,558);
}
);
background = {
shapes = (
{
closed = 1;
nodes = (
(258,-12,o),
(341,39,o),
(435,119,c),
(436,144,l),
(331,56,o),
(258,11,o),
(187,11,cs),
(114,11,o),
(83,43,o),
(94,121,cs),
(145,480,l),
(121,480,l),
(70,120,ls),
(58,34,o),
(97,-12,o),
(183,-12,cs)
);
},
{
closed = 1;
nodes = (
(437,0,l),
(505,480,l),
(481,480,l),
(433,138,l),
(434,120,l),
(419,0,l)
);
}
);
};
layerId = "E21536AE-9819-4FE7-8A20-8865FE3C0515";
shapes = (
{
closed = 1;
nodes = (
(116,480,l),
(65,120,ls),
(52,34,o),
(92,-12,o),
(178,-12,cs),
(249,-12,o),
(331,37,o),
(423,130,c),
(422,154,l),
(324,60,o),
(254,11,o),
(182,11,cs),
(109,11,o),
(78,45,o),
(89,121,cs),
(140,480,l)
);
},
{
closed = 1;
nodes = (
(466,480,l),
(419,147,l),
(420,131,l),
(404,0,l),
(422,0,l),
(490,480,l)
);
}
);
width = 556;
},
{
anchors = (
{
name = bottom;
pos = (267,-19);
},
{
name = ogonek;
pos = (529,0);
},
{
name = top;
pos = (343,558);
}
);
background = {
shapes = (
{
closed = 1;
nodes = (
(232,-14,o),
(329,41,o),
(390,126,c),
(353,213,l),
(313,175,o),
(287,165,o),
(268,163,cs),
(243,160,o),
(239,171,o),
(243,198,cs),
(286,500,l),
(75,500,l),
(23,130,ls),
(8,34,o),
(68,-14,o),
(147,-14,cs)
);
},
{
closed = 1;
nodes = (
(523,0,l),
(593,500,l),
(382,500,l),
(333,146,l),
(352,134,l),
(359,0,l)
);
}
);
};
guides = (
{
angle = 82;
pos = (323,189);
}
);
layerId = "924B7471-43FB-4CAD-AF7E-45215B64D997";
shapes = (
{
closed = 1;
nodes = (
(69,500,l),
(18,130,ls),
(5,38,o),
(53,-14,o),
(157,-14,cs),
(237,-14,o),
(313,28,o),
(401,126,c),
(365,212,l),
(316,174,o),
(290,162,o),
(258,162,cs),
(243,162,o),
(232,167,o),
(235,189,cs),
(280,500,l)
);
},
{
closed = 1;
nodes = (
(390,500,l),
(340,146,l),
(359,134,l),
(365,0,l),
(529,0,l),
(598,500,l)
);
}
);
width = 613;
}
);
unicode = 117;
},
{
glyphname = v;
kernLeft = v;
kernRight = v;
lastChange = "2024-09-05 12:38:03 +0000";
layers = (
{
layerId = "54A40BFF-1CE0-48F0-82EB-25AA62455493";
shapes = (
{
closed = 1;
nodes = (
(429,487,l),
(412,392,o),
(393,325,o),
(354,239,cs),
(324,168,o),
(296,119,o),
(279,96,cs),
(261,72,o),
(248,67,o),
(224,67,cs),
(208,67,l),
(134,487,l),
(45,487,l),
(140,23,ls),
(143,10,o),
(154,0,o),
(168,0,cs),
(243,0,ls),
(292,0,o),
(314,17,o),
(339,51,cs),
(361,81,o),
(394,138,o),
(424,204,cs),
(458,279,o),
(496,384,o),
(517,487,c)
);
}
);
width = 530.71765;
},
{
background = {
shapes = (
{
closed = 1;
nodes = (
(473,480,l),
(217,21,l),
(203,21,l),
(77,480,l),
(52,480,l),
(183,9,ls),
(185,4,o),
(189,0,o),
(195,0,cs),
(222,0,ls),
(228,0,o),
(232,2,o),
(235,7,cs),
(499,480,l)
);
}
);
};
layerId = "E21536AE-9819-4FE7-8A20-8865FE3C0515";
shapes = (
{
closed = 1;
nodes = (
(461,480,l),
(438,385,o),
(403,296,o),
(343,195,cs),
(302,126,o),
(262,70,o),
(242,46,cs),
(226,27,o),
(219,21,o),
(199,21,cs),
(180,21,l),
(84,480,l),
(59,480,l),
(160,9,ls),
(161,4,o),
(166,0,o),
(172,0,cs),
(201,0,ls),
(222,0,o),
(235,4,o),
(251,22,cs),
(276,50,o),
(314,103,o),
(363,184,cs),
(411,263,o),
(450,337,o),
(486,480,c)
);
}
);
width = 503;
},
{
associatedMasterId = "E21536AE-9819-4FE7-8A20-8865FE3C0515";
layerId = "5D7102F6-05D4-4E07-82F3-B6F3C7FE7697";
name = "Light Jun 11 13, 15:17";
shapes = (
{
closed = 1;
nodes = (
(444,480,l),
(415,366,o),
(387,298,o),
(326,196,cs),
(273,107,o),
(224,40,o),
(209,21,c),
(173,21,l),
(77,480,l),
(52,480,l),
(153,9,ls),
(154,4,o),
(159,0,o),
(165,0,cs),
(212,0,ls),
(218,0,o),
(221,2,o),
(225,7,cs),
(256,43,o),
(328,158,o),
(344,184,cs),
(394,265,o),
(433,338,o),
(469,480,c)
);
}
);
width = 453;
},
{
associatedMasterId = "E21536AE-9819-4FE7-8A20-8865FE3C0515";
layerId = "9219EE77-5F9B-495C-A631-AF466BFB0488";
name = "Light Jun 11 13, 15:17.background";
shapes = (
{
closed = 1;
nodes = (
(473,480,l),
(217,21,l),
(203,21,l),
(77,480,l),
(52,480,l),
(183,9,ls),
(185,4,o),
(189,0,o),
(195,0,cs),
(222,0,ls),
(228,0,o),
(232,2,o),
(235,7,cs),
(499,480,l)
);
}
);
width = 0;
},
{
layerId = "924B7471-43FB-4CAD-AF7E-45215B64D997";
shapes = (
{
closed = 1;
nodes = (
(384,500,l),
(380,458,o),
(373,386,o),
(359,318,cs),
(348,265,o),
(338,227,o),
(323,190,cs),
(302,138,o),
(296,126,o),
(268,126,cs),
(259,126,l),
(262,500,l),
(32,500,l),
(85,53,ls),
(88,23,o),
(112,0,o),
(144,0,cs),
(292,0,ls),
(386,0,o),
(436,14,o),
(487,104,cs),
(503,133,o),
(536,199,o),
(564,286,cs),
(583,344,o),
(603,426,o),
(613,500,c)
);
}
);
width = 607;
}
);
unicode = 118;
},
{
glyphname = w;
kernLeft = w;
kernRight = w;
lastChange = "2024-09-05 14:05:31 +0000";
layers = (
{
anchors = (
{
name = top;
pos = (459,554);
}
);
layerId = "54A40BFF-1CE0-48F0-82EB-25AA62455493";
shapes = (
{
closed = 1;
nodes = (
(212,0,ls),
(253,0,o),
(291,14,o),
(319,63,cs),
(342,99,o),
(368,160,o),
(386,218,cs),
(408,288,o),
(426,374,o),
(432,431,c),
(445,431,l),
(491,23,ls),
(493,10,o),
(503,0,o),
(518,0,cs),
(574,0,ls),
(613,0,o),
(635,16,o),
(660,48,cs),
(683,77,o),
(717,138,o),
(746,204,cs),
(784,291,o),
(813,390,o),
(835,487,c),
(746,487,l),
(731,398,o),
(712,318,o),
(681,239,cs),
(655,170,o),
(636,139,o),
(610,98,cs),
(599,80,o),
(586,67,o),
(569,67,cs),
(557,67,l),
(508,467,ls),
(507,478,o),
(498,487,o),
(486,487,cs),
(393,487,ls),
(381,487,o),
(371,479,o),
(369,466,cs),
(351,358,o),
(339,305,o),
(317,239,cs),
(300,182,o),
(279,132,o),
(262,102,cs),
(246,74,o),
(232,67,o),
(215,67,cs),
(202,67,l),
(133,487,l),
(45,487,l),
(135,23,ls),
(138,10,o),
(148,0,o),
(162,0,cs)
);
}
);
width = 850.2;
},
{
anchors = (
{
name = top;
pos = (453,558);
}
);
background = {
shapes = (
{
closed = 1;
nodes = (
(1078,480,l),
(1050,363,o),
(1031,305,o),
(976,196,cs),
(930,105,o),
(905,68,o),
(873,21,c),
(837,21,l),
(780,480,l),
(715,480,l),
(688,354,o),
(673,290,o),
(633,196,cs),
(593,102,o),
(569,73,o),
(531,21,c),
(495,21,l),
(419,480,l),
(394,480,l),
(475,9,ls),
(476,4,o),
(481,0,o),
(487,0,cs),
(534,0,ls),
(540,0,o),
(543,2,o),
(547,7,c),
(576,41,o),
(624,118,o),
(654,188,cs),
(681,251,o),
(713,358,o),
(733,462,c),
(760,462,l),
(817,9,ls),
(818,4,o),
(823,0,o),
(829,0,cs),
(876,0,ls),
(882,0,o),
(885,2,o),
(889,7,c),
(913,41,o),
(951,99,o),
(995,184,cs),
(1039,269,o),
(1072,348,o),
(1103,480,c)
);
},
{
closed = 1;
nodes = (
(393,480,l),
(365,363,o),
(346,305,o),
(291,196,cs),
(245,105,o),
(220,68,o),
(188,21,c),
(152,21,l),
(95,480,l),
(30,480,l),
(3,354,o),
(-12,290,o),
(-52,196,cs),
(-92,102,o),
(-116,73,o),
(-154,21,c),
(-190,21,l),
(-266,480,l),
(-291,480,l),
(-210,9,ls),
(-209,4,o),
(-204,0,o),
(-198,0,cs),
(-151,0,ls),
(-145,0,o),
(-142,2,o),
(-138,7,c),
(-109,41,o),
(-61,118,o),
(-31,188,cs),
(-4,251,o),
(28,358,o),
(48,462,c),
(75,462,l),
(132,9,ls),
(133,4,o),
(138,0,o),
(144,0,cs),
(191,0,ls),
(197,0,o),
(200,2,o),
(204,7,c),
(228,41,o),
(266,99,o),
(310,184,cs),
(354,269,o),
(387,348,o),
(418,480,c)
);
}
);
};
guides = (
{
pos = (389,86);
},
{
pos = (408,385);
}
);
layerId = "E21536AE-9819-4FE7-8A20-8865FE3C0515";
shapes = (
{
closed = 1;
nodes = (
(181,0,ls),
(203,0,o),
(215,7,o),
(227,20,cs),
(254,49,o),
(300,131,o),
(327,191,cs),
(371,289,o),
(406,416,o),
(417,460,c),
(427,460,l),
(496,9,ls),
(497,4,o),
(502,0,o),
(508,0,cs),
(527,0,ls),
(552,0,o),
(564,9,o),
(576,23,cs),
(596,46,o),
(638,109,o),
(678,184,cs),
(723,268,o),
(754,348,o),
(785,480,c),
(760,480,l),
(740,393,o),
(713,301,o),
(659,196,cs),
(631,141,o),
(602,98,o),
(566,46,cs),
(555,30,o),
(544,21,o),
(528,21,cs),
(516,21,l),
(447,471,ls),
(446,476,o),
(441,480,o),
(435,480,cs),
(410,481,ls),
(404,481,o),
(400,478,o),
(399,473,cs),
(376,392,o),
(346,287,o),
(305,197,cs),
(274,129,o),
(237,69,o),
(217,43,cs),
(200,21,o),
(193,21,o),
(181,21,cs),
(169,21,l),
(83,480,l),
(58,480,l),
(149,9,ls),
(150,4,o),
(155,0,o),
(161,0,cs)
);
}
);
width = 813;
},
{
anchors = (
{
name = top;
pos = (447,558);
}
);
associatedMasterId = "E21536AE-9819-4FE7-8A20-8865FE3C0515";
guides = (
{
pos = (383,86);
},
{
pos = (402,385);
}
);
layerId = "9636C277-4BAF-475E-81E0-298E1DD9472A";
name = "Light Italic Jun 14 13, 15:38";
shapes = (
{
closed = 1;
nodes = (
(754,480,l),
(730,375,o),
(702,293,o),
(653,196,cs),
(623,137,o),
(587,85,o),
(560,46,cs),
(549,30,o),
(538,21,o),
(522,21,cs),
(510,21,l),
(454,472,ls),
(453,477,o),
(451,481,o),
(431,481,cs),
(406,481,o),
(385,475,o),
(377,442,cs),
(354,350,o),
(338,288,o),
(296,197,cs),
(267,134,o),
(231,69,o),
(211,43,cs),
(195,21,o),
(185,21,o),
(175,21,cs),
(163,21,l),
(77,480,l),
(52,480,l),
(143,9,ls),
(144,4,o),
(149,0,o),
(155,0,cs),
(175,0,ls),
(197,0,o),
(209,7,o),
(221,20,cs),
(250,52,o),
(296,144,o),
(318,191,cs),
(358,277,o),
(369,319,o),
(400,438,cs),
(404,454,o),
(408,462,o),
(433,460,c),
(490,9,ls),
(491,4,o),
(496,0,o),
(502,0,cs),
(521,0,ls),
(546,0,o),
(558,9,o),
(570,23,cs),
(592,49,o),
(635,114,o),
(672,184,cs),
(718,271,o),
(747,345,o),
(779,480,c)
);
}
);
width = 771;
},
{
associatedMasterId = "E21536AE-9819-4FE7-8A20-8865FE3C0515";
layerId = "BC961B2E-35E4-49B8-8717-512FDF742801";
name = "Light Italic Jun 14 13, 15:38.background";
shapes = (
{
closed = 1;
nodes = (
(1078,480,l),
(1050,363,o),
(1031,305,o),
(976,196,cs),
(930,105,o),
(905,68,o),
(873,21,c),
(837,21,l),
(780,480,l),
(715,480,l),
(688,354,o),
(673,290,o),
(633,196,cs),
(593,102,o),
(569,73,o),
(531,21,c),
(495,21,l),
(419,480,l),
(394,480,l),
(475,9,ls),
(476,4,o),
(481,0,o),
(487,0,cs),
(534,0,ls),
(540,0,o),
(543,2,o),
(547,7,c),
(576,41,o),
(624,118,o),
(654,188,cs),
(681,251,o),
(713,358,o),
(733,462,c),
(760,462,l),
(817,9,ls),
(818,4,o),
(823,0,o),
(829,0,cs),
(876,0,ls),
(882,0,o),
(885,2,o),
(889,7,c),
(913,41,o),
(951,99,o),
(995,184,cs),
(1039,269,o),
(1072,348,o),
(1103,480,c)
);
},
{
closed = 1;
nodes = (
(393,480,l),
(365,363,o),
(346,305,o),
(291,196,cs),
(245,105,o),
(220,68,o),
(188,21,c),
(152,21,l),
(95,480,l),
(30,480,l),
(3,354,o),
(-12,290,o),
(-52,196,cs),
(-92,102,o),
(-116,73,o),
(-154,21,c),
(-190,21,l),
(-266,480,l),
(-291,480,l),
(-210,9,ls),
(-209,4,o),
(-204,0,o),
(-198,0,cs),
(-151,0,ls),
(-145,0,o),
(-142,2,o),
(-138,7,c),
(-109,41,o),
(-61,118,o),
(-31,188,cs),
(-4,251,o),
(28,358,o),
(48,462,c),
(75,462,l),
(132,9,ls),
(133,4,o),
(138,0,o),
(144,0,cs),
(191,0,ls),
(197,0,o),
(200,2,o),
(204,7,c),
(228,41,o),
(266,99,o),
(310,184,cs),
(354,269,o),
(387,348,o),
(418,480,c)
);
}
);
width = 0;
},
{
anchors = (
{
name = top;
pos = (491,546);
}
);
layerId = "924B7471-43FB-4CAD-AF7E-45215B64D997";
shapes = (
{
closed = 1;
nodes = (
(226,0,ls),
(327,0,o),
(394,5,o),
(431,142,cs),
(439,173,o),
(447,214,o),
(454,253,cs),
(464,308,o),
(471,359,o),
(473,376,c),
(485,376,l),
(483,56,ls),
(483,25,o),
(508,0,o),
(542,0,cs),
(619,0,ls),
(760,0,o),
(802,37,o),
(839,128,cs),
(858,174,o),
(874,232,o),
(888,294,cs),
(903,359,o),
(914,430,o),
(922,500,c),
(714,500,l),
(709,428,o),
(703,374,o),
(695,322,cs),
(689,285,o),
(684,249,o),
(675,208,cs),
(665,162,o),
(662,130,o),
(637,130,cs),
(630,130,l),
(627,447,ls),
(626,477,o),
(602,500,o),
(570,500,cs),
(398,500,ls),
(356,500,o),
(339,470,o),
(336,448,cs),
(326,384,o),
(320,331,o),
(312,287,cs),
(306,250,o),
(300,220,o),
(294,196,cs),
(283,151,o),
(272,130,o),
(252,130,cs),
(246,130,l),
(254,501,l),
(41,501,l),
(57,56,ls),
(59,25,o),
(83,0,o),
(116,0,cs)
);
}
);
width = 925;
}
);
unicode = 119;
},
{
glyphname = x;
kernLeft = x;
kernRight = x;
lastChange = "2024-09-05 12:38:03 +0000";
layers = (
{
layerId = "54A40BFF-1CE0-48F0-82EB-25AA62455493";
shapes = (
{
closed = 1;
nodes = (
(63,487,l),
(180,252,l),
(-19,0,l),
(76,0,l),
(265,244,l),
(148,487,l)
);
},
{
closed = 1;
nodes = (
(211,286,l),
(201,220,l),
(305,220,l),
(315,286,l)
);
},
{
closed = 1;
nodes = (
(428,487,l),
(250,258,l),
(377,0,l),
(463,0,l),
(336,251,l),
(520,487,l)
);
}
);
width = 525.8;
},
{
layerId = "E21536AE-9819-4FE7-8A20-8865FE3C0515";
shapes = (
{
closed = 1;
nodes = (
(75,480,l),
(211,251,l),
(-7,0,l),
(25,0,l),
(239,249,l),
(102,480,l)
);
},
{
closed = 1;
nodes = (
(220,262,l),
(217,240,l),
(269,240,l),
(272,262,l)
);
},
{
closed = 1;
nodes = (
(451,480,l),
(251,252,l),
(399,0,l),
(426,0,l),
(279,250,l),
(481,480,l)
);
}
);
width = 501;
},
{
layerId = "924B7471-43FB-4CAD-AF7E-45215B64D997";
shapes = (
{
closed = 1;
nodes = (
(39,500,l),
(136,255,l),
(-45,0,l),
(171,0,l),
(331,238,l),
(233,500,l)
);
},
{
closed = 1;
nodes = (
(203,316,l),
(188,198,l),
(393,198,l),
(409,316,l)
);
},
{
closed = 1;
nodes = (
(417,500,l),
(263,273,l),
(367,0,l),
(564,0,l),
(458,255,l),
(627,500,l)
);
}
);
width = 604;
},
{
associatedMasterId = "924B7471-43FB-4CAD-AF7E-45215B64D997";
layerId = "27F60CA0-648D-46EA-9890-5348D751C8C3";
name = "Bold Apr 29 13, 20:04";
shapes = (
{
closed = 1;
nodes = (
(565,0,l),
(387,261,l),
(555,500,l),
(325,500,l),
(274,391,l),
(225,500,l),
(-5,500,l),
(164,258,l),
(-15,0,l),
(215,0,l),
(279,124,l),
(335,0,l)
);
}
);
width = 550;
}
);
unicode = 120;
},
{
glyphname = y;
kernLeft = y;
kernRight = y;
lastChange = "2024-09-05 12:38:03 +0000";
layers = (
{
anchors = (
{
name = bottom;
pos = (413,-10);
},
{
name = top;
pos = (290,554);
}
);
layerId = "54A40BFF-1CE0-48F0-82EB-25AA62455493";
shapes = (
{
closed = 1;
nodes = (
(435,487,l),
(404,333,o),
(363,227,o),
(301,106,cs),
(215,-66,o),
(135,-121,o),
(35,-145,c),
(51,-206,l),
(178,-183,o),
(269,-117,o),
(375,81,cs),
(450,216,o),
(491,345,o),
(523,487,c)
);
},
{
closed = 1;
nodes = (
(44,487,l),
(138,45,ls),
(144,18,o),
(166,0,o),
(195,0,cs),
(251,0,l),
(290,67,l),
(233,67,ls),
(221,67,o),
(213,74,o),
(210,86,cs),
(133,487,l)
);
}
);
width = 539.44706;
},
{
anchors = (
{
name = bottom;
pos = (364,-9);
},
{
name = top;
pos = (280,558);
}
);
background = {
shapes = (
{
closed = 1;
nodes = (
(451,480,l),
(428,385,o),
(393,296,o),
(333,195,cs),
(292,126,o),
(252,70,o),
(232,46,cs),
(216,27,o),
(209,21,o),
(189,21,cs),
(170,21,l),
(74,480,l),
(49,480,l),
(150,9,ls),
(151,4,o),
(156,0,o),
(162,0,cs),
(191,0,ls),
(212,0,o),
(225,4,o),
(241,22,cs),
(266,50,o),
(304,103,o),
(353,184,cs),
(401,263,o),
(440,337,o),
(476,480,c)
);
}
);
};
layerId = "E21536AE-9819-4FE7-8A20-8865FE3C0515";
shapes = (
{
closed = 1;
nodes = (
(462,480,l),
(419,334,o),
(370,210,o),
(277,63,cs),
(190,-73,o),
(126,-166,o),
(39,-195,c),
(43,-210,l),
(139,-187,o),
(206,-89,o),
(301,58,cs),
(388,193,o),
(451,344,o),
(487,480,c)
);
},
{
closed = 1;
nodes = (
(56,480,l),
(154,37,ls),
(159,15,o),
(177,0,o),
(200,0,cs),
(245,0,l),
(258,22,l),
(207,21,ls),
(191,21,o),
(179,31,o),
(175,47,cs),
(82,480,l)
);
}
);
width = 511;
},
{
anchors = (
{
name = bottom;
pos = (530,-19);
},
{
name = top;
pos = (338,547);
}
);
background = {
shapes = (
{
closed = 1;
nodes = (
(375,500,l),
(372,458,o),
(366,386,o),
(354,318,cs),
(345,265,o),
(336,227,o),
(322,190,cs),
(302,138,o),
(296,126,o),
(270,126,cs),
(262,126,l),
(275,500,l),
(44,500,l),
(86,53,ls),
(89,23,o),
(113,0,o),
(145,0,cs),
(291,0,ls),
(384,0,o),
(435,13,o),
(486,104,cs),
(502,132,o),
(534,199,o),
(560,286,cs),
(578,344,o),
(596,426,o),
(605,500,c)
);
}
);
};
layerId = "924B7471-43FB-4CAD-AF7E-45215B64D997";
shapes = (
{
closed = 1;
nodes = (
(404,500,l),
(378,319,o),
(347,202,o),
(290,88,cs),
(218,-56,o),
(150,-59,o),
(53,-93,c),
(66,-206,l),
(235,-215,o),
(360,-141,o),
(455,8,cs),
(494,69,o),
(604,316,o),
(629,500,c)
);
},
{
closed = 1;
nodes = (
(30,500,l),
(92,53,ls),
(96,23,o),
(121,0,o),
(154,0,cs),
(299,0,l),
(340,126,l),
(284,126,ls),
(275,126,o),
(268,133,o),
(268,142,cs),
(260,500,l)
);
}
);
width = 622;
}
);
unicode = 121;
},
{
glyphname = z;
kernLeft = z;
kernRight = z;
lastChange = "2024-09-05 12:38:03 +0000";
layers = (
{
anchors = (
{
name = bottom;
pos = (217,0);
},
{
name = top;
pos = (283,554);
}
);
layerId = "54A40BFF-1CE0-48F0-82EB-25AA62455493";
shapes = (
{
closed = 1;
nodes = (
(15,69,l),
(113,68,l),
(472,417,l),
(374,418,l)
);
},
{
closed = 1;
nodes = (
(16,69,l),
(6,0,l),
(416,0,l),
(426,69,l)
);
},
{
closed = 1;
nodes = (
(78,487,l),
(69,417,l),
(471,417,l),
(481,487,l)
);
}
);
width = 503.96471;
},
{
anchors = (
{
name = bottom;
pos = (206,0);
},
{
name = top;
pos = (273,558);
}
);
layerId = "E21536AE-9819-4FE7-8A20-8865FE3C0515";
shapes = (
{
closed = 1;
nodes = (
(13,22,l),
(45,21,l),
(455,458,l),
(423,459,l)
);
},
{
closed = 1;
nodes = (
(13,22,l),
(10,0,l),
(393,0,l),
(396,22,l)
);
},
{
closed = 1;
nodes = (
(81,480,l),
(78,458,l),
(455,458,l),
(458,480,l)
);
}
);
width = 485;
},
{
anchors = (
{
name = bottom;
pos = (229,-19);
},
{
name = top;
pos = (309,547);
}
);
layerId = "924B7471-43FB-4CAD-AF7E-45215B64D997";
shapes = (
{
closed = 1;
nodes = (
(6,135,l),
(257,134,l),
(515,365,l),
(265,366,l)
);
},
{
closed = 1;
nodes = (
(7,135,l),
(-10,0,l),
(468,0,l),
(486,135,l)
);
},
{
closed = 1;
nodes = (
(65,500,l),
(47,365,l),
(514,365,l),
(531,500,l)
);
}
);
width = 538;
}
);
unicode = 122;
},
{
color = (255,121,166,255);
glyphname = eth.rvrn;
lastChange = "2024-09-05 12:38:03 +0000";
layers = (
{
layerId = "54A40BFF-1CE0-48F0-82EB-25AA62455493";
shapes = (
{
closed = 1;
nodes = (
(168,636,l),
(311,639,o),
(445,598,o),
(405,291,cs),
(385,132,o),
(346,59,o),
(234,59,cs),
(147,59,o),
(115,100,o),
(132,216,cs),
(146,318,o),
(185,377,o),
(287,377,cs),
(342,377,o),
(395,361,o),
(441,308,c),
(448,343,l),
(401,433,o),
(329,448,o),
(269,448,cs),
(126,448,o),
(62,362,o),
(44,222,cs),
(23,63,o),
(79,-13,o),
(230,-13,cs),
(410,-13,o),
(468,101,o),
(491,279,cs),
(535,618,o),
(368,704,o),
(181,698,c)
);
},
{
closed = 1;
nodes = (
(336,619,l),
(376,569,l),
(514,678,l),
(475,730,l)
);
}
);
width = 555.21176;
},
{
layerId = "E21536AE-9819-4FE7-8A20-8865FE3C0515";
shapes = (
{
closed = 1;
nodes = (
(170,680,l),
(272,680,o),
(492,653,o),
(441,288,cs),
(418,123,o),
(380,10,o),
(227,10,cs),
(111,10,o),
(62,66,o),
(83,218,cs),
(99,336,o),
(149,424,o),
(279,424,cs),
(341,424,o),
(414,411,o),
(459,323,c),
(466,338,l),
(421,432,o),
(341,446,o),
(283,446,cs),
(141,446,o),
(78,359,o),
(59,223,cs),
(35,58,o),
(91,-12,o),
(228,-12,cs),
(409,-12,o),
(442,129,o),
(463,277,cs),
(516,654,o),
(302,700,o),
(176,698,c)
);
},
{
closed = 1;
nodes = (
(367,634,l),
(381,620,l),
(478,681,l),
(469,698,l)
);
}
);
width = 545;
},
{
layerId = "924B7471-43FB-4CAD-AF7E-45215B64D997";
shapes = (
{
closed = 1;
nodes = (
(175,568,l),
(380,583,o),
(384,505,o),
(355,298,cs),
(337,170,o),
(327,130,o),
(276,130,cs),
(229,130,o),
(227,150,o),
(238,220,cs),
(249,290,o),
(263,321,o),
(315,321,cs),
(363,321,o),
(404,291,o),
(428,244,c),
(438,322,l),
(413,439,o),
(320,453,o),
(257,453,cs),
(121,453,o),
(40,388,o),
(18,222,cs),
(-4,58,o),
(95,-14,o),
(261,-14,cs),
(448,-14,o),
(545,58,o),
(573,283,cs),
(610,584,o),
(498,717,o),
(198,698,c)
);
},
{
closed = 1;
nodes = (
(340,588,l),
(443,477,l),
(622,633,l),
(519,746,l)
);
}
);
width = 603;
}
);
},
{
color = (255,121,166,255);
glyphname = oslash.rvrn;
lastChange = "2024-09-05 12:38:03 +0000";
layers = (
{
anchors = (
{
name = top;
pos = (318,554);
}
);
layerId = "54A40BFF-1CE0-48F0-82EB-25AA62455493";
shapes = (
{
closed = 1;
nodes = (
(132,61,l),
(58,-59,l),
(115,-89,l),
(188,30,l)
);
},
{
closed = 1;
nodes = (
(431,428,l),
(502,542,l),
(444,572,l),
(374,459,l)
);
},
{
ref = o;
}
);
userData = {
com.schriftgestaltung.componentsAlignment = (
-1
);
};
width = 564.29412;
},
{
anchors = (
{
name = top;
pos = (315,558);
}
);
layerId = "E21536AE-9819-4FE7-8A20-8865FE3C0515";
shapes = (
{
closed = 1;
nodes = (
(131,22,l),
(86,-52,l),
(104,-61,l),
(148,12,l)
);
},
{
closed = 1;
nodes = (
(417,454,l),
(463,530,l),
(445,539,l),
(399,463,l)
);
},
{
ref = o;
}
);
width = 557;
},
{
anchors = (
{
name = top;
pos = (346,547);
}
);
layerId = "924B7471-43FB-4CAD-AF7E-45215B64D997";
shapes = (
{
closed = 1;
nodes = (
(124,64,l),
(55,-48,l),
(158,-86,l),
(227,25,l)
);
},
{
closed = 1;
nodes = (
(501,426,l),
(567,533,l),
(464,571,l),
(398,464,l)
);
},
{
ref = o;
}
);
width = 615;
}
);
},
{
color = (255,225,46,255);
glyphname = oslashacute.rvrn;
lastChange = "2024-09-05 12:38:03 +0000";
layers = (
{
layerId = "54A40BFF-1CE0-48F0-82EB-25AA62455493";
shapes = (
{
closed = 1;
nodes = (
(132,61,l),
(58,-59,l),
(115,-89,l),
(188,30,l)
);
},
{
closed = 1;
nodes = (
(431,428,l),
(502,542,l),
(444,572,l),
(374,459,l)
);
},
{
ref = o;
},
{
pos = (473,11);
ref = acutecomb;
}
);
width = 560;
},
{
layerId = "E21536AE-9819-4FE7-8A20-8865FE3C0515";
shapes = (
{
closed = 1;
nodes = (
(128,16,l),
(86,-52,l),
(104,-61,l),
(151,16,l)
);
},
{
closed = 1;
nodes = (
(420,460,l),
(463,530,l),
(445,539,l),
(397,460,l)
);
},
{
ref = o;
},
{
pos = (442,4);
ref = acutecomb;
}
);
width = 557;
},
{
layerId = "924B7471-43FB-4CAD-AF7E-45215B64D997";
shapes = (
{
closed = 1;
nodes = (
(104,74,l),
(35,-38,l),
(158,-86,l),
(227,25,l)
);
},
{
closed = 1;
nodes = (
(521,417,l),
(587,524,l),
(464,571,l),
(398,464,l)
);
},
{
ref = o;
},
{
pos = (566,21);
ref = acutecomb;
}
);
width = 615;
}
);
},
{
glyphname = c_t;
kernLeft = c;
kernRight = t;
lastChange = "2024-09-05 13:11:04 +0000";
layers = (
{
anchors = (
{
name = bottom_1;
pos = (172,0);
},
{
name = bottom_2;
pos = (583,0);
},
{
name = caret_1;
pos = (411.518,0);
},
{
name = top_1;
pos = (240,487);
},
{
name = top_2;
pos = (651,487);
}
);
layerId = "54A40BFF-1CE0-48F0-82EB-25AA62455493";
shapes = (
{
closed = 1;
nodes = (
(607,631,l),
(535,124,ls),
(523,40,o),
(560,-9,o),
(645,-9,cs),
(667,-9,o),
(722,-5,o),
(754,4,c),
(751,69,l),
(675,69,ls),
(628,69,o),
(614,85,o),
(620,132,cs),
(691,631,l)
);
},
{
closed = 1;
nodes = (
(816,420,l),
(825,487,l),
(308,487,ls),
(142,487,o),
(73,421,o),
(46,247,cs),
(20,61,o),
(75,-12,o),
(246,-12,cs),
(300,-12,o),
(362,-4,o),
(413,12,c),
(407,70,l),
(357,62,o),
(293,60,o),
(261,60,cs),
(148,60,o),
(116,90,o),
(135,240,cs),
(154,387,o),
(203,421,o),
(322,421,cs)
);
}
);
userData = {
com.schriftgestaltung.Glyphs.glyph.leftMetricsKey = c;
com.schriftgestaltung.Glyphs.glyph.rightMetricsKey = t;
};
width = 823.03529;
},
{
anchors = (
{
name = bottom_1;
pos = (161,0);
},
{
name = bottom_2;
pos = (551,0);
},
{
name = caret_1;
pos = (390,0);
},
{
name = top_1;
pos = (229,480);
},
{
name = top_2;
pos = (619,480);
}
);
background = {
shapes = (
{
closed = 1;
nodes = (
(351,480,ls),
(190,480,o),
(123,413,o),
(98,240,cs),
(72,55,o),
(120,-12,o),
(273,-12,cs),
(315,-12,o),
(361,-5,o),
(400,5,c),
(399,23,l),
(360,14,o),
(303,11,o),
(279,11,cs),
(141,11,o),
(99,63,o),
(123,240,cs),
(147,406,o),
(207,458,o),
(352,458,cs),
(819,458,l),
(822,480,l)
);
},
{
closed = 1;
nodes = (
(641,631,l),
(566,95,ls),
(557,30,o),
(588,-6,o),
(662,-6,cs),
(679,-6,o),
(720,-4,o),
(748,0,c),
(747,16,l),
(659,16,ls),
(608,16,o),
(583,43,o),
(590,96,cs),
(665,631,l)
);
}
);
};
layerId = "E21536AE-9819-4FE7-8A20-8865FE3C0515";
shapes = (
{
closed = 1;
nodes = (
(604,631,l),
(529,96,ls),
(520,31,o),
(551,-6,o),
(626,-6,cs),
(642,-6,o),
(684,-4,o),
(711,0,c),
(710,16,l),
(621,16,ls),
(570,16,o),
(545,42,o),
(553,95,cs),
(628,631,l)
);
},
{
closed = 1;
nodes = (
(781,458,l),
(785,480,l),
(313,480,ls),
(155,480,o),
(87,417,o),
(61,242,cs),
(35,56,o),
(87,-12,o),
(248,-12,cs),
(295,-12,o),
(349,-5,o),
(394,5,c),
(391,23,l),
(345,14,o),
(279,11,o),
(250,11,cs),
(106,11,o),
(61,62,o),
(86,239,cs),
(111,406,o),
(172,457,o),
(318,457,cs)
);
}
);
userData = {
com.schriftgestaltung.Glyphs.glyph.leftMetricsKey = c;
com.schriftgestaltung.Glyphs.glyph.rightMetricsKey = t;
};
width = 780;
},
{
anchors = (
{
name = bottom_1;
pos = (188,0);
},
{
name = bottom_2;
pos = (633,0);
},
{
name = caret_1;
pos = (445,0);
},
{
name = top_1;
pos = (258,500);
},
{
name = top_2;
pos = (703,500);
}
);
layerId = "924B7471-43FB-4CAD-AF7E-45215B64D997";
shapes = (
{
closed = 1;
nodes = (
(598,631,l),
(524,130,ls),
(511,42,o),
(572,-14,o),
(674,-14,cs),
(716,-14,o),
(795,-8,o),
(841,10,c),
(830,146,l),
(771,146,l),
(740,146,o),
(736,152,o),
(740,178,cs),
(805,631,l)
);
},
{
closed = 1;
nodes = (
(889,374,l),
(906,500,l),
(302,500,ls),
(115,500,o),
(46,427,o),
(21,259,cs),
(-6,64,o),
(89,-12,o),
(265,-12,cs),
(331,-12,o),
(406,-3,o),
(465,28,c),
(450,161,l),
(395,154,o),
(338,154,o),
(302,154,cs),
(242,154,o),
(228,170,o),
(240,253,cs),
(250,344,o),
(268,374,o),
(328,374,cs)
);
}
);
userData = {
com.schriftgestaltung.Glyphs.glyph.leftMetricsKey = c;
com.schriftgestaltung.Glyphs.glyph.rightMetricsKey = t;
};
width = 890;
}
);
},
{
glyphname = f_f;
kernLeft = f;
kernRight = f;
lastChange = "2024-09-05 13:11:04 +0000";
layers = (
{
anchors = (
{
name = caret_1;
pos = (355.082,0);
}
);
layerId = "54A40BFF-1CE0-48F0-82EB-25AA62455493";
shapes = (
{
closed = 1;
nodes = (
(216,704,o),
(166,654,o),
(154,564,cs),
(67,-47,ls),
(57,-114,o),
(31,-130,o),
(-31,-130,cs),
(-107,-130,l),
(-120,-194,l),
(-74,-199,o),
(-34,-201,o),
(-4,-201,cs),
(89,-201,o),
(137,-150,o),
(150,-60,cs),
(237,551,ls),
(247,617,o),
(274,634,o),
(338,634,cs),
(436,634,l),
(449,698,l),
(411,703,o),
(345,704,o),
(311,704,cs)
);
},
{
closed = 1;
nodes = (
(550,717,o),
(500,666,o),
(487,576,cs),
(402,-31,ls),
(392,-98,o),
(367,-114,o),
(304,-114,cs),
(229,-114,l),
(216,-178,l),
(262,-183,o),
(302,-185,o),
(331,-185,cs),
(424,-185,o),
(473,-134,o),
(486,-44,cs),
(571,563,ls),
(581,630,o),
(608,647,o),
(672,647,cs),
(770,647,l),
(783,710,l),
(745,715,o),
(679,717,o),
(645,717,cs)
);
},
{
closed = 1;
nodes = (
(145,487,l),
(52,482,l),
(44,420,l),
(706,420,l),
(715,487,l)
);
}
);
userData = {
com.schriftgestaltung.Glyphs.glyph.leftMetricsKey = f;
com.schriftgestaltung.Glyphs.glyph.rightMetricsKey = f;
};
width = 710.16471;
},
{
anchors = (
{
name = caret_1;
pos = (327,0);
}
);
background = {
shapes = (
{
closed = 1;
nodes = (
(266,694,o),
(226,649,o),
(214,561,cs),
(135,0,l),
(159,0,l),
(238,561,ls),
(249,643,o),
(282,672,o),
(362,672,cs),
(472,672,l),
(475,690,l),
(441,693,o),
(386,694,o),
(358,694,cs)
);
},
{
closed = 1;
nodes = (
(572,714,o),
(533,669,o),
(521,581,cs),
(439,0,l),
(463,0,l),
(545,581,ls),
(556,663,o),
(589,692,o),
(669,692,cs),
(779,692,l),
(782,710,l),
(748,713,o),
(692,714,o),
(664,714,cs)
);
},
{
closed = 1;
nodes = (
(208,480,l),
(115,475,l),
(112,458,l),
(705,458,l),
(708,480,l)
);
}
);
};
layerId = "E21536AE-9819-4FE7-8A20-8865FE3C0515";
shapes = (
{
closed = 1;
nodes = (
(209,695,o),
(170,651,o),
(158,563,cs),
(68,-76,ls),
(56,-158,o),
(26,-188,o),
(-48,-188,cs),
(-127,-188,l),
(-128,-206,l),
(-103,-209,o),
(-62,-210,o),
(-40,-210,cs),
(45,-210,o),
(79,-167,o),
(92,-78,cs),
(182,561,ls),
(194,643,o),
(228,673,o),
(308,673,cs),
(417,673,l),
(418,691,l),
(384,694,o),
(329,695,o),
(300,695,cs)
);
},
{
closed = 1;
nodes = (
(515,714,o),
(476,670,o),
(464,582,cs),
(376,-44,ls),
(364,-126,o),
(334,-156,o),
(260,-156,cs),
(181,-156,l),
(180,-174,l),
(205,-177,o),
(246,-178,o),
(268,-178,cs),
(353,-178,o),
(387,-135,o),
(400,-46,cs),
(488,580,ls),
(500,662,o),
(534,692,o),
(614,692,cs),
(723,692,l),
(724,710,l),
(690,713,o),
(635,714,o),
(606,714,cs)
);
},
{
closed = 1;
nodes = (
(153,480,l),
(59,475,l),
(56,458,l),
(648,458,l),
(652,480,l)
);
}
);
userData = {
com.schriftgestaltung.Glyphs.glyph.leftMetricsKey = f;
com.schriftgestaltung.Glyphs.glyph.rightMetricsKey = f;
};
width = 654;
},
{
anchors = (
{
name = caret_1;
pos = (404,0);
}
);
layerId = "924B7471-43FB-4CAD-AF7E-45215B64D997";
shapes = (
{
closed = 1;
nodes = (
(194,714,o),
(144,649,o),
(130,555,cs),
(50,5,ls),
(44,-37,o),
(28,-51,o),
(-14,-51,cs),
(-63,-51,l),
(-95,-176,l),
(-25,-186,o),
(21,-191,o),
(60,-191,cs),
(186,-191,o),
(236,-126,o),
(250,-32,cs),
(332,518,ls),
(338,560,o),
(353,574,o),
(393,574,cs),
(453,574,l),
(485,699,l),
(442,709,o),
(361,714,o),
(320,714,cs)
);
},
{
closed = 1;
nodes = (
(580,724,o),
(530,659,o),
(516,565,cs),
(434,20,ls),
(428,-22,o),
(412,-36,o),
(370,-36,cs),
(321,-36,l),
(289,-161,l),
(359,-171,o),
(405,-176,o),
(444,-176,cs),
(570,-176,o),
(620,-111,o),
(634,-17,cs),
(718,528,ls),
(724,570,o),
(739,584,o),
(779,584,cs),
(859,584,l),
(891,709,l),
(842,719,o),
(751,724,o),
(706,724,cs)
);
},
{
closed = 1;
nodes = (
(123,500,l),
(37,495,l),
(22,374,l),
(814,374,l),
(831,500,l)
);
}
);
userData = {
com.schriftgestaltung.Glyphs.glyph.leftMetricsKey = f;
com.schriftgestaltung.Glyphs.glyph.rightMetricsKey = f;
};
width = 808;
}
);
},
{
glyphname = f_f_i;
kernLeft = f;
kernRight = i;
lastChange = "2024-09-05 13:11:04 +0000";
layers = (
{
anchors = (
{
name = caret_1;
pos = (311.6,0);
},
{
name = caret_2;
pos = (623.2,0);
}
);
layerId = "54A40BFF-1CE0-48F0-82EB-25AA62455493";
shapes = (
{
closed = 1;
nodes = (
(216,704,o),
(166,654,o),
(154,564,cs),
(67,-47,ls),
(57,-114,o),
(31,-130,o),
(-31,-130,cs),
(-107,-130,l),
(-120,-194,l),
(-74,-199,o),
(-34,-201,o),
(-4,-201,cs),
(89,-201,o),
(137,-150,o),
(150,-60,cs),
(237,551,ls),
(247,617,o),
(274,634,o),
(338,634,cs),
(436,634,l),
(449,698,l),
(411,703,o),
(345,704,o),
(311,704,cs)
);
},
{
closed = 1;
nodes = (
(550,717,o),
(500,666,o),
(487,576,cs),
(402,-31,ls),
(392,-98,o),
(367,-114,o),
(304,-114,cs),
(229,-114,l),
(216,-178,l),
(262,-183,o),
(302,-185,o),
(331,-185,cs),
(424,-185,o),
(473,-134,o),
(486,-44,cs),
(571,563,ls),
(581,630,o),
(608,647,o),
(672,647,cs),
(770,647,l),
(783,710,l),
(745,715,o),
(679,717,o),
(645,717,cs)
);
},
{
closed = 1;
nodes = (
(145,487,l),
(52,482,l),
(44,420,l),
(826,420,l),
(835,487,l)
);
},
{
closed = 1;
nodes = (
(798,487,l),
(729,0,l),
(814,0,l),
(883,487,l)
);
},
{
closed = 1;
nodes = (
(846,694,ls),
(829,694,o),
(821,685,o),
(819,669,cs),
(811,613,ls),
(809,595,o),
(818,585,o),
(836,585,cs),
(876,585,ls),
(893,585,o),
(900,592,o),
(903,609,cs),
(910,666,ls),
(913,682,o),
(904,694,o),
(886,694,cs)
);
}
);
userData = {
com.schriftgestaltung.Glyphs.glyph.leftMetricsKey = f;
com.schriftgestaltung.Glyphs.glyph.rightMetricsKey = i;
};
width = 934.8;
},
{
anchors = (
{
name = caret_1;
pos = (282.667,0);
},
{
name = caret_2;
pos = (565.333,0);
}
);
layerId = "E21536AE-9819-4FE7-8A20-8865FE3C0515";
shapes = (
{
closed = 1;
nodes = (
(209,695,o),
(170,651,o),
(158,563,cs),
(68,-76,ls),
(56,-158,o),
(26,-188,o),
(-48,-188,cs),
(-127,-188,l),
(-128,-206,l),
(-103,-209,o),
(-62,-210,o),
(-40,-210,cs),
(45,-210,o),
(79,-167,o),
(92,-78,cs),
(182,561,ls),
(194,643,o),
(228,673,o),
(308,673,cs),
(417,673,l),
(418,691,l),
(384,694,o),
(329,695,o),
(300,695,cs)
);
},
{
closed = 1;
nodes = (
(515,714,o),
(476,670,o),
(464,582,cs),
(376,-44,ls),
(364,-126,o),
(334,-156,o),
(260,-156,cs),
(181,-156,l),
(180,-174,l),
(205,-177,o),
(246,-178,o),
(268,-178,cs),
(353,-178,o),
(387,-135,o),
(400,-46,cs),
(488,580,ls),
(500,662,o),
(534,692,o),
(614,692,cs),
(723,692,l),
(724,710,l),
(690,713,o),
(635,714,o),
(606,714,cs)
);
},
{
closed = 1;
nodes = (
(153,480,l),
(59,475,l),
(56,458,l),
(765,457,l),
(769,480,l)
);
},
{
closed = 1;
nodes = (
(754,480,l),
(686,0,l),
(710,0,l),
(778,480,l)
);
},
{
closed = 1;
nodes = (
(788,679,ls),
(780,679,o),
(776,676,o),
(775,668,cs),
(766,606,ls),
(765,598,o),
(770,593,o),
(778,593,cs),
(788,593,ls),
(796,593,o),
(799,596,o),
(800,604,cs),
(809,666,ls),
(810,674,o),
(806,679,o),
(798,679,cs)
);
}
);
userData = {
com.schriftgestaltung.Glyphs.glyph.leftMetricsKey = f;
com.schriftgestaltung.Glyphs.glyph.rightMetricsKey = i;
};
width = 848;
},
{
anchors = (
{
name = caret_1;
pos = (367,0);
},
{
name = caret_2;
pos = (734,0);
}
);
layerId = "924B7471-43FB-4CAD-AF7E-45215B64D997";
shapes = (
{
closed = 1;
nodes = (
(194,714,o),
(144,649,o),
(130,555,cs),
(50,5,ls),
(44,-37,o),
(28,-51,o),
(-14,-51,cs),
(-63,-51,l),
(-95,-176,l),
(-25,-186,o),
(21,-191,o),
(60,-191,cs),
(186,-191,o),
(236,-126,o),
(250,-32,cs),
(332,518,ls),
(338,560,o),
(353,574,o),
(393,574,cs),
(453,574,l),
(485,699,l),
(442,709,o),
(361,714,o),
(320,714,cs)
);
},
{
closed = 1;
nodes = (
(580,724,o),
(530,659,o),
(516,565,cs),
(434,20,ls),
(428,-22,o),
(412,-36,o),
(370,-36,cs),
(321,-36,l),
(289,-161,l),
(359,-171,o),
(405,-176,o),
(444,-176,cs),
(570,-176,o),
(620,-111,o),
(634,-17,cs),
(718,528,ls),
(724,570,o),
(739,584,o),
(779,584,cs),
(829,584,l),
(861,709,l),
(821,719,o),
(745,724,o),
(706,724,cs)
);
},
{
closed = 1;
nodes = (
(123,500,l),
(37,495,l),
(22,374,l),
(894,374,l),
(911,500,l)
);
},
{
closed = 1;
nodes = (
(873,500,l),
(804,0,l),
(1014,0,l),
(1084,500,l)
);
},
{
closed = 1;
nodes = (
(963,739,ls),
(921,739,o),
(904,723,o),
(899,681,cs),
(891,630,ls),
(886,588,o),
(908,564,o),
(950,564,cs),
(1038,564,ls),
(1079,564,o),
(1095,580,o),
(1101,622,cs),
(1108,673,ls),
(1114,715,o),
(1092,739,o),
(1050,739,cs)
);
}
);
userData = {
com.schriftgestaltung.Glyphs.glyph.leftMetricsKey = f;
com.schriftgestaltung.Glyphs.glyph.rightMetricsKey = i;
};
width = 1101;
}
);
},
{
glyphname = f_f_l;
kernLeft = f;
kernRight = l;
lastChange = "2024-09-05 13:11:04 +0000";
layers = (
{
anchors = (
{
name = caret_1;
pos = (332.204,0);
},
{
name = caret_2;
pos = (664.408,0);
}
);
layerId = "54A40BFF-1CE0-48F0-82EB-25AA62455493";
shapes = (
{
closed = 1;
nodes = (
(216,704,o),
(166,654,o),
(154,564,cs),
(67,-47,ls),
(57,-114,o),
(31,-130,o),
(-31,-130,cs),
(-107,-130,l),
(-120,-194,l),
(-74,-199,o),
(-34,-201,o),
(-4,-201,cs),
(89,-201,o),
(137,-150,o),
(150,-60,cs),
(237,551,ls),
(247,617,o),
(274,634,o),
(338,634,cs),
(436,634,l),
(449,698,l),
(411,703,o),
(345,704,o),
(311,704,cs)
);
},
{
closed = 1;
nodes = (
(145,487,l),
(52,482,l),
(44,420,l),
(696,420,l),
(705,487,l)
);
},
{
closed = 1;
nodes = (
(541,718,o),
(498,663,o),
(484,566,cs),
(400,-31,ls),
(390,-98,o),
(365,-114,o),
(302,-114,cs),
(227,-114,l),
(214,-178,l),
(260,-183,o),
(300,-185,o),
(329,-185,cs),
(422,-185,o),
(471,-134,o),
(484,-44,cs),
(568,553,ls),
(578,622,o),
(606,648,o),
(670,648,cs),
(832,648,l),
(756,107,ls),
(746,35,o),
(787,-9,o),
(863,-9,cs),
(885,-9,o),
(932,-5,o),
(951,3,c),
(947,58,l),
(897,58,ls),
(854,58,o),
(837,79,o),
(843,122,cs),
(923,705,l),
(859,715,o),
(719,716,o),
(643,717,cs)
);
}
);
userData = {
com.schriftgestaltung.Glyphs.glyph.leftMetricsKey = f;
com.schriftgestaltung.Glyphs.glyph.rightMetricsKey = l;
};
width = 996.61176;
},
{
anchors = (
{
name = caret_1;
pos = (304,0);
},
{
name = caret_2;
pos = (608,0);
}
);
background = {
shapes = (
{
closed = 1;
nodes = (
(537,714,o),
(498,670,o),
(486,582,cs),
(398,-44,ls),
(386,-126,o),
(356,-156,o),
(282,-156,cs),
(203,-156,l),
(202,-174,l),
(227,-177,o),
(268,-178,o),
(290,-178,cs),
(375,-178,o),
(409,-135,o),
(422,-46,cs),
(510,580,ls),
(522,662,o),
(556,692,o),
(636,692,cs),
(745,692,l),
(746,710,l),
(712,713,o),
(657,714,o),
(628,714,cs)
);
}
);
};
layerId = "E21536AE-9819-4FE7-8A20-8865FE3C0515";
shapes = (
{
closed = 1;
nodes = (
(209,695,o),
(170,651,o),
(158,563,cs),
(68,-76,ls),
(56,-158,o),
(26,-188,o),
(-48,-188,cs),
(-127,-188,l),
(-128,-206,l),
(-103,-209,o),
(-62,-210,o),
(-40,-210,cs),
(45,-210,o),
(79,-167,o),
(92,-78,cs),
(182,561,ls),
(194,643,o),
(228,673,o),
(308,673,cs),
(417,673,l),
(418,691,l),
(384,694,o),
(329,695,o),
(300,695,cs)
);
},
{
closed = 1;
nodes = (
(153,480,l),
(59,475,l),
(56,458,l),
(638,458,l),
(642,480,l)
);
},
{
closed = 1;
nodes = (
(515,714,o),
(476,670,o),
(464,582,cs),
(376,-44,ls),
(364,-126,o),
(334,-156,o),
(260,-156,cs),
(181,-156,l),
(180,-174,l),
(205,-177,o),
(246,-178,o),
(268,-178,cs),
(353,-178,o),
(387,-135,o),
(400,-46,cs),
(488,580,ls),
(500,662,o),
(534,692,o),
(614,692,cs),
(798,692,l),
(714,96,ls),
(705,31,o),
(740,-6,o),
(802,-6,cs),
(819,-6,o),
(853,-4,o),
(866,0,c),
(865,16,l),
(806,16,ls),
(755,16,o),
(730,43,o),
(738,95,cs),
(823,708,l),
(798,710,o),
(712,712,o),
(606,714,cs)
);
}
);
userData = {
com.schriftgestaltung.Glyphs.glyph.leftMetricsKey = f;
com.schriftgestaltung.Glyphs.glyph.rightMetricsKey = l;
};
width = 912;
},
{
anchors = (
{
name = caret_1;
pos = (383.667,0);
},
{
name = caret_2;
pos = (767.333,0);
}
);
layerId = "924B7471-43FB-4CAD-AF7E-45215B64D997";
shapes = (
{
closed = 1;
nodes = (
(194,714,o),
(144,649,o),
(130,555,cs),
(50,5,ls),
(44,-37,o),
(28,-51,o),
(-14,-51,cs),
(-63,-51,l),
(-95,-176,l),
(-25,-186,o),
(21,-191,o),
(60,-191,cs),
(186,-191,o),
(236,-126,o),
(250,-32,cs),
(332,518,ls),
(338,560,o),
(353,574,o),
(393,574,cs),
(453,574,l),
(485,699,l),
(442,709,o),
(361,714,o),
(320,714,cs)
);
},
{
closed = 1;
nodes = (
(123,500,l),
(37,495,l),
(22,374,l),
(804,374,l),
(821,500,l)
);
},
{
closed = 1;
nodes = (
(576,724,o),
(526,659,o),
(513,565,cs),
(435,20,ls),
(429,-22,o),
(414,-36,o),
(374,-36,cs),
(325,-36,l),
(294,-161,l),
(363,-171,o),
(409,-176,o),
(448,-176,cs),
(573,-176,o),
(624,-111,o),
(637,-17,cs),
(715,528,ls),
(721,570,o),
(740,587,o),
(776,587,cs),
(895,587,l),
(830,130,ls),
(818,42,o),
(876,-14,o),
(981,-14,cs),
(1012,-14,o),
(1087,-8,o),
(1118,10,c),
(1108,146,l),
(1076,146,ls),
(1048,146,o),
(1043,152,o),
(1047,178,cs),
(1115,699,l),
(982,725,o),
(751,724,o),
(703,724,cs)
);
}
);
userData = {
com.schriftgestaltung.Glyphs.glyph.leftMetricsKey = f;
com.schriftgestaltung.Glyphs.glyph.rightMetricsKey = l;
};
width = 1151;
}
);
},
